Adelphe-Italic.ufo
<glyph name="exclam" format="2">
  <advance width="198"/>
  <unicode hex="0021"/>
  <guideline x="147" y="231"/>
  <outline>
    <contour>
      <point x="100" y="226" type="line"/>
      <point x="264" y="692" type="line"/>
      <point x="243" y="713" type="line"/>
      <point x="166" y="700" type="line"/>
      <point x="78" y="231" type="line"/>
    </contour>
    <component base="period" xOffset="10"/>
  </outline>
</glyph>
<glyph name="numbersign" format="2">
  <advance width="608"/>
  <unicode hex="0023"/>
  <outline>
    <contour>
      <point x="100" y="437" type="line"/>
      <point x="629" y="437" type="line"/>
      <point x="645" y="494" type="line"/>
      <point x="116" y="494" type="line"/>
    </contour>
    <contour>
      <point x="-2" y="197" type="line"/>
      <point x="527" y="197" type="line"/>
      <point x="542" y="254" type="line"/>
      <point x="13" y="254" type="line"/>
    </contour>
    <component base="slash" xOffset="74"/>
    <component base="slash" xOffset="317"/>
  </outline>
</glyph>
<glyph name="dollar" format="2">
  <advance width="520"/>
  <unicode hex="0024"/>
  <outline>
    <contour>
      <point x="177" y="21" type="line"/>
      <point x="125" y="-172" type="line"/>
      <point x="175" y="-172" type="line"/>
      <point x="227" y="21" type="line"/>
    </contour>
    <contour>
      <point x="440" y="852" type="line"/>
      <point x="397" y="691" type="line"/>
      <point x="447" y="691" type="line"/>
      <point x="490" y="852" type="line"/>
    </contour>
    <component base="S"/>
  </outline>
</glyph>
<glyph name="percent" format="2">
  <advance width="717"/>
  <unicode hex="0025"/>
  <outline>
    <contour>
      <point x="119" y="31" type="line"/>
      <point x="162" y="1" type="line"/>
      <point x="601" y="673" type="line"/>
      <point x="557" y="700" type="line"/>
    </contour>
    <component base="degree" xOffset="-8" yOffset="-30"/>
    <component base="degree" xOffset="312" yOffset="-444"/>
  </outline>
</glyph>
<glyph name="ampersand" format="2">
  <advance width="808"/>
  <unicode hex="0026"/>
  <anchor x="191" y="480" name="top"/>
  <outline>
    <contour>
      <point x="284" y="-172" type="curve" smooth="yes"/>
      <point x="494" y="-172"/>
      <point x="843" y="243"/>
      <point x="843" y="548" type="curve" smooth="yes"/>
      <point x="843" y="651"/>
      <point x="811" y="732"/>
      <point x="746" y="831" type="curve"/>
      <point x="656" y="761" type="line"/>
      <point x="719" y="680"/>
      <point x="759" y="593"/>
      <point x="759" y="494" type="curve" smooth="yes"/>
      <point x="759" y="304"/>
      <point x="520" y="-82"/>
      <point x="319" y="-123" type="curve"/>
      <point x="214" y="-78"/>
      <point x="167" y="35"/>
      <point x="167" y="166" type="curve" smooth="yes"/>
      <point x="167" y="347"/>
      <point x="242" y="595"/>
      <point x="377" y="710" type="curve"/>
      <point x="388" y="700"/>
      <point x="405" y="666"/>
      <point x="405" y="637" type="curve" smooth="yes"/>
      <point x="405" y="559"/>
      <point x="266" y="502"/>
      <point x="178" y="486" type="curve"/>
      <point x="163" y="452" type="line"/>
      <point x="298" y="468"/>
      <point x="494" y="556"/>
      <point x="494" y="650" type="curve" smooth="yes"/>
      <point x="494" y="694"/>
      <point x="451" y="749"/>
      <point x="407" y="749" type="curve" smooth="yes"/>
      <point x="267" y="749"/>
      <point x="77" y="366"/>
      <point x="77" y="94" type="curve" smooth="yes"/>
      <point x="77" y="-42"/>
      <point x="163" y="-172"/>
    </contour>
    <contour>
      <point x="368" y="10" type="curve"/>
      <point x="401" y="45"/>
      <point x="449" y="93"/>
      <point x="511" y="139" type="curve"/>
      <point x="504" y="154" type="line"/>
      <point x="452" y="130"/>
      <point x="426" y="115"/>
      <point x="398" y="95" type="curve"/>
      <point x="504" y="363" type="line" smooth="yes"/>
      <point x="542" y="459"/>
      <point x="587" y="579"/>
      <point x="610" y="626" type="curve"/>
      <point x="595" y="636" type="line"/>
      <point x="469" y="480" type="line"/>
      <point x="444" y="405"/>
      <point x="300" y="62"/>
      <point x="305" y="47" type="curve" smooth="yes"/>
      <point x="316" y="17"/>
      <point x="348" y="10"/>
    </contour>
    <contour>
      <point x="658" y="446" type="line"/>
      <point x="683" y="483" type="line"/>
      <point x="680" y="499" type="line"/>
      <point x="541" y="491" type="line"/>
      <point x="167" y="472" type="line"/>
      <point x="168" y="455" type="line"/>
      <point x="513" y="448" type="line"/>
    </contour>
  </outline>
</glyph>
<glyph name="quotesingle" format="2">
  <advance width="127"/>
  <unicode hex="0027"/>
  <outline>
    <contour>
      <point x="118" y="516" type="line"/>
      <point x="133" y="516" type="line"/>
      <point x="238" y="730" type="line"/>
      <point x="162" y="730" type="line"/>
      <point x="147" y="715" type="line"/>
    </contour>
  </outline>
</glyph>
<glyph name="parenleft" format="2">
  <advance width="281"/>
  <unicode hex="0028"/>
  <outline>
    <contour>
      <point x="165" y="-191" type="curve"/>
      <point x="187" y="-176" type="line"/>
      <point x="150" y="-97"/>
      <point x="129" y="-3"/>
      <point x="129" y="105" type="curve" smooth="yes"/>
      <point x="129" y="319"/>
      <point x="253" y="538"/>
      <point x="438" y="718" type="curve"/>
      <point x="422" y="738" type="line"/>
      <point x="222" y="573"/>
      <point x="47" y="357"/>
      <point x="47" y="136" type="curve" smooth="yes"/>
      <point x="47" y="16"/>
      <point x="95" y="-84"/>
    </contour>
  </outline>
</glyph>
<glyph name="parenright" format="2">
  <advance width="279"/>
  <unicode hex="0029"/>
  <outline>
    <contour>
      <point x="-124" y="-187" type="line"/>
      <point x="76" y="-22"/>
      <point x="249" y="197"/>
      <point x="249" y="409" type="curve" smooth="yes"/>
      <point x="249" y="528"/>
      <point x="201" y="632"/>
      <point x="130" y="739" type="curve"/>
      <point x="106" y="722" type="line"/>
      <point x="145" y="636"/>
      <point x="160" y="541"/>
      <point x="160" y="448" type="curve" smooth="yes"/>
      <point x="160" y="227"/>
      <point x="47" y="10"/>
      <point x="-139" y="-166" type="curve"/>
    </contour>
  </outline>
</glyph>
<glyph name="asterisk" format="2">
  <advance width="404"/>
  <unicode hex="002A"/>
  <outline>
    <contour>
      <point x="181" y="389" type="line"/>
      <point x="207" y="441"/>
      <point x="243" y="493"/>
      <point x="279" y="545" type="curve"/>
      <point x="282" y="500"/>
      <point x="288" y="452"/>
      <point x="303" y="407" type="curve"/>
      <point x="318" y="400" type="line"/>
      <point x="392" y="448" type="line"/>
      <point x="353" y="483"/>
      <point x="325" y="517"/>
      <point x="298" y="552" type="curve"/>
      <point x="343" y="553"/>
      <point x="393" y="553"/>
      <point x="438" y="564" type="curve"/>
      <point x="451" y="578" type="line"/>
      <point x="449" y="652" type="line"/>
      <point x="397" y="614"/>
      <point x="349" y="591"/>
      <point x="297" y="573" type="curve"/>
      <point x="324" y="619"/>
      <point x="351" y="666"/>
      <point x="368" y="712" type="curve"/>
      <point x="362" y="730" type="line"/>
      <point x="286" y="730" type="line"/>
      <point x="290" y="678"/>
      <point x="284" y="627"/>
      <point x="278" y="575" type="curve"/>
      <point x="247" y="596"/>
      <point x="209" y="618"/>
      <point x="178" y="629" type="curve"/>
      <point x="160" y="623" type="line"/>
      <point x="123" y="543" type="line"/>
      <point x="170" y="553"/>
      <point x="218" y="552"/>
      <point x="265" y="552" type="curve"/>
      <point x="219" y="521"/>
      <point x="174" y="490"/>
      <point x="131" y="451" type="curve"/>
      <point x="128" y="437" type="line"/>
    </contour>
  </outline>
</glyph>
<glyph name="plus" format="2">
  <advance width="514"/>
  <unicode hex="002B"/>
  <outline>
    <contour>
      <point x="61" y="395" type="line"/>
      <point x="61" y="330" type="line"/>
      <point x="517" y="330" type="line"/>
      <point x="517" y="395" type="line"/>
    </contour>
    <contour>
      <point x="322" y="590" type="line"/>
      <point x="257" y="590" type="line"/>
      <point x="257" y="134" type="line"/>
      <point x="322" y="134" type="line"/>
    </contour>
  </outline>
</glyph>
<glyph name="comma" format="2">
  <advance width="228"/>
  <unicode hex="002C"/>
  <outline>
    <contour>
      <point x="-62" y="-145" type="line"/>
      <point x="77" y="-63"/>
      <point x="139" y="18"/>
      <point x="151" y="66" type="curve"/>
      <point x="141" y="95"/>
      <point x="118" y="127"/>
      <point x="89" y="156" type="curve"/>
      <point x="13" y="78" type="line"/>
      <point x="38" y="58"/>
      <point x="54" y="40"/>
      <point x="61" y="20" type="curve"/>
      <point x="48" y="-14"/>
      <point x="6" y="-71"/>
      <point x="-70" y="-130" type="curve"/>
    </contour>
  </outline>
</glyph>
<glyph name="hyphen" format="2">
  <advance width="329"/>
  <unicode hex="002D"/>
  <outline>
    <contour>
      <point x="34" y="244" type="line"/>
      <point x="279" y="244" type="line"/>
      <point x="319" y="298" type="line"/>
      <point x="314" y="313" type="line"/>
      <point x="72" y="313" type="line"/>
      <point x="29" y="259" type="line"/>
    </contour>
  </outline>
</glyph>
<glyph name="slash" format="2">
  <advance width="193"/>
  <unicode hex="002F"/>
  <outline>
    <contour>
      <point x="-96" y="-40" type="line"/>
      <point x="-33" y="-40" type="line"/>
      <point x="336" y="700" type="line"/>
      <point x="273" y="700" type="line"/>
    </contour>
  </outline>
</glyph>
<glyph name="zero" format="2">
  <advance width="569"/>
  <unicode hex="0030"/>
  <outline>
    <contour>
      <point x="196" y="-14" type="curve" smooth="yes"/>
      <point x="367" y="-14"/>
      <point x="591" y="278"/>
      <point x="591" y="511" type="curve" smooth="yes"/>
      <point x="591" y="627"/>
      <point x="530" y="714"/>
      <point x="436" y="714" type="curve" smooth="yes"/>
      <point x="264" y="714"/>
      <point x="36" y="423"/>
      <point x="36" y="193" type="curve" smooth="yes"/>
      <point x="36" y="90"/>
      <point x="93" y="-14"/>
    </contour>
    <contour>
      <point x="235" y="32" type="curve" smooth="yes"/>
      <point x="164" y="32"/>
      <point x="139" y="140"/>
      <point x="139" y="220" type="curve" smooth="yes"/>
      <point x="139" y="400"/>
      <point x="285" y="668"/>
      <point x="394" y="668" type="curve" smooth="yes"/>
      <point x="444" y="668"/>
      <point x="487" y="603"/>
      <point x="487" y="509" type="curve" smooth="yes"/>
      <point x="487" y="328"/>
      <point x="356" y="32"/>
    </contour>
  </outline>
</glyph>
<glyph name="one" format="2">
  <advance width="354"/>
  <unicode hex="0031"/>
  <outline>
    <contour>
      <point x="-21" y="0" type="line"/>
      <point x="249" y="0" type="line"/>
      <point x="250" y="18" type="line"/>
      <point x="162" y="38" type="line"/>
      <point x="360" y="700" type="line"/>
      <point x="353" y="709" type="line"/>
      <point x="132" y="640" type="line"/>
      <point x="132" y="626" type="line"/>
      <point x="293" y="621" type="line"/>
      <point x="250" y="650" type="line"/>
      <point x="68" y="38" type="line"/>
      <point x="-20" y="18" type="line"/>
    </contour>
  </outline>
</glyph>
<glyph name="two" format="2">
  <advance width="533"/>
  <unicode hex="0032"/>
  <outline>
    <contour>
      <point x="-43" y="0" type="line"/>
      <point x="366" y="0" type="line"/>
      <point x="459" y="154" type="line"/>
      <point x="448" y="164" type="line"/>
      <point x="369" y="90" type="line"/>
      <point x="54" y="90" type="line"/>
      <point x="55" y="65" type="line"/>
      <point x="405" y="325"/>
      <point x="539" y="455"/>
      <point x="539" y="580" type="curve" smooth="yes"/>
      <point x="539" y="650"/>
      <point x="496" y="708"/>
      <point x="399" y="708" type="curve" smooth="yes"/>
      <point x="289" y="708"/>
      <point x="195" y="635"/>
      <point x="128" y="534" type="curve"/>
      <point x="141" y="522" type="line"/>
      <point x="209" y="594"/>
      <point x="282" y="633"/>
      <point x="344" y="633" type="curve" smooth="yes"/>
      <point x="400" y="633"/>
      <point x="436" y="600"/>
      <point x="436" y="552" type="curve" smooth="yes"/>
      <point x="436" y="449"/>
      <point x="271" y="278"/>
      <point x="-46" y="16" type="curve"/>
    </contour>
  </outline>
</glyph>
<glyph name="three" format="2">
  <advance width="518"/>
  <unicode hex="0033"/>
  <outline>
    <contour>
      <point x="137" y="-14" type="curve" smooth="yes"/>
      <point x="302" y="-14"/>
      <point x="458" y="147"/>
      <point x="458" y="261" type="curve" smooth="yes"/>
      <point x="458" y="339"/>
      <point x="384" y="388"/>
      <point x="287" y="388" type="curve"/>
      <point x="414" y="436"/>
      <point x="518" y="519"/>
      <point x="518" y="604" type="curve" smooth="yes"/>
      <point x="518" y="663"/>
      <point x="473" y="707"/>
      <point x="392" y="707" type="curve" smooth="yes"/>
      <point x="305" y="707"/>
      <point x="211" y="656"/>
      <point x="140" y="576" type="curve"/>
      <point x="152" y="561" type="line"/>
      <point x="224" y="622"/>
      <point x="286" y="644"/>
      <point x="334" y="644" type="curve" smooth="yes"/>
      <point x="386" y="644"/>
      <point x="413" y="618"/>
      <point x="413" y="576" type="curve" smooth="yes"/>
      <point x="413" y="495"/>
      <point x="312" y="418"/>
      <point x="164" y="363" type="curve"/>
      <point x="169" y="344" type="line"/>
      <point x="215" y="352"/>
      <point x="354" y="342"/>
      <point x="354" y="222" type="curve" smooth="yes"/>
      <point x="354" y="136"/>
      <point x="278" y="31"/>
      <point x="195" y="31" type="curve" smooth="yes"/>
      <point x="136" y="31"/>
      <point x="78" y="74"/>
      <point x="51" y="148" type="curve"/>
      <point x="-41" y="69" type="line"/>
      <point x="-7" y="23"/>
      <point x="61" y="-14"/>
    </contour>
  </outline>
</glyph>
<glyph name="four" format="2">
  <advance width="575"/>
  <unicode hex="0034"/>
  <outline>
    <contour>
      <point x="263" y="37" type="line"/>
      <point x="162" y="18" type="line"/>
      <point x="161" y="0" type="line"/>
      <point x="430" y="0" type="line"/>
      <point x="431" y="18" type="line"/>
      <point x="352" y="37" type="line"/>
      <point x="554" y="686" type="line"/>
      <point x="495" y="714" type="line"/>
      <point x="4" y="220" type="line"/>
      <point x="9" y="202" type="line"/>
      <point x="510" y="202" type="line"/>
      <point x="533" y="273" type="line"/>
      <point x="95" y="273" type="line"/>
      <point x="83" y="249" type="line"/>
      <point x="456" y="608" type="line"/>
      <point x="444" y="618" type="line"/>
    </contour>
  </outline>
</glyph>
<glyph name="five" format="2">
  <advance width="520"/>
  <unicode hex="0035"/>
  <outline>
    <contour>
      <point x="143" y="-14" type="curve" smooth="yes"/>
      <point x="297" y="-14"/>
      <point x="454" y="127"/>
      <point x="454" y="263" type="curve" smooth="yes"/>
      <point x="454" y="365"/>
      <point x="367" y="432"/>
      <point x="156" y="469" type="curve"/>
      <point x="181" y="445" type="line"/>
      <point x="284" y="639" type="line"/>
      <point x="229" y="610" type="line"/>
      <point x="525" y="610" type="line"/>
      <point x="568" y="700" type="line"/>
      <point x="258" y="700" type="line"/>
      <point x="119" y="382" type="line"/>
      <point x="253" y="361"/>
      <point x="360" y="309"/>
      <point x="360" y="208" type="curve" smooth="yes"/>
      <point x="360" y="122"/>
      <point x="283" y="31"/>
      <point x="200" y="31" type="curve" smooth="yes"/>
      <point x="126" y="31"/>
      <point x="74" y="95"/>
      <point x="56" y="148" type="curve"/>
      <point x="-36" y="69" type="line"/>
      <point x="8" y="13"/>
      <point x="76" y="-14"/>
    </contour>
  </outline>
</glyph>
<glyph name="six" format="2">
  <advance width="591"/>
  <unicode hex="0036"/>
  <outline>
    <contour>
      <point x="222" y="-14" type="curve" smooth="yes"/>
      <point x="350" y="-14"/>
      <point x="542" y="169"/>
      <point x="542" y="304" type="curve" smooth="yes"/>
      <point x="542" y="388"/>
      <point x="471" y="448"/>
      <point x="416" y="448" type="curve" smooth="yes"/>
      <point x="360" y="448"/>
      <point x="294" y="387"/>
      <point x="256" y="307" type="curve"/>
      <point x="273" y="297" type="line"/>
      <point x="309" y="344"/>
      <point x="353" y="379"/>
      <point x="377" y="392" type="curve"/>
      <point x="410" y="375"/>
      <point x="438" y="323"/>
      <point x="438" y="278" type="curve" smooth="yes"/>
      <point x="438" y="164"/>
      <point x="334" y="55"/>
      <point x="256" y="26" type="curve"/>
      <point x="201" y="50"/>
      <point x="159" y="107"/>
      <point x="159" y="190" type="curve" smooth="yes"/>
      <point x="159" y="364"/>
      <point x="302" y="628"/>
      <point x="599" y="713" type="curve"/>
      <point x="598" y="734" type="line"/>
      <point x="329" y="702"/>
      <point x="52" y="407"/>
      <point x="52" y="166" type="curve" smooth="yes"/>
      <point x="52" y="37"/>
      <point x="153" y="-14"/>
    </contour>
  </outline>
</glyph>
<glyph name="seven" format="2">
  <advance width="482"/>
  <unicode hex="0037"/>
  <outline>
    <contour>
      <point x="10" y="1" type="line"/>
      <point x="125" y="1" type="line"/>
      <point x="585" y="684" type="line"/>
      <point x="578" y="700" type="line"/>
      <point x="177" y="700" type="line"/>
      <point x="101" y="543" type="line"/>
      <point x="116" y="535" type="line"/>
      <point x="184" y="610" type="line"/>
      <point x="532" y="610" type="line"/>
      <point x="522" y="641" type="line"/>
      <point x="5" y="19" type="line"/>
    </contour>
  </outline>
</glyph>
<glyph name="eight" format="2">
  <advance width="534"/>
  <unicode hex="0038"/>
  <outline>
    <contour>
      <point x="173" y="-14" type="curve" smooth="yes"/>
      <point x="302" y="-14"/>
      <point x="451" y="107"/>
      <point x="451" y="203" type="curve" smooth="yes"/>
      <point x="451" y="296"/>
      <point x="278" y="449"/>
      <point x="278" y="547" type="curve" smooth="yes"/>
      <point x="278" y="617"/>
      <point x="346" y="666"/>
      <point x="402" y="686" type="curve"/>
      <point x="442" y="673"/>
      <point x="483" y="647"/>
      <point x="483" y="608" type="curve" smooth="yes"/>
      <point x="483" y="535"/>
      <point x="414" y="457"/>
      <point x="324" y="389" type="curve"/>
      <point x="334" y="368" type="line"/>
      <point x="433" y="428"/>
      <point x="583" y="532"/>
      <point x="583" y="623" type="curve" smooth="yes"/>
      <point x="583" y="672"/>
      <point x="519" y="714"/>
      <point x="441" y="714" type="curve" smooth="yes"/>
      <point x="318" y="714"/>
      <point x="184" y="615"/>
      <point x="184" y="521" type="curve" smooth="yes"/>
      <point x="184" y="427"/>
      <point x="358" y="270"/>
      <point x="358" y="179" type="curve" smooth="yes"/>
      <point x="358" y="112"/>
      <point x="281" y="36"/>
      <point x="205" y="17" type="curve"/>
      <point x="157" y="35"/>
      <point x="120" y="71"/>
      <point x="120" y="122" type="curve" smooth="yes"/>
      <point x="120" y="185"/>
      <point x="187" y="264"/>
      <point x="284" y="344" type="curve"/>
      <point x="272" y="366" type="line"/>
      <point x="161" y="298"/>
      <point x="17" y="199"/>
      <point x="17" y="108" type="curve" smooth="yes"/>
      <point x="17" y="42"/>
      <point x="83" y="-14"/>
    </contour>
  </outline>
</glyph>
<glyph name="equal" format="2">
  <advance width="526"/>
  <unicode hex="003D"/>
  <outline>
    <contour>
      <point x="66" y="470" type="line"/>
      <point x="66" y="405" type="line"/>
      <point x="522" y="405" type="line"/>
      <point x="522" y="470" type="line"/>
    </contour>
    <contour>
      <point x="66" y="312" type="line"/>
      <point x="66" y="247" type="line"/>
      <point x="522" y="247" type="line"/>
      <point x="522" y="312" type="line"/>
    </contour>
  </outline>
</glyph>
<glyph name="question" format="2">
  <advance width="362"/>
  <unicode hex="003F"/>
  <guideline x="250" y="231"/>
  <outline>
    <contour>
      <point x="344" y="598" type="curve" smooth="yes"/>
      <point x="344" y="465"/>
      <point x="158" y="332"/>
      <point x="128" y="236" type="curve"/>
      <point x="164" y="231" type="line"/>
      <point x="194" y="317"/>
      <point x="440" y="472"/>
      <point x="440" y="629" type="curve" smooth="yes"/>
      <point x="440" y="650"/>
      <point x="402" y="712"/>
      <point x="340" y="712" type="curve" smooth="yes"/>
      <point x="239" y="712"/>
      <point x="86" y="584"/>
      <point x="86" y="522" type="curve" smooth="yes"/>
      <point x="86" y="509"/>
      <point x="92" y="496"/>
      <point x="101" y="484" type="curve"/>
      <point x="198" y="531" type="line"/>
      <point x="193" y="539"/>
      <point x="188" y="548"/>
      <point x="188" y="559" type="curve" smooth="yes"/>
      <point x="188" y="611"/>
      <point x="248" y="659"/>
      <point x="290" y="670" type="curve"/>
      <point x="320" y="659"/>
      <point x="344" y="632"/>
    </contour>
    <component base="period" xOffset="76"/>
  </outline>
</glyph>
<glyph name="at" format="2">
  <advance width="660"/>
  <unicode hex="0040"/>
  <outline>
    <contour>
      <point x="189" y="-123" type="curve" smooth="yes"/>
      <point x="254" y="-123"/>
      <point x="321" y="-88"/>
      <point x="394" y="-34" type="curve"/>
      <point x="385" y="-19" type="line"/>
      <point x="329" y="-49"/>
      <point x="292" y="-63"/>
      <point x="217" y="-84" type="curve"/>
      <point x="127" y="-63"/>
      <point x="82" y="15"/>
      <point x="82" y="104" type="curve" smooth="yes"/>
      <point x="82" y="261"/>
      <point x="243" y="517"/>
      <point x="445" y="551" type="curve"/>
      <point x="554" y="512"/>
      <point x="602" y="435"/>
      <point x="602" y="354" type="curve" smooth="yes"/>
      <point x="602" y="238"/>
      <point x="505" y="102"/>
      <point x="431" y="72" type="curve"/>
      <point x="439" y="128"/>
      <point x="445" y="152"/>
      <point x="467" y="216" type="curve" smooth="yes"/>
      <point x="535" y="413" type="line"/>
      <point x="527" y="421" type="line"/>
      <point x="455" y="394" type="line"/>
      <point x="386" y="178" type="line" smooth="yes"/>
      <point x="373" y="137"/>
      <point x="362" y="69"/>
      <point x="365" y="57" type="curve" smooth="yes"/>
      <point x="368" y="46"/>
      <point x="393" y="33"/>
      <point x="417" y="33" type="curve" smooth="yes"/>
      <point x="517" y="33"/>
      <point x="663" y="259"/>
      <point x="663" y="400" type="curve" smooth="yes"/>
      <point x="663" y="512"/>
      <point x="570" y="587"/>
      <point x="470" y="587" type="curve" smooth="yes"/>
      <point x="257" y="587"/>
      <point x="2" y="278"/>
      <point x="2" y="69" type="curve" smooth="yes"/>
      <point x="2" y="-63"/>
      <point x="104" y="-123"/>
    </contour>
    <component base="panse_adq" xScale="0.8" yScale="0.8" xOffset="126" yOffset="47"/>
  </outline>
</glyph>
<glyph name="A" format="2">
  <advance width="657"/>
  <unicode hex="0041"/>
  <anchor x="238" y="0" name="bottom"/>
  <anchor x="518" y="700" name="top"/>
  <outline>
    <contour>
      <point x="-87" y="0" type="line"/>
      <point x="158" y="0" type="line"/>
      <point x="161" y="18" type="line"/>
      <point x="70" y="34" type="line"/>
      <point x="470" y="651" type="line"/>
      <point x="460" y="663" type="line"/>
      <point x="451" y="34" type="line"/>
      <point x="341" y="18" type="line"/>
      <point x="338" y="0" type="line"/>
      <point x="597" y="0" type="line"/>
      <point x="599" y="18" type="line"/>
      <point x="541" y="33" type="line"/>
      <point x="550" y="700" type="line"/>
      <point x="472" y="700" type="line"/>
      <point x="-26" y="32" type="line"/>
      <point x="-85" y="18" type="line"/>
    </contour>
    <contour>
      <point x="176" y="217" type="line"/>
      <point x="459" y="217" type="line"/>
      <point x="464" y="258" type="line"/>
      <point x="192" y="258" type="line"/>
    </contour>
  </outline>
</glyph>
<glyph name="B" format="2">
  <advance width="618"/>
  <unicode hex="0042"/>
  <outline>
    <contour>
      <point x="-35" y="0" type="line"/>
      <point x="152" y="0" type="line" smooth="yes"/>
      <point x="423" y="0"/>
      <point x="551" y="91"/>
      <point x="551" y="197" type="curve" smooth="yes"/>
      <point x="551" y="282"/>
      <point x="457" y="333"/>
      <point x="351" y="361" type="curve"/>
      <point x="491" y="392"/>
      <point x="601" y="473"/>
      <point x="601" y="549" type="curve" smooth="yes"/>
      <point x="601" y="623"/>
      <point x="505" y="700"/>
      <point x="327" y="700" type="curve" smooth="yes"/>
      <point x="170" y="700" type="line"/>
      <point x="166" y="685" type="line"/>
      <point x="245" y="672" type="line"/>
      <point x="53" y="33" type="line"/>
      <point x="-30" y="15" type="line"/>
    </contour>
    <contour>
      <point x="148" y="37" type="curve"/>
      <point x="242" y="353" type="line"/>
      <point x="360" y="341"/>
      <point x="453" y="270"/>
      <point x="453" y="193" type="curve" smooth="yes"/>
      <point x="453" y="95"/>
      <point x="359" y="37"/>
    </contour>
    <contour>
      <point x="503" y="438"/>
      <point x="346" y="373"/>
      <point x="252" y="383" type="curve"/>
      <point x="335" y="658" type="line"/>
      <point x="456" y="653"/>
      <point x="503" y="599"/>
      <point x="503" y="542" type="curve" smooth="yes"/>
    </contour>
  </outline>
</glyph>
<glyph name="C" format="2">
  <advance width="589"/>
  <unicode hex="0043"/>
  <anchor x="327" y="0" name="bottom"/>
  <outline>
    <contour>
      <point x="293" y="-13" type="curve" smooth="yes"/>
      <point x="347" y="-13"/>
      <point x="426" y="2"/>
      <point x="455" y="13" type="curve"/>
      <point x="510" y="190" type="line"/>
      <point x="493" y="197" type="line"/>
      <point x="433" y="105" type="line" smooth="yes"/>
      <point x="392" y="43"/>
      <point x="359" y="28"/>
      <point x="323" y="28" type="curve" smooth="yes"/>
      <point x="202" y="28"/>
      <point x="160" y="165"/>
      <point x="160" y="248" type="curve" smooth="yes"/>
      <point x="160" y="435"/>
      <point x="337" y="670"/>
      <point x="470" y="670" type="curve" smooth="yes"/>
      <point x="504" y="670"/>
      <point x="539" y="655"/>
      <point x="565" y="634" type="curve"/>
      <point x="593" y="487" type="line"/>
      <point x="610" y="489" type="line"/>
      <point x="646" y="666" type="line"/>
      <point x="580" y="698"/>
      <point x="544" y="713"/>
      <point x="494" y="713" type="curve" smooth="yes"/>
      <point x="284" y="713"/>
      <point x="57" y="438"/>
      <point x="57" y="224" type="curve" smooth="yes"/>
      <point x="57" y="115"/>
      <point x="134" y="-13"/>
    </contour>
  </outline>
</glyph>
<glyph name="D" format="2">
  <advance width="669"/>
  <unicode hex="0044"/>
  <outline>
    <contour>
      <point x="-34" y="0" type="line"/>
      <point x="139" y="0" type="line" smooth="yes"/>
      <point x="429" y="0"/>
      <point x="661" y="245"/>
      <point x="661" y="435" type="curve" smooth="yes"/>
      <point x="661" y="564"/>
      <point x="557" y="700"/>
      <point x="332" y="700" type="curve" smooth="yes"/>
      <point x="169" y="700" type="line"/>
      <point x="165" y="685" type="line"/>
      <point x="244" y="672" type="line"/>
      <point x="51" y="33" type="line"/>
      <point x="-31" y="15" type="line"/>
    </contour>
    <contour>
      <point x="146" y="37" type="curve"/>
      <point x="336" y="665" type="line"/>
      <point x="498" y="665"/>
      <point x="560" y="534"/>
      <point x="560" y="433" type="curve" smooth="yes"/>
      <point x="560" y="276"/>
      <point x="403" y="37"/>
    </contour>
  </outline>
</glyph>
<glyph name="E" format="2">
  <advance width="633"/>
  <unicode hex="0045"/>
  <anchor x="304" y="0" name="bottom"/>
  <anchor x="464" y="700" name="top"/>
  <outline>
    <contour>
      <point x="-31" y="0" type="line"/>
      <point x="239" y="0" type="line"/>
      <point x="240" y="18" type="line"/>
      <point x="144" y="18" type="line"/>
      <point x="342" y="682" type="line"/>
      <point x="430" y="682" type="line"/>
      <point x="434" y="700" type="line"/>
      <point x="180" y="700" type="line"/>
      <point x="176" y="686" type="line"/>
      <point x="243" y="664" type="line"/>
      <point x="56" y="37" type="line"/>
      <point x="-30" y="18" type="line"/>
    </contour>
    <contour>
      <point x="146" y="0" type="line"/>
      <point x="524" y="0" type="line"/>
      <point x="578" y="171" type="line"/>
      <point x="562" y="178" type="line"/>
      <point x="481" y="66" type="line"/>
      <point x="135" y="33" type="line"/>
    </contour>
    <contour>
      <point x="432" y="219" type="line"/>
      <point x="495" y="464" type="line"/>
      <point x="478" y="470" type="line"/>
      <point x="418" y="381" type="line"/>
      <point x="236" y="356" type="line"/>
      <point x="231" y="330" type="line"/>
      <point x="404" y="320" type="line"/>
      <point x="414" y="220" type="line"/>
    </contour>
    <contour>
      <point x="609" y="509" type="line"/>
      <point x="627" y="512" type="line"/>
      <point x="653" y="700" type="line"/>
      <point x="300" y="700" type="line"/>
      <point x="287" y="673" type="line"/>
      <point x="580" y="644" type="line"/>
    </contour>
  </outline>
</glyph>
<glyph name="G" format="2">
  <advance width="659"/>
  <unicode hex="0047"/>
  <anchor x="304" y="0" name="bottom"/>
  <outline>
    <contour>
      <point x="471" y="-14" type="line"/>
      <point x="486" y="-14" type="line"/>
      <point x="568" y="282" type="line"/>
      <point x="634" y="299" type="line"/>
      <point x="638" y="317" type="line"/>
      <point x="340" y="317" type="line"/>
      <point x="337" y="300" type="line"/>
      <point x="475" y="281" type="line"/>
      <point x="417" y="73" type="line"/>
      <point x="402" y="55"/>
      <point x="360" y="28"/>
      <point x="319" y="28" type="curve" smooth="yes"/>
      <point x="208" y="28"/>
      <point x="161" y="159"/>
      <point x="161" y="251" type="curve" smooth="yes"/>
      <point x="161" y="430"/>
      <point x="337" y="670"/>
      <point x="471" y="670" type="curve" smooth="yes"/>
      <point x="505" y="670"/>
      <point x="540" y="655"/>
      <point x="566" y="634" type="curve"/>
      <point x="594" y="487" type="line"/>
      <point x="611" y="489" type="line"/>
      <point x="647" y="666" type="line"/>
      <point x="581" y="698"/>
      <point x="545" y="713"/>
      <point x="495" y="713" type="curve" smooth="yes"/>
      <point x="285" y="713"/>
      <point x="58" y="436"/>
      <point x="58" y="229" type="curve" smooth="yes"/>
      <point x="58" y="100"/>
      <point x="146" y="-13"/>
      <point x="293" y="-13" type="curve" smooth="yes"/>
      <point x="343" y="-13"/>
      <point x="391" y="8"/>
      <point x="438" y="45" type="curve"/>
    </contour>
  </outline>
</glyph>
<glyph name="H" format="2">
  <advance width="777"/>
  <unicode hex="0048"/>
  <anchor x="303" y="0" name="bottom"/>
  <outline>
    <contour>
      <point x="180" y="334" type="line"/>
      <point x="616" y="334" type="line"/>
      <point x="631" y="376" type="line"/>
      <point x="196" y="376" type="line"/>
    </contour>
    <component base="I"/>
    <component base="I" xOffset="435"/>
  </outline>
</glyph>
<glyph name="I" format="2">
  <advance width="342"/>
  <unicode hex="0049"/>
  <anchor x="311" y="700" name="top"/>
  <outline>
    <contour>
      <point x="-31" y="0" type="line"/>
      <point x="239" y="0" type="line"/>
      <point x="240" y="18" type="line"/>
      <point x="152" y="38" type="line"/>
      <point x="338" y="662" type="line"/>
      <point x="430" y="682" type="line"/>
      <point x="434" y="700" type="line"/>
      <point x="180" y="700" type="line"/>
      <point x="176" y="686" type="line"/>
      <point x="245" y="664" type="line"/>
      <point x="58" y="38" type="line"/>
      <point x="-30" y="18" type="line"/>
    </contour>
  </outline>
</glyph>
<glyph name="J" format="2">
  <advance width="323"/>
  <unicode hex="004A"/>
  <anchor x="-68" y="700" name="top"/>
  <outline>
    <contour>
      <point x="-142" y="-226" type="line"/>
      <point x="-40" y="-162"/>
      <point x="120" y="-36"/>
      <point x="155" y="82" type="curve" smooth="yes"/>
      <point x="328" y="662" type="line"/>
      <point x="411" y="682" type="line"/>
      <point x="415" y="700" type="line"/>
      <point x="161" y="700" type="line"/>
      <point x="157" y="686" type="line"/>
      <point x="235" y="664" type="line"/>
      <point x="69" y="108" type="line" smooth="yes"/>
      <point x="37" y="0"/>
      <point x="-48" y="-112"/>
      <point x="-152" y="-211" type="curve"/>
    </contour>
  </outline>
</glyph>
<glyph name="K" format="2">
  <advance width="638"/>
  <unicode hex="004B"/>
  <outline>
    <contour>
      <point x="468" y="0" type="line"/>
      <point x="581" y="0" type="line"/>
      <point x="588" y="17" type="line"/>
      <point x="308" y="390" type="line"/>
      <point x="293" y="338" type="line"/>
      <point x="705" y="671" type="line"/>
      <point x="754" y="682" type="line"/>
      <point x="756" y="700" type="line"/>
      <point x="536" y="700" type="line"/>
      <point x="532" y="683" type="line"/>
      <point x="589" y="669" type="line"/>
      <point x="259" y="349" type="line"/>
    </contour>
    <component base="I"/>
  </outline>
</glyph>
<glyph name="L" format="2">
  <advance width="589"/>
  <unicode hex="004C"/>
  <anchor x="250" y="0" name="bottom"/>
  <anchor x="424" y="700" name="top"/>
  <outline>
    <contour>
      <point x="118" y="0" type="line"/>
      <point x="496" y="0" type="line"/>
      <point x="550" y="172" type="line"/>
      <point x="534" y="179" type="line"/>
      <point x="444" y="68" type="line"/>
      <point x="139" y="37" type="line"/>
    </contour>
    <component base="I"/>
  </outline>
</glyph>
<glyph name="M" format="2">
  <advance width="865"/>
  <unicode hex="004D"/>
  <outline>
    <contour>
      <point x="372" y="59" type="line"/>
      <point x="749" y="607" type="line"/>
      <point x="740" y="696" type="line"/>
      <point x="734" y="700" type="line"/>
      <point x="411" y="170" type="line"/>
      <point x="437" y="180" type="line"/>
      <point x="376" y="700" type="line"/>
      <point x="212" y="700" type="line"/>
      <point x="208" y="683" type="line"/>
      <point x="287" y="667" type="line"/>
      <point x="358" y="63" type="line"/>
    </contour>
    <contour>
      <point x="-50" y="0" type="line"/>
      <point x="184" y="0" type="line"/>
      <point x="184" y="17" type="line"/>
      <point x="113" y="33" type="line"/>
      <point x="306" y="643" type="line"/>
      <point x="291" y="678" type="line"/>
      <point x="14" y="33" type="line"/>
      <point x="-50" y="17" type="line"/>
    </contour>
    <contour>
      <point x="543" y="0" type="line"/>
      <point x="790" y="0" type="line"/>
      <point x="790" y="17" type="line"/>
      <point x="727" y="32" type="line"/>
      <point x="816" y="667" type="line"/>
      <point x="889" y="683" type="line"/>
      <point x="892" y="700" type="line"/>
      <point x="734" y="700" type="line"/>
      <point x="634" y="35" type="line"/>
      <point x="543" y="17" type="line"/>
    </contour>
  </outline>
</glyph>
<glyph name="N" format="2">
  <advance width="702"/>
  <unicode hex="004E"/>
  <anchor x="305" y="0" name="bottom"/>
  <anchor x="499" y="700" name="top"/>
  <outline>
    <contour>
      <point x="484" y="0" type="line"/>
      <point x="530" y="0" type="line"/>
      <point x="540" y="113" type="line"/>
      <point x="319" y="700" type="line"/>
      <point x="148" y="700" type="line"/>
      <point x="145" y="685" type="line"/>
      <point x="236" y="658" type="line"/>
    </contour>
    <contour>
      <point x="-31" y="0" type="line"/>
      <point x="219" y="0" type="line"/>
      <point x="221" y="16" type="line"/>
      <point x="132" y="34" type="line"/>
      <point x="280" y="700" type="line"/>
      <point x="249" y="700" type="line"/>
      <point x="38" y="32" type="line"/>
      <point x="-29" y="16" type="line"/>
    </contour>
    <contour>
      <point x="504" y="0" type="line"/>
      <point x="531" y="0" type="line"/>
      <point x="733" y="663" type="line"/>
      <point x="796" y="685" type="line"/>
      <point x="799" y="700" type="line"/>
      <point x="553" y="700" type="line"/>
      <point x="550" y="685" type="line"/>
      <point x="643" y="662" type="line"/>
    </contour>
  </outline>
</glyph>
<glyph name="O" format="2">
  <advance width="677"/>
  <unicode hex="004F"/>
  <anchor x="334" y="0" name="bottom"/>
  <anchor x="482" y="700" name="top"/>
  <outline>
    <contour>
      <point x="265" y="-14" type="curve" smooth="yes"/>
      <point x="466" y="-14"/>
      <point x="681" y="278"/>
      <point x="681" y="491" type="curve" smooth="yes"/>
      <point x="681" y="627"/>
      <point x="593" y="714"/>
      <point x="479" y="714" type="curve" smooth="yes"/>
      <point x="280" y="714"/>
      <point x="57" y="433"/>
      <point x="57" y="223" type="curve" smooth="yes"/>
      <point x="57" y="97"/>
      <point x="138" y="-14"/>
    </contour>
    <contour>
      <point x="302" y="32" type="curve" smooth="yes"/>
      <point x="211" y="32"/>
      <point x="160" y="140"/>
      <point x="160" y="240" type="curve" smooth="yes"/>
      <point x="160" y="400"/>
      <point x="300" y="668"/>
      <point x="439" y="668" type="curve" smooth="yes"/>
      <point x="511" y="668"/>
      <point x="578" y="597"/>
      <point x="578" y="477" type="curve" smooth="yes"/>
      <point x="578" y="315"/>
      <point x="450" y="32"/>
    </contour>
  </outline>
</glyph>
<glyph name="P" format="2">
  <advance width="585"/>
  <unicode hex="0050"/>
  <anchor x="-59" y="700" name="top"/>
  <outline>
    <contour>
      <point x="-31" y="0" type="line"/>
      <point x="239" y="0" type="line"/>
      <point x="240" y="18" type="line"/>
      <point x="149" y="38" type="line"/>
      <point x="336" y="666" type="line"/>
      <point x="445" y="662"/>
      <point x="509" y="584"/>
      <point x="509" y="516" type="curve" smooth="yes"/>
      <point x="509" y="431"/>
      <point x="416" y="330"/>
      <point x="271" y="281" type="curve"/>
      <point x="275" y="258" type="line"/>
      <point x="396" y="286"/>
      <point x="608" y="384"/>
      <point x="608" y="514" type="curve" smooth="yes"/>
      <point x="608" y="613"/>
      <point x="498" y="700"/>
      <point x="330" y="700" type="curve" smooth="yes"/>
      <point x="180" y="700" type="line"/>
      <point x="176" y="686" type="line"/>
      <point x="242" y="664" type="line"/>
      <point x="55" y="37" type="line"/>
      <point x="-30" y="18" type="line"/>
    </contour>
  </outline>
</glyph>
<glyph name="Q" format="2">
  <advance width="681"/>
  <unicode hex="0051"/>
  <anchor x="336" y="0" name="bottom"/>
  <anchor x="548" y="666" name="top"/>
  <outline>
    <contour>
      <point x="458" y="-160" type="curve"/>
      <point x="580" y="-168"/>
      <point x="705" y="-157"/>
      <point x="823" y="-141" type="curve"/>
      <point x="822" y="-122" type="line"/>
      <point x="757" y="-124"/>
      <point x="618" y="-105"/>
      <point x="548" y="-95" type="curve"/>
      <point x="492" y="-69"/>
      <point x="421" y="-19"/>
      <point x="370" y="15" type="curve"/>
      <point x="335" y="7" type="line"/>
      <point x="375" y="-59"/>
      <point x="419" y="-118"/>
    </contour>
    <component base="O"/>
  </outline>
</glyph>
<glyph name="R" format="2">
  <advance width="612"/>
  <unicode hex="0052"/>
  <anchor x="343" y="0" name="bottom"/>
  <anchor x="445" y="700" name="top"/>
  <outline>
    <contour>
      <point x="-31" y="0" type="line"/>
      <point x="239" y="0" type="line"/>
      <point x="240" y="18" type="line"/>
      <point x="150" y="36" type="line"/>
      <point x="336" y="662" type="line"/>
      <point x="445" y="656"/>
      <point x="505" y="595"/>
      <point x="505" y="527" type="curve" smooth="yes"/>
      <point x="505" y="452"/>
      <point x="402" y="358"/>
      <point x="214" y="325" type="curve"/>
      <point x="206" y="295" type="line"/>
      <point x="397" y="316"/>
      <point x="603" y="412"/>
      <point x="603" y="538" type="curve" smooth="yes"/>
      <point x="603" y="631"/>
      <point x="501" y="700"/>
      <point x="330" y="700" type="curve" smooth="yes"/>
      <point x="180" y="700" type="line"/>
      <point x="176" y="686" type="line"/>
      <point x="243" y="664" type="line"/>
      <point x="56" y="35" type="line"/>
      <point x="-30" y="18" type="line"/>
    </contour>
    <contour>
      <point x="443" y="0" type="line"/>
      <point x="555" y="0" type="line"/>
      <point x="561" y="16" type="line"/>
      <point x="332" y="340" type="line"/>
      <point x="286" y="324" type="line"/>
    </contour>
  </outline>
</glyph>
<glyph name="S" format="2">
  <advance width="520"/>
  <unicode hex="0053"/>
  <anchor x="233" y="-9" name="bottom"/>
  <outline>
    <contour>
      <point x="174" y="-14" type="curve" smooth="yes"/>
      <point x="316" y="-14"/>
      <point x="398" y="88"/>
      <point x="398" y="178" type="curve" smooth="yes"/>
      <point x="398" y="295"/>
      <point x="282" y="462"/>
      <point x="282" y="542" type="curve" smooth="yes"/>
      <point x="282" y="607"/>
      <point x="323" y="674"/>
      <point x="398" y="674" type="curve" smooth="yes"/>
      <point x="435" y="674"/>
      <point x="474" y="659"/>
      <point x="498" y="637" type="curve"/>
      <point x="490" y="476" type="line"/>
      <point x="507" y="473" type="line"/>
      <point x="577" y="661" type="line"/>
      <point x="536" y="696"/>
      <point x="474" y="714"/>
      <point x="417" y="714" type="curve" smooth="yes"/>
      <point x="294" y="714"/>
      <point x="198" y="630"/>
      <point x="198" y="523" type="curve" smooth="yes"/>
      <point x="198" y="398"/>
      <point x="316" y="234"/>
      <point x="316" y="147" type="curve" smooth="yes"/>
      <point x="316" y="102"/>
      <point x="280" y="30"/>
      <point x="193" y="30" type="curve" smooth="yes"/>
      <point x="146" y="30"/>
      <point x="101" y="48"/>
      <point x="69" y="73" type="curve"/>
      <point x="78" y="248" type="line"/>
      <point x="61" y="250" type="line"/>
      <point x="-10" y="57" type="line"/>
      <point x="12" y="29"/>
      <point x="81" y="-14"/>
    </contour>
  </outline>
</glyph>
<glyph name="T" format="2">
  <advance width="678"/>
  <unicode hex="0054"/>
  <anchor x="405" y="0" name="bottom"/>
  <anchor x="463" y="700" name="top"/>
  <outline>
    <contour>
      <point x="118" y="0" type="line"/>
      <point x="420" y="0" type="line"/>
      <point x="422" y="18" type="line"/>
      <point x="322" y="38" type="line"/>
      <point x="518" y="700" type="line"/>
      <point x="424" y="700" type="line"/>
      <point x="229" y="41" type="line"/>
      <point x="119" y="16" type="line"/>
    </contour>
    <contour>
      <point x="699" y="482" type="line"/>
      <point x="717" y="482" type="line"/>
      <point x="776" y="732" type="line"/>
      <point x="759" y="739" type="line"/>
      <point x="706" y="700" type="line"/>
      <point x="210" y="700" type="line"/>
      <point x="175" y="730" type="line"/>
      <point x="157" y="728" type="line"/>
      <point x="88" y="495" type="line"/>
      <point x="105" y="489" type="line"/>
      <point x="208" y="658" type="line"/>
      <point x="692" y="658" type="line"/>
    </contour>
  </outline>
</glyph>
<glyph name="U" format="2">
  <advance width="669"/>
  <unicode hex="0055"/>
  <anchor x="322" y="-14" name="bottom"/>
  <anchor x="488" y="700" name="top"/>
  <outline>
    <contour>
      <point x="296" y="-14" type="curve" smooth="yes"/>
      <point x="420" y="-14"/>
      <point x="511" y="49"/>
      <point x="561" y="214" type="curve" smooth="yes"/>
      <point x="696" y="661" type="line"/>
      <point x="767" y="682" type="line"/>
      <point x="770" y="700" type="line"/>
      <point x="556" y="700" type="line"/>
      <point x="552" y="682" type="line"/>
      <point x="643" y="661" type="line"/>
      <point x="516" y="235" type="line" smooth="yes"/>
      <point x="473" y="89"/>
      <point x="400" y="37"/>
      <point x="320" y="37" type="curve" smooth="yes"/>
      <point x="219" y="37"/>
      <point x="141" y="100"/>
      <point x="199" y="291" type="curve" smooth="yes"/>
      <point x="311" y="662" type="line"/>
      <point x="402" y="682" type="line"/>
      <point x="406" y="700" type="line"/>
      <point x="153" y="700" type="line"/>
      <point x="149" y="686" type="line"/>
      <point x="218" y="665" type="line"/>
      <point x="108" y="302" type="line" smooth="yes"/>
      <point x="35" y="62"/>
      <point x="174" y="-14"/>
    </contour>
  </outline>
</glyph>
<glyph name="V" format="2">
  <advance width="652"/>
  <unicode hex="0056"/>
  <anchor x="529" y="0" name="bottom"/>
  <anchor x="708" y="700" name="top"/>
  <outline>
    <contour>
      <point x="165" y="0" type="line"/>
      <point x="243" y="0" type="line"/>
      <point x="742" y="667" type="line"/>
      <point x="800" y="682" type="line"/>
      <point x="802" y="700" type="line"/>
      <point x="557" y="700" type="line"/>
      <point x="554" y="682" type="line"/>
      <point x="645" y="666" type="line"/>
      <point x="245" y="49" type="line"/>
      <point x="255" y="37" type="line"/>
      <point x="264" y="665" type="line"/>
      <point x="374" y="682" type="line"/>
      <point x="377" y="700" type="line"/>
      <point x="118" y="700" type="line"/>
      <point x="116" y="682" type="line"/>
      <point x="174" y="666" type="line"/>
    </contour>
  </outline>
</glyph>
<glyph name="W" format="2">
  <advance width="930"/>
  <unicode hex="0057"/>
  <anchor x="524" y="0" name="bottom"/>
  <anchor x="613" y="700" name="top"/>
  <outline>
    <contour>
      <point x="487" y="0" type="line"/>
      <point x="563" y="0" type="line"/>
      <point x="1022" y="667" type="line"/>
      <point x="1083" y="682" type="line"/>
      <point x="1085" y="700" type="line"/>
      <point x="837" y="700" type="line"/>
      <point x="834" y="682" type="line"/>
      <point x="927" y="666" type="line"/>
      <point x="565" y="49" type="line"/>
      <point x="577" y="37" type="line"/>
      <point x="616" y="665" type="line"/>
      <point x="724" y="682" type="line"/>
      <point x="727" y="700" type="line"/>
      <point x="468" y="700" type="line"/>
      <point x="466" y="682" type="line"/>
      <point x="526" y="666" type="line"/>
    </contour>
    <contour>
      <point x="162" y="0" type="line"/>
      <point x="238" y="0" type="line"/>
      <point x="542" y="478" type="line"/>
      <point x="522" y="548" type="line"/>
      <point x="240" y="51" type="line"/>
      <point x="252" y="37" type="line"/>
      <point x="261" y="665" type="line"/>
      <point x="349" y="682" type="line"/>
      <point x="352" y="700" type="line"/>
      <point x="113" y="700" type="line"/>
      <point x="111" y="682" type="line"/>
      <point x="171" y="666" type="line"/>
    </contour>
  </outline>
</glyph>
<glyph name="X" format="2">
  <advance width="700"/>
  <unicode hex="0058"/>
  <anchor x="368" y="0" name="bottom"/>
  <outline>
    <contour>
      <point x="387" y="0" type="line"/>
      <point x="645" y="0" type="line"/>
      <point x="647" y="18" type="line"/>
      <point x="578" y="34" type="line"/>
      <point x="302" y="666" type="line"/>
      <point x="397" y="682" type="line"/>
      <point x="400" y="700" type="line"/>
      <point x="132" y="700" type="line"/>
      <point x="128" y="682" type="line"/>
      <point x="202" y="666" type="line"/>
      <point x="478" y="34" type="line"/>
      <point x="389" y="18" type="line"/>
    </contour>
    <contour>
      <point x="-58" y="0" type="line"/>
      <point x="191" y="0" type="line"/>
      <point x="194" y="18" type="line"/>
      <point x="126" y="32" type="line"/>
      <point x="392" y="358" type="line"/>
      <point x="382" y="381" type="line"/>
      <point x="23" y="33" type="line"/>
      <point x="-55" y="18" type="line"/>
    </contour>
    <contour>
      <point x="378" y="332" type="line"/>
      <point x="726" y="666" type="line"/>
      <point x="778" y="682" type="line"/>
      <point x="780" y="700" type="line"/>
      <point x="561" y="700" type="line"/>
      <point x="558" y="682" type="line"/>
      <point x="627" y="666" type="line"/>
      <point x="372" y="352" type="line"/>
    </contour>
  </outline>
</glyph>
<glyph name="Y" format="2">
  <advance width="629"/>
  <unicode hex="0059"/>
  <anchor x="272" y="0" name="bottom"/>
  <anchor x="464" y="700" name="top"/>
  <outline>
    <contour>
      <point x="117" y="0" type="line"/>
      <point x="387" y="0" type="line"/>
      <point x="388" y="18" type="line"/>
      <point x="301" y="38" type="line"/>
      <point x="396" y="357" type="line"/>
      <point x="347" y="289" type="line"/>
      <point x="712" y="665" type="line"/>
      <point x="772" y="682" type="line"/>
      <point x="774" y="700" type="line"/>
      <point x="554" y="700" type="line"/>
      <point x="551" y="682" type="line"/>
      <point x="617" y="665" type="line"/>
      <point x="372" y="356" type="line"/>
      <point x="384" y="356" type="line"/>
      <point x="279" y="665" type="line"/>
      <point x="373" y="682" type="line"/>
      <point x="376" y="700" type="line"/>
      <point x="108" y="700" type="line"/>
      <point x="104" y="682" type="line"/>
      <point x="181" y="664" type="line"/>
      <point x="308" y="297" type="line"/>
      <point x="306" y="372" type="line"/>
      <point x="206" y="37" type="line"/>
      <point x="118" y="18" type="line"/>
    </contour>
  </outline>
</glyph>
<glyph name="Z" format="2">
  <advance width="638"/>
  <unicode hex="005A"/>
  <outline>
    <contour>
      <point x="0" y="0" type="line"/>
      <point x="501" y="0" type="line"/>
      <point x="578" y="243" type="line"/>
      <point x="561" y="249" type="line"/>
      <point x="437" y="42" type="line"/>
      <point x="96" y="42" type="line"/>
      <point x="103" y="17" type="line"/>
      <point x="692" y="684" type="line"/>
      <point x="685" y="700" type="line"/>
      <point x="292" y="700" type="line"/>
      <point x="261" y="730" type="line"/>
      <point x="243" y="728" type="line"/>
      <point x="166" y="495" type="line"/>
      <point x="182" y="489" type="line"/>
      <point x="290" y="658" type="line"/>
      <point x="590" y="658" type="line"/>
      <point x="581" y="683" type="line"/>
      <point x="-6" y="16" type="line"/>
    </contour>
  </outline>
</glyph>
<glyph name="bracketleft" format="2">
  <advance width="295"/>
  <unicode hex="005B"/>
  <outline>
    <contour>
      <point x="-39" y="-164" type="line"/>
      <point x="26" y="-164" type="line"/>
      <point x="258" y="700" type="line"/>
      <point x="193" y="700" type="line"/>
    </contour>
    <contour>
      <point x="-20" y="-164" type="line"/>
      <point x="185" y="-164" type="line"/>
      <point x="199" y="-111" type="line"/>
      <point x="-6" y="-111" type="line"/>
    </contour>
    <contour>
      <point x="198" y="647" type="line"/>
      <point x="403" y="647" type="line"/>
      <point x="417" y="700" type="line"/>
      <point x="212" y="700" type="line"/>
    </contour>
  </outline>
</glyph>
<glyph name="underscore" format="2">
  <advance width="430"/>
  <unicode hex="005F"/>
  <outline>
    <contour>
      <point x="-19" y="0" type="line"/>
      <point x="335" y="0" type="line"/>
      <point x="335" y="60" type="line"/>
      <point x="-19" y="60" type="line"/>
    </contour>
  </outline>
</glyph>
<glyph name="a" format="2">
  <advance width="466"/>
  <unicode hex="0061"/>
  <note>
a
</note>
  <guideline x="468" y="499"/>
  <anchor x="140" y="0" name="bottom"/>
  <anchor x="300" y="480" name="top"/>
  <outline>
    <contour>
      <point x="292" y="-14" type="curve"/>
      <point x="322" y="21"/>
      <point x="362" y="67"/>
      <point x="430" y="126" type="curve"/>
      <point x="421" y="141" type="line"/>
      <point x="369" y="110"/>
      <point x="346" y="93"/>
      <point x="324" y="75" type="curve"/>
      <point x="334" y="115"/>
      <point x="344" y="148"/>
      <point x="365" y="215" type="curve" smooth="yes"/>
      <point x="451" y="491" type="line"/>
      <point x="439" y="499" type="line"/>
      <point x="365" y="454" type="line"/>
      <point x="269" y="149" type="line" smooth="yes"/>
      <point x="251" y="91"/>
      <point x="232" y="45"/>
      <point x="234" y="30" type="curve" smooth="yes"/>
      <point x="238" y="9"/>
      <point x="268" y="-14"/>
    </contour>
    <component base="panse_adq" xOffset="-52"/>
  </outline>
</glyph>
<glyph name="b" format="2">
  <advance width="429"/>
  <unicode hex="0062"/>
  <note>
b
</note>
  <guideline x="458" y="499"/>
  <outline>
    <contour>
      <point x="177" y="-14" type="curve" smooth="yes"/>
      <point x="303" y="-14"/>
      <point x="419" y="262"/>
      <point x="419" y="406" type="curve" smooth="yes"/>
      <point x="419" y="450"/>
      <point x="407" y="499"/>
      <point x="368" y="499" type="curve" smooth="yes"/>
      <point x="305" y="499"/>
      <point x="200" y="371"/>
      <point x="47" y="113" type="curve"/>
      <point x="86" y="85" type="line"/>
      <point x="142" y="254"/>
      <point x="294" y="403"/>
      <point x="323" y="418" type="curve"/>
      <point x="327" y="399"/>
      <point x="329" y="378"/>
      <point x="329" y="357" type="curve" smooth="yes"/>
      <point x="329" y="231"/>
      <point x="267" y="75"/>
      <point x="218" y="37" type="curve"/>
      <point x="176" y="44"/>
      <point x="108" y="79"/>
      <point x="80" y="108" type="curve"/>
      <point x="10" y="52" type="line"/>
      <point x="37" y="30"/>
      <point x="113" y="-14"/>
    </contour>
    <contour>
      <point x="10" y="52" type="line"/>
      <point x="58" y="63" type="line"/>
      <point x="121" y="168" type="line"/>
      <point x="245" y="609" type="line"/>
      <point x="177" y="626" type="line"/>
    </contour>
    <component base="empattement_montante" xScale="0.918" yScale="1.02" xOffset="-247" yOffset="-21" identifier="DF3EEAB6"/>
  </outline>
</glyph>
<glyph name="c" format="2">
  <advance width="336"/>
  <unicode hex="0063"/>
  <note>
c
</note>
  <guideline x="456" y="499"/>
  <anchor x="196" y="0" name="bottom"/>
  <outline>
    <contour>
      <point x="104" y="-14" type="curve" smooth="yes"/>
      <point x="164" y="-14"/>
      <point x="237" y="50"/>
      <point x="292" y="139" type="curve"/>
      <point x="279" y="150" type="line"/>
      <point x="228" y="98"/>
      <point x="169" y="56"/>
      <point x="137" y="46" type="curve"/>
      <point x="112" y="69"/>
      <point x="108" y="108"/>
      <point x="108" y="152" type="curve" smooth="yes"/>
      <point x="108" y="246"/>
      <point x="151" y="371"/>
      <point x="218" y="433" type="curve"/>
      <point x="262" y="418"/>
      <point x="306" y="394"/>
      <point x="331" y="379" type="curve"/>
      <point x="368" y="464" type="line"/>
      <point x="340" y="483"/>
      <point x="297" y="499"/>
      <point x="273" y="499" type="curve" smooth="yes"/>
      <point x="171" y="499"/>
      <point x="12" y="236"/>
      <point x="12" y="114" type="curve" smooth="yes"/>
      <point x="12" y="48"/>
      <point x="61" y="-14"/>
    </contour>
  </outline>
</glyph>
<glyph name="e" format="2">
  <advance width="371"/>
  <unicode hex="0065"/>
  <note>
e
</note>
  <guideline x="454" y="499"/>
  <guideline x="454" y="499"/>
  <anchor x="151" y="0" name="bottom"/>
  <anchor x="264" y="480" name="top"/>
  <outline>
    <contour>
      <point x="109" y="-14" type="curve" smooth="yes"/>
      <point x="179" y="-14"/>
      <point x="253" y="50"/>
      <point x="313" y="139" type="curve"/>
      <point x="300" y="150" type="line"/>
      <point x="244" y="98"/>
      <point x="180" y="56"/>
      <point x="145" y="46" type="curve"/>
      <point x="118" y="69"/>
      <point x="106" y="108"/>
      <point x="106" y="152" type="curve" smooth="yes"/>
      <point x="106" y="251"/>
      <point x="166" y="387"/>
      <point x="262" y="460" type="curve"/>
      <point x="278" y="444"/>
      <point x="292" y="417"/>
      <point x="292" y="384" type="curve" smooth="yes"/>
      <point x="292" y="314"/>
      <point x="197" y="252"/>
      <point x="104" y="235" type="curve"/>
      <point x="102" y="207" type="line"/>
      <point x="243" y="226"/>
      <point x="380" y="304"/>
      <point x="380" y="410" type="curve" smooth="yes"/>
      <point x="380" y="451"/>
      <point x="327" y="499"/>
      <point x="293" y="499" type="curve" smooth="yes"/>
      <point x="171" y="499"/>
      <point x="13" y="246"/>
      <point x="13" y="114" type="curve" smooth="yes"/>
      <point x="13" y="49"/>
      <point x="61" y="-14"/>
    </contour>
  </outline>
</glyph>
<glyph name="f" format="2">
  <advance width="232"/>
  <unicode hex="0066"/>
  <note>
f
</note>
  <guideline x="455" y="499"/>
  <anchor x="52" y="5" name="bottom"/>
  <outline>
    <contour>
      <point x="-137" y="-262" type="curve" smooth="yes"/>
      <point x="-69" y="-262"/>
      <point x="45" y="-107"/>
      <point x="71" y="-22" type="curve" smooth="yes"/>
      <point x="122" y="145"/>
      <point x="187" y="402"/>
      <point x="224" y="549" type="curve" smooth="yes"/>
      <point x="236" y="598"/>
      <point x="252" y="643"/>
      <point x="261" y="660" type="curve"/>
      <point x="304" y="675"/>
      <point x="340" y="663"/>
      <point x="398" y="638" type="curve"/>
      <point x="435" y="722" type="line"/>
      <point x="403" y="737"/>
      <point x="377" y="744"/>
      <point x="351" y="744" type="curve" smooth="yes"/>
      <point x="294" y="744"/>
      <point x="167" y="649"/>
      <point x="143" y="545" type="curve"/>
      <point x="114" y="392"/>
      <point x="48" y="155"/>
      <point x="2" y="-7" type="curve" smooth="yes"/>
      <point x="-22" y="-90"/>
      <point x="-54" y="-154"/>
      <point x="-67" y="-177" type="curve"/>
      <point x="-90" y="-185"/>
      <point x="-124" y="-179"/>
      <point x="-183" y="-157" type="curve"/>
      <point x="-220" y="-243" type="line"/>
      <point x="-194" y="-253"/>
      <point x="-162" y="-262"/>
    </contour>
    <component base="barreft" xOffset="-40" yOffset="28"/>
  </outline>
</glyph>
<glyph name="g" format="2">
  <advance width="382"/>
  <unicode hex="0067"/>
  <note>
g
</note>
  <guideline x="446" y="499"/>
  <outline>
    <contour>
      <point x="142" y="125" type="curve" smooth="yes"/>
      <point x="245" y="125"/>
      <point x="355" y="298"/>
      <point x="355" y="392" type="curve" smooth="yes"/>
      <point x="355" y="456"/>
      <point x="306" y="499"/>
      <point x="259" y="499" type="curve" smooth="yes"/>
      <point x="163" y="499"/>
      <point x="43" y="323"/>
      <point x="43" y="230" type="curve" smooth="yes"/>
      <point x="43" y="173"/>
      <point x="87" y="125"/>
    </contour>
    <contour>
      <point x="177" y="166" type="curve"/>
      <point x="153" y="181"/>
      <point x="131" y="215"/>
      <point x="131" y="264" type="curve" smooth="yes"/>
      <point x="131" y="332"/>
      <point x="172" y="423"/>
      <point x="213" y="448" type="curve"/>
      <point x="249" y="432"/>
      <point x="272" y="396"/>
      <point x="272" y="352" type="curve" smooth="yes"/>
      <point x="272" y="292"/>
      <point x="223" y="190"/>
    </contour>
    <component base="barreft" xOffset="97" yOffset="28"/>
    <contour>
      <point x="168" y="135" type="curve"/>
      <point x="133" y="141" type="line"/>
      <point x="100" y="116"/>
      <point x="65" y="87"/>
      <point x="45" y="62" type="curve"/>
      <point x="45" y="35"/>
      <point x="88" y="-3"/>
      <point x="115" y="-17" type="curve" smooth="yes"/>
      <point x="194" y="-59" type="line" smooth="yes"/>
      <point x="222" y="-74"/>
      <point x="238" y="-85"/>
      <point x="253" y="-101" type="curve"/>
      <point x="228" y="-145"/>
      <point x="147" y="-195"/>
      <point x="84" y="-195" type="curve" smooth="yes"/>
      <point x="34" y="-195"/>
      <point x="-28" y="-153"/>
      <point x="-28" y="-101" type="curve"/>
      <point x="-5" y="-78"/>
      <point x="25" y="-59"/>
      <point x="108" y="-9" type="curve"/>
      <point x="91" y="19" type="line"/>
      <point x="-45" y="-56"/>
      <point x="-75" y="-86"/>
      <point x="-107" y="-119" type="curve"/>
      <point x="-107" y="-210"/>
      <point x="-43" y="-264"/>
      <point x="30" y="-264" type="curve" smooth="yes"/>
      <point x="122" y="-264"/>
      <point x="303" y="-159"/>
      <point x="303" y="-59" type="curve" smooth="yes"/>
      <point x="303" y="-32"/>
      <point x="290" y="-9"/>
      <point x="253" y="12" type="curve" smooth="yes"/>
      <point x="166" y="61" type="line" smooth="yes"/>
      <point x="146" y="72"/>
      <point x="133" y="86"/>
      <point x="129" y="92" type="curve"/>
      <point x="137" y="103"/>
      <point x="153" y="120"/>
    </contour>
  </outline>
</glyph>
<glyph name="j" format="2">
  <advance width="250"/>
  <unicode hex="006A"/>
  <note>
j
</note>
  <guideline x="458" y="499"/>
  <anchor x="180" y="485" name="top"/>
  <outline>
    <contour>
      <point x="-147" y="-264" type="line"/>
      <point x="-51" y="-191"/>
      <point x="73" y="-64"/>
      <point x="126" y="68" type="curve"/>
      <point x="140" y="130"/>
      <point x="232" y="450"/>
      <point x="236" y="475" type="curve"/>
      <point x="183" y="499" type="line"/>
      <point x="147" y="465"/>
      <point x="109" y="430"/>
      <point x="46" y="376" type="curve"/>
      <point x="57" y="357" type="line"/>
      <point x="92" y="382"/>
      <point x="120" y="398"/>
      <point x="148" y="418" type="curve"/>
      <point x="144" y="391"/>
      <point x="69" y="138"/>
      <point x="51" y="65" type="curve"/>
      <point x="0" y="-59"/>
      <point x="-82" y="-165"/>
      <point x="-157" y="-249" type="curve"/>
    </contour>
    <component base="pointij" xScale="1.02" yScale="1.02" xOffset="79" yOffset="-20" identifier="1EA27879"/>
  </outline>
</glyph>
<glyph name="k" format="2">
  <advance width="480"/>
  <unicode hex="006B"/>
  <note>
k
</note>
  <guideline x="463" y="499"/>
  <anchor x="210" y="1" name="bottom"/>
  <outline>
    <contour>
      <point x="287" y="-14" type="curve"/>
      <point x="321" y="21"/>
      <point x="364" y="69"/>
      <point x="434" y="128" type="curve"/>
      <point x="422" y="146" type="line"/>
      <point x="380" y="118"/>
      <point x="347" y="98"/>
      <point x="330" y="86" type="curve"/>
      <point x="307" y="100"/>
      <point x="268" y="157"/>
      <point x="250" y="205" type="curve"/>
      <point x="347" y="245"/>
      <point x="462" y="324"/>
      <point x="462" y="381" type="curve" smooth="yes"/>
      <point x="462" y="430"/>
      <point x="420" y="499"/>
      <point x="379" y="499" type="curve" smooth="yes"/>
      <point x="333" y="499"/>
      <point x="232" y="374"/>
      <point x="134" y="233" type="curve"/>
      <point x="107" y="154" type="line"/>
      <point x="212" y="293"/>
      <point x="310" y="396"/>
      <point x="340" y="424" type="curve"/>
      <point x="353" y="419"/>
      <point x="374" y="389"/>
      <point x="374" y="357" type="curve" smooth="yes"/>
      <point x="374" y="311"/>
      <point x="282" y="248"/>
      <point x="181" y="215" type="curve"/>
      <point x="196" y="99"/>
      <point x="224" y="42"/>
    </contour>
    <component base="fut-long" xOffset="-9"/>
    <component base="empattement_montante" xScale="0.918" yScale="1.02" xOffset="-242" yOffset="-21" identifier="7D3519B5"/>
  </outline>
</glyph>
<glyph name="l" format="2">
  <advance width="258"/>
  <unicode hex="006C"/>
  <note>
l
</note>
  <anchor x="57" y="0" name="bottom"/>
  <outline>
    <contour>
      <point x="85" y="-14" type="curve"/>
      <point x="122" y="23"/>
      <point x="163" y="62"/>
      <point x="224" y="116" type="curve"/>
      <point x="216" y="131" type="line"/>
      <point x="165" y="104"/>
      <point x="128" y="81"/>
      <point x="103" y="64" type="curve"/>
      <point x="109" y="103"/>
      <point x="120" y="147"/>
      <point x="139" y="215" type="curve" smooth="yes"/>
      <point x="244" y="585" type="line"/>
      <point x="171" y="589" type="line"/>
      <point x="44" y="149" type="line" smooth="yes"/>
      <point x="27" y="91"/>
      <point x="19" y="50"/>
      <point x="22" y="37" type="curve" smooth="yes"/>
      <point x="26" y="19"/>
      <point x="47" y="0"/>
    </contour>
    <component base="empattement_montante" xScale="0.918" yScale="1.02" xOffset="-242" yOffset="-21"/>
  </outline>
</glyph>
<glyph name="m" format="2">
  <advance width="761"/>
  <unicode hex="006D"/>
  <note>
m
</note>
  <guideline x="466" y="499"/>
  <anchor x="218" y="1" name="bottom"/>
  <outline>
    <contour>
      <point x="295" y="-14" type="line"/>
      <point x="351" y="16" type="line"/>
      <point x="389" y="149" type="line" smooth="yes"/>
      <point x="419" y="253"/>
      <point x="482" y="410"/>
      <point x="482" y="458" type="curve" smooth="yes"/>
      <point x="482" y="481"/>
      <point x="474" y="499"/>
      <point x="452" y="499" type="curve" smooth="yes"/>
      <point x="389" y="499"/>
      <point x="253" y="351"/>
      <point x="126" y="161" type="curve"/>
      <point x="135" y="127" type="line"/>
      <point x="175" y="185"/>
      <point x="325" y="371"/>
      <point x="400" y="409" type="curve"/>
      <point x="391" y="370"/>
      <point x="344" y="247"/>
      <point x="311" y="146" type="curve" smooth="yes"/>
      <point x="268" y="14" type="line"/>
    </contour>
    <component base="fut" xOffset="12"/>
    <component base="epaule-n" xOffset="221"/>
  </outline>
</glyph>
<glyph name="o" format="2">
  <advance width="419"/>
  <unicode hex="006F"/>
  <note>
o
</note>
  <guideline x="459" y="499"/>
  <anchor x="165" y="0" name="bottom"/>
  <anchor x="256" y="480" name="top"/>
  <outline>
    <contour>
      <point x="133" y="-15" type="curve" smooth="yes"/>
      <point x="235" y="-15"/>
      <point x="405" y="231"/>
      <point x="405" y="370" type="curve" smooth="yes"/>
      <point x="405" y="428"/>
      <point x="352" y="499"/>
      <point x="288" y="499" type="curve" smooth="yes"/>
      <point x="183" y="499"/>
      <point x="15" y="250"/>
      <point x="15" y="127" type="curve" smooth="yes"/>
      <point x="15" y="50"/>
      <point x="78" y="-15"/>
    </contour>
    <contour>
      <point x="167" y="31" type="curve"/>
      <point x="137" y="44"/>
      <point x="110" y="95"/>
      <point x="110" y="169" type="curve" smooth="yes"/>
      <point x="110" y="254"/>
      <point x="191" y="413"/>
      <point x="250" y="451" type="curve"/>
      <point x="279" y="442"/>
      <point x="310" y="394"/>
      <point x="310" y="332" type="curve" smooth="yes"/>
      <point x="310" y="223"/>
      <point x="223" y="65"/>
    </contour>
  </outline>
</glyph>
<glyph name="p" format="2">
  <advance width="463"/>
  <unicode hex="0070"/>
  <note>
p
</note>
  <guideline x="463" y="499"/>
  <outline>
    <contour>
      <point x="-133" y="-250" type="line"/>
      <point x="146" y="-250" type="line"/>
      <point x="150" y="-234" type="line"/>
      <point x="47" y="-209" type="line"/>
      <point x="111" y="3"/>
      <point x="206" y="347"/>
      <point x="265" y="547" type="curve"/>
      <point x="255" y="560" type="line"/>
      <point x="173" y="514" type="line"/>
      <point x="125" y="335"/>
      <point x="35" y="-7"/>
      <point x="-33" y="-207" type="curve"/>
      <point x="-133" y="-234" type="line"/>
    </contour>
    <contour>
      <point x="186" y="-14" type="curve" smooth="yes"/>
      <point x="304" y="-14"/>
      <point x="444" y="210"/>
      <point x="444" y="358" type="curve" smooth="yes"/>
      <point x="444" y="422"/>
      <point x="414" y="492"/>
      <point x="373" y="492" type="curve" smooth="yes"/>
      <point x="307" y="492"/>
      <point x="139" y="418"/>
      <point x="41" y="336" type="curve"/>
      <point x="53" y="315" type="line"/>
      <point x="125" y="364"/>
      <point x="275" y="429"/>
      <point x="323" y="433" type="curve"/>
      <point x="339" y="417"/>
      <point x="349" y="364"/>
      <point x="349" y="320" type="curve" smooth="yes"/>
      <point x="349" y="235"/>
      <point x="306" y="101"/>
      <point x="232" y="34" type="curve"/>
      <point x="190" y="43"/>
      <point x="149" y="64"/>
      <point x="119" y="86" type="curve"/>
      <point x="76" y="19" type="line"/>
      <point x="102" y="3"/>
      <point x="141" y="-14"/>
    </contour>
  </outline>
</glyph>
<glyph name="q" format="2">
  <advance width="443"/>
  <unicode hex="0071"/>
  <note>
q
</note>
  <guideline x="464" y="499"/>
  <anchor x="293" y="484" name="top"/>
  <outline>
    <contour>
      <point x="37" y="-250" type="line"/>
      <point x="294" y="-250" type="line"/>
      <point x="300" y="-236" type="line"/>
      <point x="244" y="-209" type="line"/>
      <point x="306" y="-4"/>
      <point x="386" y="296"/>
      <point x="448" y="496" type="curve"/>
      <point x="436" y="504" type="line"/>
      <point x="357" y="451" type="line"/>
      <point x="300" y="262"/>
      <point x="231" y="-5"/>
      <point x="166" y="-203" type="curve"/>
      <point x="39" y="-232" type="line"/>
    </contour>
    <component base="panse_adq" xOffset="-57"/>
  </outline>
</glyph>
<glyph name="r" format="2">
  <advance width="364"/>
  <unicode hex="0072"/>
  <note>
r
</note>
  <guideline x="468" y="499"/>
  <anchor x="132" y="1" name="bottom"/>
  <outline>
    <contour>
      <point x="144" y="144" type="line"/>
      <point x="206" y="258"/>
      <point x="291" y="384"/>
      <point x="316" y="403" type="curve"/>
      <point x="337" y="402"/>
      <point x="358" y="392"/>
      <point x="375" y="383" type="curve"/>
      <point x="422" y="478" type="line"/>
      <point x="407" y="489"/>
      <point x="376" y="499"/>
      <point x="362" y="499" type="curve" smooth="yes"/>
      <point x="313" y="499"/>
      <point x="215" y="332"/>
      <point x="133" y="163" type="curve"/>
    </contour>
    <component base="fut" xOffset="12"/>
  </outline>
</glyph>
<glyph name="s" format="2">
  <advance width="316"/>
  <unicode hex="0073"/>
  <note>
s
</note>
  <guideline x="473" y="499"/>
  <anchor x="139" y="0" name="bottom"/>
  <outline>
    <contour>
      <point x="83" y="-9" type="curve" smooth="yes"/>
      <point x="160" y="-9"/>
      <point x="246" y="87"/>
      <point x="246" y="164" type="curve" smooth="yes"/>
      <point x="246" y="174"/>
      <point x="243" y="195"/>
      <point x="235" y="208" type="curve" smooth="yes"/>
      <point x="165" y="321" type="line" smooth="yes"/>
      <point x="155" y="337"/>
      <point x="150" y="345"/>
      <point x="150" y="358" type="curve" smooth="yes"/>
      <point x="150" y="385"/>
      <point x="164" y="419"/>
      <point x="185" y="440" type="curve"/>
      <point x="226" y="426"/>
      <point x="260" y="403"/>
      <point x="286" y="385" type="curve"/>
      <point x="331" y="476" type="line"/>
      <point x="303" y="490"/>
      <point x="257" y="503"/>
      <point x="239" y="503" type="curve" smooth="yes"/>
      <point x="174" y="503"/>
      <point x="78" y="384"/>
      <point x="78" y="314" type="curve" smooth="yes"/>
      <point x="78" y="301"/>
      <point x="79" y="281"/>
      <point x="90" y="263" type="curve" smooth="yes"/>
      <point x="151" y="165" type="line" smooth="yes"/>
      <point x="162" y="147"/>
      <point x="173" y="128"/>
      <point x="173" y="112" type="curve" smooth="yes"/>
      <point x="173" y="82"/>
      <point x="160" y="64"/>
      <point x="142" y="46" type="curve"/>
      <point x="95" y="62"/>
      <point x="57" y="87"/>
      <point x="19" y="112" type="curve"/>
      <point x="-29" y="24" type="line"/>
      <point x="10" y="3"/>
      <point x="56" y="-9"/>
    </contour>
  </outline>
</glyph>
<glyph name="t" format="2">
  <advance width="279"/>
  <unicode hex="0074"/>
  <note>
t
</note>
  <guideline x="465" y="499"/>
  <anchor x="156" y="0" name="bottom"/>
  <outline>
    <component base="barreft" xOffset="-26" yOffset="28"/>
    <contour>
      <point x="166" y="319" type="curve" smooth="yes"/>
      <point x="206" y="457"/>
      <point x="253" y="571"/>
      <point x="278" y="626" type="curve"/>
      <point x="262" y="636" type="line"/>
      <point x="142" y="480" type="line"/>
      <point x="119" y="405"/>
      <point x="85" y="305"/>
      <point x="64" y="229" type="curve" smooth="yes"/>
      <point x="52" y="190"/>
      <point x="9" y="31"/>
      <point x="12" y="19" type="curve" smooth="yes"/>
      <point x="16" y="3"/>
      <point x="48" y="-14"/>
      <point x="77" y="-14" type="curve"/>
      <point x="108" y="20"/>
      <point x="151" y="62"/>
      <point x="207" y="110" type="curve"/>
      <point x="198" y="124" type="line"/>
      <point x="154" y="102"/>
      <point x="128" y="87"/>
      <point x="100" y="65" type="curve"/>
      <point x="112" y="116"/>
      <point x="142" y="235"/>
    </contour>
  </outline>
</glyph>
<glyph name="u" format="2">
  <advance width="523"/>
  <unicode hex="0075"/>
  <note>
u
</note>
  <guideline x="473" y="499"/>
  <anchor x="129" y="0" name="bottom"/>
  <anchor x="285" y="480" name="top"/>
  <outline>
    <contour>
      <point x="65" y="-14" type="curve" smooth="yes"/>
      <point x="128" y="-14"/>
      <point x="266" y="139"/>
      <point x="393" y="329" type="curve"/>
      <point x="384" y="363" type="line"/>
      <point x="344" y="305"/>
      <point x="192" y="114"/>
      <point x="117" y="76" type="curve"/>
      <point x="158" y="193"/>
      <point x="230" y="355"/>
      <point x="246" y="475" type="curve"/>
      <point x="194" y="499" type="line"/>
      <point x="155" y="465"/>
      <point x="128" y="437"/>
      <point x="56" y="376" type="curve"/>
      <point x="67" y="357" type="line"/>
      <point x="106" y="384"/>
      <point x="129" y="398"/>
      <point x="158" y="418" type="curve"/>
      <point x="141" y="312"/>
      <point x="34" y="93"/>
      <point x="34" y="28" type="curve" smooth="yes"/>
      <point x="34" y="5"/>
      <point x="43" y="-14"/>
    </contour>
    <contour>
      <point x="436" y="319" type="curve" smooth="yes"/>
      <point x="464" y="417"/>
      <point x="474" y="452"/>
      <point x="478" y="488" type="curve"/>
      <point x="468" y="499" type="line"/>
      <point x="402" y="469" type="line"/>
      <point x="389" y="418" type="line" smooth="yes"/>
      <point x="382" y="391"/>
      <point x="349" y="278"/>
      <point x="334" y="227" type="curve" smooth="yes"/>
      <point x="322" y="188"/>
      <point x="269" y="31"/>
      <point x="272" y="19" type="curve" smooth="yes"/>
      <point x="276" y="3"/>
      <point x="308" y="-14"/>
      <point x="337" y="-14" type="curve"/>
      <point x="368" y="20"/>
      <point x="411" y="62"/>
      <point x="467" y="110" type="curve"/>
      <point x="458" y="124" type="line"/>
      <point x="414" y="102"/>
      <point x="388" y="87"/>
      <point x="360" y="65" type="curve"/>
      <point x="372" y="116"/>
      <point x="410" y="234"/>
    </contour>
  </outline>
</glyph>
<glyph name="v" format="2">
  <advance width="457"/>
  <unicode hex="0076"/>
  <note>
v
</note>
  <guideline x="476" y="499"/>
  <anchor x="189" y="0" name="bottom"/>
  <outline>
    <contour>
      <point x="125" y="-14" type="line"/>
      <point x="305" y="136"/>
      <point x="451" y="275"/>
      <point x="451" y="387" type="curve" smooth="yes"/>
      <point x="451" y="435"/>
      <point x="435" y="464"/>
      <point x="408" y="499" type="curve"/>
      <point x="327" y="437" type="line"/>
      <point x="348" y="408"/>
      <point x="364" y="382"/>
      <point x="364" y="346" type="curve" smooth="yes"/>
      <point x="364" y="286"/>
      <point x="277" y="150"/>
      <point x="156" y="56" type="curve"/>
      <point x="191" y="161"/>
      <point x="222" y="352"/>
      <point x="222" y="430" type="curve" smooth="yes"/>
      <point x="222" y="443"/>
      <point x="222" y="457"/>
      <point x="221" y="475" type="curve"/>
      <point x="169" y="499" type="line"/>
      <point x="130" y="465"/>
      <point x="103" y="437"/>
      <point x="31" y="376" type="curve"/>
      <point x="42" y="357" type="line"/>
      <point x="81" y="383"/>
      <point x="108" y="399"/>
      <point x="137" y="419" type="curve"/>
      <point x="138" y="303"/>
      <point x="98" y="112"/>
      <point x="69" y="17" type="curve"/>
    </contour>
  </outline>
</glyph>
<glyph name="w" format="2">
  <advance width="655"/>
  <unicode hex="0077"/>
  <note>
w
</note>
  <guideline x="476" y="499"/>
  <anchor x="205" y="0" name="bottom"/>
  <anchor x="382" y="470" name="top"/>
  <outline>
    <contour>
      <point x="336" y="-14" type="line"/>
      <point x="516" y="136"/>
      <point x="648" y="279"/>
      <point x="648" y="386" type="curve" smooth="yes"/>
      <point x="648" y="436"/>
      <point x="632" y="464"/>
      <point x="605" y="499" type="curve"/>
      <point x="522" y="437" type="line"/>
      <point x="543" y="408"/>
      <point x="559" y="381"/>
      <point x="559" y="350" type="curve" smooth="yes"/>
      <point x="559" y="290"/>
      <point x="488" y="150"/>
      <point x="367" y="56" type="curve"/>
      <point x="408" y="183"/>
      <point x="434" y="365"/>
      <point x="427" y="480" type="curve"/>
      <point x="375" y="499" type="line"/>
      <point x="332" y="463" type="line"/>
      <point x="371" y="300"/>
      <point x="309" y="112"/>
      <point x="280" y="17" type="curve"/>
    </contour>
    <contour>
      <point x="125" y="-14" type="line"/>
      <point x="240" y="82"/>
      <point x="329" y="176"/>
      <point x="386" y="257" type="curve"/>
      <point x="354" y="288" type="line"/>
      <point x="320" y="229"/>
      <point x="247" y="125"/>
      <point x="156" y="56" type="curve"/>
      <point x="191" y="161"/>
      <point x="222" y="352"/>
      <point x="222" y="430" type="curve" smooth="yes"/>
      <point x="222" y="443"/>
      <point x="222" y="457"/>
      <point x="221" y="475" type="curve"/>
      <point x="169" y="499" type="line"/>
      <point x="130" y="465"/>
      <point x="103" y="437"/>
      <point x="31" y="376" type="curve"/>
      <point x="42" y="357" type="line"/>
      <point x="81" y="383"/>
      <point x="108" y="399"/>
      <point x="137" y="419" type="curve"/>
      <point x="138" y="306"/>
      <point x="98" y="112"/>
      <point x="69" y="17" type="curve"/>
    </contour>
  </outline>
</glyph>
<glyph name="x" format="2">
  <advance width="472"/>
  <unicode hex="0078"/>
  <note>
x
</note>
  <guideline x="468" y="499"/>
  <anchor x="209" y="0" name="bottom"/>
  <outline>
    <contour>
      <point x="269" y="-14" type="line"/>
      <point x="294" y="7"/>
      <point x="366" y="70"/>
      <point x="416" y="109" type="curve"/>
      <point x="406" y="128" type="line"/>
      <point x="383" y="113"/>
      <point x="319" y="79"/>
      <point x="300" y="66" type="curve"/>
      <point x="267" y="174"/>
      <point x="252" y="352"/>
      <point x="259" y="475" type="curve"/>
      <point x="213" y="499" type="line"/>
      <point x="180" y="471"/>
      <point x="104" y="406"/>
      <point x="66" y="376" type="curve"/>
      <point x="76" y="357" type="line"/>
      <point x="101" y="373"/>
      <point x="162" y="408"/>
      <point x="179" y="419" type="curve"/>
      <point x="180" y="294"/>
      <point x="211" y="96"/>
      <point x="229" y="10" type="curve"/>
    </contour>
    <contour>
      <point x="30" y="-14" type="curve" smooth="yes"/>
      <point x="70" y="-14"/>
      <point x="171" y="122"/>
      <point x="243" y="245" type="curve"/>
      <point x="232" y="277" type="line"/>
      <point x="187" y="212"/>
      <point x="105" y="94"/>
      <point x="83" y="78" type="curve"/>
      <point x="64" y="82"/>
      <point x="45" y="92"/>
      <point x="29" y="102" type="curve"/>
      <point x="-31" y="10" type="line"/>
      <point x="-12" y="-6"/>
      <point x="16" y="-14"/>
    </contour>
    <contour>
      <point x="239" y="222" type="line"/>
      <point x="280" y="279"/>
      <point x="364" y="395"/>
      <point x="387" y="410" type="curve"/>
      <point x="408" y="406"/>
      <point x="429" y="394"/>
      <point x="446" y="382" type="curve"/>
      <point x="496" y="480" type="line"/>
      <point x="482" y="489"/>
      <point x="460" y="499"/>
      <point x="438" y="499" type="curve" smooth="yes"/>
      <point x="398" y="499"/>
      <point x="299" y="369"/>
      <point x="227" y="245" type="curve"/>
    </contour>
  </outline>
</glyph>
<glyph name="y" format="2">
  <advance width="459"/>
  <unicode hex="0079"/>
  <note>
y
</note>
  <guideline x="452" y="499"/>
  <anchor x="209" y="5" name="bottom"/>
  <anchor x="272" y="470" name="top"/>
  <outline>
    <contour>
      <point x="-174" y="-264" type="curve" smooth="yes"/>
      <point x="-74" y="-264"/>
      <point x="100" y="-93"/>
      <point x="170" y="-24" type="curve" smooth="yes"/>
      <point x="339" y="142"/>
      <point x="452" y="273"/>
      <point x="452" y="390" type="curve" smooth="yes"/>
      <point x="452" y="434"/>
      <point x="436" y="464"/>
      <point x="409" y="499" type="curve"/>
      <point x="328" y="437" type="line"/>
      <point x="349" y="409"/>
      <point x="365" y="386"/>
      <point x="365" y="348" type="curve" smooth="yes"/>
      <point x="365" y="273"/>
      <point x="255" y="104"/>
      <point x="128" y="-19" type="curve" smooth="yes"/>
      <point x="62" y="-82"/>
      <point x="-50" y="-174"/>
      <point x="-137" y="-174" type="curve" smooth="yes"/>
      <point x="-169" y="-174"/>
      <point x="-203" y="-163"/>
      <point x="-230" y="-143" type="curve"/>
      <point x="-278" y="-234" type="line"/>
      <point x="-232" y="-263"/>
      <point x="-193" y="-264"/>
    </contour>
    <contour>
      <point x="79" y="-78" type="curve"/>
      <point x="149" y="-21" type="line"/>
      <point x="212" y="125"/>
      <point x="225" y="360"/>
      <point x="214" y="475" type="curve"/>
      <point x="162" y="499" type="line"/>
      <point x="123" y="465"/>
      <point x="99" y="437"/>
      <point x="27" y="376" type="curve"/>
      <point x="38" y="357" type="line"/>
      <point x="77" y="383"/>
      <point x="104" y="401"/>
      <point x="130" y="419" type="curve"/>
      <point x="135" y="311"/>
      <point x="137" y="107"/>
    </contour>
  </outline>
</glyph>
<glyph name="z" format="2">
  <advance width="384"/>
  <unicode hex="007A"/>
  <guideline x="456" y="499"/>
  <outline>
    <contour>
      <point x="-27" y="-13" type="line"/>
      <point x="16" y="13" type="line"/>
      <point x="254" y="-4" type="line"/>
      <point x="340" y="136" type="line"/>
      <point x="327" y="145" type="line"/>
      <point x="303" y="121"/>
      <point x="266" y="87"/>
      <point x="223" y="87" type="curve" smooth="yes"/>
      <point x="43" y="87" type="line"/>
      <point x="55" y="59" type="line"/>
      <point x="415" y="484" type="line"/>
      <point x="401" y="499" type="line"/>
      <point x="358" y="472" type="line"/>
      <point x="140" y="489" type="line"/>
      <point x="54" y="349" type="line"/>
      <point x="68" y="339" type="line"/>
      <point x="101" y="374"/>
      <point x="130" y="398"/>
      <point x="177" y="398" type="curve" smooth="yes"/>
      <point x="327" y="398" type="line"/>
      <point x="322" y="425" type="line"/>
      <point x="-38" y="2" type="line"/>
    </contour>
  </outline>
</glyph>
<glyph name="braceleft" format="2">
  <advance width="288"/>
  <unicode hex="007B"/>
  <outline>
    <contour>
      <point x="47" y="305" type="curve"/>
      <point x="44" y="282" type="line"/>
      <point x="93" y="271"/>
      <point x="101" y="234"/>
      <point x="87" y="174" type="curve" smooth="yes"/>
      <point x="49" y="13" type="line" smooth="yes"/>
      <point x="30" y="-68"/>
      <point x="105" y="-136"/>
      <point x="172" y="-173" type="curve"/>
      <point x="182" y="-157" type="line"/>
      <point x="143" y="-123"/>
      <point x="109" y="-57"/>
      <point x="125" y="9" type="curve" smooth="yes"/>
      <point x="164" y="170" type="line" smooth="yes"/>
      <point x="176" y="220"/>
      <point x="154" y="273"/>
      <point x="113" y="288" type="curve"/>
      <point x="162" y="303"/>
      <point x="207" y="336"/>
      <point x="224" y="393" type="curve" smooth="yes"/>
      <point x="274" y="562" type="line" smooth="yes"/>
      <point x="297" y="639"/>
      <point x="355" y="691"/>
      <point x="417" y="705" type="curve"/>
      <point x="414" y="729" type="line"/>
      <point x="358" y="724"/>
      <point x="232" y="678"/>
      <point x="191" y="543" type="curve" smooth="yes"/>
      <point x="150" y="408" type="line" smooth="yes"/>
      <point x="132" y="349"/>
      <point x="101" y="305"/>
    </contour>
  </outline>
</glyph>
<glyph name="bar" format="2">
  <advance width="202"/>
  <unicode hex="007C"/>
  <outline>
    <contour>
      <point x="73" y="700" type="line"/>
      <point x="73" y="-152" type="line"/>
      <point x="146" y="-152" type="line"/>
      <point x="146" y="700" type="line"/>
    </contour>
  </outline>
</glyph>
<glyph name="cent" format="2">
  <advance width="336"/>
  <unicode hex="00A2"/>
  <outline>
    <component base="c" xOffset="30" yOffset="112"/>
    <contour>
      <point x="305" y="700" type="line"/>
      <point x="271" y="574" type="line"/>
      <point x="321" y="574" type="line"/>
      <point x="355" y="700" type="line"/>
    </contour>
    <contour>
      <point x="152" y="128" type="line"/>
      <point x="118" y="2" type="line"/>
      <point x="168" y="2" type="line"/>
      <point x="202" y="128" type="line"/>
    </contour>
  </outline>
</glyph>
<glyph name="sterling" format="2">
  <advance width="564"/>
  <unicode hex="00A3"/>
  <outline>
    <contour>
      <point x="650" y="637" type="line"/>
      <point x="597" y="695"/>
      <point x="546" y="714"/>
      <point x="516" y="714" type="curve" smooth="yes"/>
      <point x="416" y="714"/>
      <point x="278" y="584"/>
      <point x="220" y="424" type="curve" smooth="yes"/>
      <point x="181" y="317" type="line" smooth="yes"/>
      <point x="142" y="210"/>
      <point x="99" y="140"/>
      <point x="73" y="92" type="curve"/>
      <point x="-56" y="52" type="line"/>
      <point x="-26" y="-14" type="line"/>
      <point x="84" y="60" type="line"/>
      <point x="161" y="42"/>
      <point x="283" y="-14"/>
      <point x="313" y="-14" type="curve" smooth="yes"/>
      <point x="413" y="-14"/>
      <point x="507" y="79"/>
      <point x="507" y="169" type="curve" smooth="yes"/>
      <point x="507" y="193"/>
      <point x="501" y="213"/>
      <point x="490" y="227" type="curve"/>
      <point x="410" y="164" type="line"/>
      <point x="425" y="135"/>
      <point x="436" y="103"/>
      <point x="437" y="53" type="curve"/>
      <point x="387" y="40"/>
      <point x="229" y="119"/>
      <point x="190" y="119" type="curve" smooth="yes"/>
      <point x="163" y="119"/>
      <point x="129" y="104"/>
      <point x="109" y="93" type="curve"/>
      <point x="165" y="148"/>
      <point x="250" y="239"/>
      <point x="299" y="382" type="curve" smooth="yes"/>
      <point x="334" y="485" type="line" smooth="yes"/>
      <point x="379" y="617"/>
      <point x="417" y="644"/>
      <point x="450" y="675" type="curve"/>
      <point x="492" y="646"/>
      <point x="522" y="614"/>
      <point x="562" y="556" type="curve"/>
    </contour>
    <contour>
      <point x="107" y="382" type="line"/>
      <point x="90" y="332" type="line"/>
      <point x="466" y="332" type="line"/>
      <point x="483" y="382" type="line"/>
    </contour>
  </outline>
</glyph>
<glyph name="currency" format="2">
  <advance width="534"/>
  <unicode hex="00A4"/>
  <outline>
    <component base="degree" xScale="1.1" yScale="1.1" xOffset="49" yOffset="-301"/>
    <contour>
      <point x="96" y="506" type="line"/>
      <point x="197" y="404" type="line"/>
      <point x="236" y="443" type="line"/>
      <point x="135" y="544" type="line"/>
    </contour>
    <contour>
      <point x="354" y="248" type="line"/>
      <point x="456" y="146" type="line"/>
      <point x="494" y="185" type="line"/>
      <point x="393" y="287" type="line"/>
    </contour>
    <contour>
      <point x="455" y="544" type="line"/>
      <point x="353" y="443" type="line"/>
      <point x="392" y="404" type="line"/>
      <point x="494" y="506" type="line"/>
    </contour>
    <contour>
      <point x="197" y="286" type="line"/>
      <point x="96" y="185" type="line"/>
      <point x="134" y="146" type="line"/>
      <point x="236" y="247" type="line"/>
    </contour>
  </outline>
</glyph>
<glyph name="yen" format="2">
  <advance width="629"/>
  <unicode hex="00A5"/>
  <outline>
    <component base="Y"/>
    <contour>
      <point x="136" y="478" type="line"/>
      <point x="119" y="419" type="line"/>
      <point x="286" y="419" type="line"/>
      <point x="303" y="478" type="line"/>
    </contour>
    <contour>
      <point x="93" y="334" type="line"/>
      <point x="77" y="275" type="line"/>
      <point x="573" y="275" type="line"/>
      <point x="589" y="334" type="line"/>
    </contour>
    <contour>
      <point x="487" y="478" type="line"/>
      <point x="470" y="419" type="line"/>
      <point x="615" y="419" type="line"/>
      <point x="632" y="478" type="line"/>
    </contour>
  </outline>
</glyph>
<glyph name="section" format="2">
  <advance width="451"/>
  <unicode hex="00A7"/>
  <outline>
    <contour>
      <point x="107" y="-220" type="curve" smooth="yes"/>
      <point x="197" y="-220"/>
      <point x="329" y="-110"/>
      <point x="329" y="-11" type="curve" smooth="yes"/>
      <point x="329" y="21"/>
      <point x="315" y="42"/>
      <point x="298" y="56" type="curve" smooth="yes"/>
      <point x="156" y="171" type="line" smooth="yes"/>
      <point x="130" y="192"/>
      <point x="121" y="204"/>
      <point x="121" y="220" type="curve" smooth="yes"/>
      <point x="121" y="251"/>
      <point x="153" y="313"/>
      <point x="249" y="390" type="curve"/>
      <point x="241" y="418" type="line"/>
      <point x="146" y="361"/>
      <point x="32" y="260"/>
      <point x="32" y="164" type="curve" smooth="yes"/>
      <point x="32" y="142"/>
      <point x="38" y="129"/>
      <point x="56" y="114" type="curve" smooth="yes"/>
      <point x="192" y="4" type="line" smooth="yes"/>
      <point x="224" y="-22"/>
      <point x="242" y="-42"/>
      <point x="242" y="-72" type="curve" smooth="yes"/>
      <point x="242" y="-103"/>
      <point x="220" y="-140"/>
      <point x="190" y="-169" type="curve"/>
      <point x="119" y="-153"/>
      <point x="80" y="-120"/>
      <point x="17" y="-65" type="curve"/>
      <point x="-67" y="-157" type="line"/>
      <point x="5" y="-199"/>
      <point x="68" y="-220"/>
    </contour>
    <contour>
      <point x="219" y="79" type="line"/>
      <point x="306" y="139"/>
      <point x="421" y="257"/>
      <point x="421" y="336" type="curve" smooth="yes"/>
      <point x="421" y="358"/>
      <point x="412" y="375"/>
      <point x="398" y="387" type="curve" smooth="yes"/>
      <point x="280" y="490" type="line" smooth="yes"/>
      <point x="241" y="524"/>
      <point x="225" y="549"/>
      <point x="225" y="575" type="curve" smooth="yes"/>
      <point x="225" y="601"/>
      <point x="241" y="640"/>
      <point x="271" y="665" type="curve"/>
      <point x="340" y="646"/>
      <point x="387" y="619"/>
      <point x="424" y="588" type="curve"/>
      <point x="485" y="683" type="line"/>
      <point x="455" y="700"/>
      <point x="387" y="714"/>
      <point x="348" y="714" type="curve" smooth="yes"/>
      <point x="237" y="714"/>
      <point x="132" y="600"/>
      <point x="132" y="514" type="curve" smooth="yes"/>
      <point x="132" y="482"/>
      <point x="146" y="463"/>
      <point x="164" y="448" type="curve" smooth="yes"/>
      <point x="299" y="335" type="line" smooth="yes"/>
      <point x="320" y="318"/>
      <point x="329" y="300"/>
      <point x="329" y="285" type="curve" smooth="yes"/>
      <point x="329" y="250"/>
      <point x="295" y="185"/>
      <point x="212" y="103" type="curve"/>
    </contour>
  </outline>
</glyph>
<glyph name="copyright" format="2">
  <advance width="630"/>
  <unicode hex="00A9"/>
  <outline>
    <contour>
      <point x="358" y="275" type="curve" smooth="yes"/>
      <point x="404" y="275"/>
      <point x="449" y="307"/>
      <point x="474" y="349" type="curve"/>
      <point x="458" y="366" type="line"/>
      <point x="438" y="345"/>
      <point x="415" y="328"/>
      <point x="386" y="328" type="curve" smooth="yes"/>
      <point x="335" y="328"/>
      <point x="290" y="386"/>
      <point x="290" y="456" type="curve" smooth="yes"/>
      <point x="290" y="520"/>
      <point x="321" y="557"/>
      <point x="354" y="557" type="curve" smooth="yes"/>
      <point x="387" y="557"/>
      <point x="410" y="524"/>
      <point x="433" y="491" type="curve"/>
      <point x="470" y="555" type="line"/>
      <point x="451" y="575"/>
      <point x="417" y="595"/>
      <point x="373" y="595" type="curve" smooth="yes"/>
      <point x="291" y="595"/>
      <point x="228" y="524"/>
      <point x="228" y="433" type="curve" smooth="yes"/>
      <point x="228" y="342"/>
      <point x="290" y="275"/>
    </contour>
    <contour>
      <point x="365" y="143" type="curve" smooth="yes"/>
      <point x="525" y="143"/>
      <point x="650" y="270"/>
      <point x="650" y="429" type="curve" smooth="yes"/>
      <point x="650" y="588"/>
      <point x="525" y="714"/>
      <point x="365" y="714" type="curve" smooth="yes"/>
      <point x="205" y="714"/>
      <point x="80" y="588"/>
      <point x="80" y="429" type="curve" smooth="yes"/>
      <point x="80" y="270"/>
      <point x="205" y="143"/>
    </contour>
    <contour>
      <point x="365" y="191" type="curve" smooth="yes"/>
      <point x="233" y="191"/>
      <point x="128" y="297"/>
      <point x="128" y="429" type="curve" smooth="yes"/>
      <point x="128" y="560"/>
      <point x="233" y="666"/>
      <point x="365" y="666" type="curve" smooth="yes"/>
      <point x="497" y="666"/>
      <point x="602" y="560"/>
      <point x="602" y="429" type="curve" smooth="yes"/>
      <point x="602" y="297"/>
      <point x="497" y="191"/>
    </contour>
  </outline>
</glyph>
<glyph name="registered" format="2">
  <advance width="630"/>
  <unicode hex="00AE"/>
  <outline>
    <contour>
      <point x="365" y="143" type="curve" smooth="yes"/>
      <point x="525" y="143"/>
      <point x="650" y="270"/>
      <point x="650" y="429" type="curve" smooth="yes"/>
      <point x="650" y="588"/>
      <point x="525" y="714"/>
      <point x="365" y="714" type="curve" smooth="yes"/>
      <point x="205" y="714"/>
      <point x="80" y="588"/>
      <point x="80" y="429" type="curve" smooth="yes"/>
      <point x="80" y="270"/>
      <point x="205" y="143"/>
    </contour>
    <contour>
      <point x="365" y="191" type="curve" smooth="yes"/>
      <point x="233" y="191"/>
      <point x="128" y="297"/>
      <point x="128" y="429" type="curve" smooth="yes"/>
      <point x="128" y="560"/>
      <point x="233" y="666"/>
      <point x="365" y="666" type="curve" smooth="yes"/>
      <point x="497" y="666"/>
      <point x="602" y="560"/>
      <point x="602" y="429" type="curve" smooth="yes"/>
      <point x="602" y="297"/>
      <point x="497" y="191"/>
    </contour>
    <contour>
      <point x="248" y="293" type="line"/>
      <point x="367" y="293" type="line"/>
      <point x="367" y="304" type="line"/>
      <point x="346" y="307"/>
      <point x="334" y="314"/>
      <point x="334" y="349" type="curve" smooth="yes"/>
      <point x="334" y="417" type="line"/>
      <point x="348" y="417" type="line" smooth="yes"/>
      <point x="358" y="417"/>
      <point x="364" y="411"/>
      <point x="370" y="402" type="curve" smooth="yes"/>
      <point x="442" y="293" type="line"/>
      <point x="523" y="293" type="line"/>
      <point x="523" y="303" type="line"/>
      <point x="516" y="306" type="line" smooth="yes"/>
      <point x="496" y="315"/>
      <point x="428" y="416"/>
      <point x="413" y="431" type="curve"/>
      <point x="442" y="441"/>
      <point x="475" y="468"/>
      <point x="475" y="499" type="curve" smooth="yes"/>
      <point x="475" y="546"/>
      <point x="429" y="573"/>
      <point x="341" y="573" type="curve" smooth="yes"/>
      <point x="248" y="573" type="line"/>
      <point x="248" y="562" type="line"/>
      <point x="267" y="558"/>
      <point x="271" y="550"/>
      <point x="271" y="516" type="curve" smooth="yes"/>
      <point x="271" y="349" type="line" smooth="yes"/>
      <point x="271" y="315"/>
      <point x="267" y="308"/>
      <point x="248" y="304" type="curve"/>
    </contour>
    <contour>
      <point x="334" y="439" type="line"/>
      <point x="334" y="552" type="line"/>
      <point x="340" y="552" type="line" smooth="yes"/>
      <point x="382" y="552"/>
      <point x="410" y="530"/>
      <point x="410" y="496" type="curve" smooth="yes"/>
      <point x="410" y="462"/>
      <point x="383" y="439"/>
      <point x="348" y="439" type="curve" smooth="yes"/>
    </contour>
  </outline>
</glyph>
<glyph name="degree" format="2">
  <advance width="286"/>
  <unicode hex="00B0"/>
  <outline>
    <contour>
      <point x="224" y="510" type="curve" smooth="yes"/>
      <point x="182" y="510"/>
      <point x="146" y="545"/>
      <point x="146" y="588" type="curve" smooth="yes"/>
      <point x="146" y="629"/>
      <point x="182" y="664"/>
      <point x="224" y="664" type="curve" smooth="yes"/>
      <point x="266" y="664"/>
      <point x="301" y="629"/>
      <point x="301" y="588" type="curve" smooth="yes"/>
      <point x="301" y="545"/>
      <point x="266" y="510"/>
    </contour>
    <contour>
      <point x="224" y="460" type="curve" smooth="yes"/>
      <point x="293" y="460"/>
      <point x="350" y="518"/>
      <point x="350" y="588" type="curve" smooth="yes"/>
      <point x="350" y="657"/>
      <point x="293" y="714"/>
      <point x="224" y="714" type="curve" smooth="yes"/>
      <point x="154" y="714"/>
      <point x="97" y="657"/>
      <point x="97" y="588" type="curve" smooth="yes"/>
      <point x="97" y="518"/>
      <point x="154" y="460"/>
    </contour>
  </outline>
</glyph>
<glyph name="paragraph" format="2">
  <advance width="647"/>
  <unicode hex="00B6"/>
  <outline>
    <contour>
      <point x="172" y="-250" type="line"/>
      <point x="227" y="-250" type="line"/>
      <point x="467" y="647" type="line"/>
      <point x="562" y="647" type="line"/>
      <point x="322" y="-250" type="line"/>
      <point x="377" y="-250" type="line"/>
      <point x="596" y="568" type="line" smooth="yes"/>
      <point x="616" y="643"/>
      <point x="652" y="662"/>
      <point x="712" y="673" type="curve"/>
      <point x="720" y="700" type="line"/>
      <point x="427" y="700" type="line" smooth="yes"/>
      <point x="276" y="700"/>
      <point x="145" y="597"/>
      <point x="111" y="470" type="curve" smooth="yes"/>
      <point x="77" y="343"/>
      <point x="152" y="238"/>
      <point x="303" y="238" type="curve"/>
    </contour>
  </outline>
</glyph>
<glyph name="AE" format="2">
  <advance width="1024"/>
  <unicode hex="00C6"/>
  <outline>
    <contour>
      <point x="-87" y="0" type="line"/>
      <point x="158" y="0" type="line"/>
      <point x="161" y="18" type="line"/>
      <point x="70" y="31" type="line"/>
      <point x="644" y="651" type="line"/>
      <point x="634" y="663" type="line"/>
      <point x="447" y="37" type="line"/>
      <point x="336" y="18" type="line"/>
      <point x="333" y="0" type="line"/>
      <point x="592" y="0" type="line"/>
      <point x="594" y="18" type="line"/>
      <point x="536" y="31" type="line"/>
      <point x="724" y="700" type="line"/>
      <point x="646" y="700" type="line"/>
      <point x="-27" y="30" type="line"/>
      <point x="-85" y="18" type="line"/>
    </contour>
    <contour>
      <point x="216" y="216" type="line"/>
      <point x="529" y="216" type="line"/>
      <point x="534" y="256" type="line"/>
      <point x="232" y="256" type="line"/>
    </contour>
    <component base="E" xOffset="391"/>
  </outline>
</glyph>
<glyph name="germandbls" format="2">
  <advance width="463"/>
  <unicode hex="00DF"/>
  <outline>
    <contour>
      <point x="-137" y="-262" type="curve" smooth="yes"/>
      <point x="-69" y="-262"/>
      <point x="45" y="-107"/>
      <point x="71" y="-22" type="curve" smooth="yes"/>
      <point x="122" y="145"/>
      <point x="187" y="402"/>
      <point x="224" y="549" type="curve" smooth="yes"/>
      <point x="236" y="598"/>
      <point x="263" y="657"/>
      <point x="285" y="685" type="curve"/>
      <point x="331" y="654"/>
      <point x="368" y="577"/>
      <point x="387" y="508" type="curve"/>
      <point x="324" y="456"/>
      <point x="256" y="383"/>
      <point x="256" y="313" type="curve" smooth="yes"/>
      <point x="256" y="300"/>
      <point x="261" y="281"/>
      <point x="272" y="263" type="curve" smooth="yes"/>
      <point x="333" y="165" type="line" smooth="yes"/>
      <point x="344" y="147"/>
      <point x="355" y="128"/>
      <point x="355" y="112" type="curve" smooth="yes"/>
      <point x="355" y="82"/>
      <point x="342" y="64"/>
      <point x="324" y="46" type="curve"/>
      <point x="277" y="62"/>
      <point x="239" y="87"/>
      <point x="201" y="112" type="curve"/>
      <point x="153" y="24" type="line"/>
      <point x="192" y="3"/>
      <point x="238" y="-9"/>
      <point x="265" y="-9" type="curve" smooth="yes"/>
      <point x="342" y="-9"/>
      <point x="428" y="87"/>
      <point x="428" y="164" type="curve" smooth="yes"/>
      <point x="428" y="174"/>
      <point x="425" y="195"/>
      <point x="417" y="208" type="curve" smooth="yes"/>
      <point x="347" y="321" type="line" smooth="yes"/>
      <point x="337" y="337"/>
      <point x="332" y="347"/>
      <point x="332" y="366" type="curve" smooth="yes"/>
      <point x="332" y="445"/>
      <point x="467" y="519"/>
      <point x="467" y="537" type="curve" smooth="yes"/>
      <point x="467" y="609"/>
      <point x="391" y="739"/>
      <point x="349" y="739" type="curve" smooth="yes"/>
      <point x="292" y="739"/>
      <point x="167" y="649"/>
      <point x="143" y="545" type="curve"/>
      <point x="114" y="392"/>
      <point x="48" y="155"/>
      <point x="2" y="-7" type="curve" smooth="yes"/>
      <point x="-22" y="-90"/>
      <point x="-54" y="-154"/>
      <point x="-67" y="-177" type="curve"/>
      <point x="-90" y="-185"/>
      <point x="-124" y="-179"/>
      <point x="-183" y="-157" type="curve"/>
      <point x="-220" y="-243" type="line"/>
      <point x="-194" y="-253"/>
      <point x="-162" y="-262"/>
    </contour>
    <contour>
      <point x="139" y="443" type="line"/>
      <point x="167" y="485" type="line"/>
      <point x="67" y="472" type="line"/>
      <point x="68" y="455" type="line"/>
    </contour>
  </outline>
</glyph>
<glyph name="ae" format="2">
  <advance width="601"/>
  <unicode hex="00E6"/>
  <outline>
    <contour>
      <point x="331" y="337" type="curve"/>
      <point x="375" y="377" type="line"/>
      <point x="345" y="392" type="line"/>
      <point x="345" y="392"/>
      <point x="336" y="355"/>
    </contour>
    <component base="panse_adq" xOffset="-52" identifier="88DC8A0A"/>
    <component base="e" xOffset="230" identifier="273C08CE"/>
  </outline>
</glyph>
<glyph name="idotless" format="2">
  <advance width="276"/>
  <unicode hex="0131"/>
  <guideline x="468" y="499"/>
  <anchor x="197" y="480" name="top"/>
  <outline>
    <contour>
      <point x="95" y="-14" type="curve"/>
      <point x="126" y="20"/>
      <point x="169" y="62"/>
      <point x="225" y="110" type="curve"/>
      <point x="216" y="124" type="line"/>
      <point x="172" y="102"/>
      <point x="146" y="87"/>
      <point x="118" y="65" type="curve"/>
      <point x="130" y="116"/>
      <point x="168" y="234"/>
      <point x="194" y="319" type="curve" smooth="yes"/>
      <point x="210" y="370"/>
      <point x="232" y="450"/>
      <point x="236" y="475" type="curve"/>
      <point x="183" y="499" type="line"/>
      <point x="147" y="465"/>
      <point x="109" y="430"/>
      <point x="46" y="376" type="curve"/>
      <point x="57" y="357" type="line"/>
      <point x="92" y="382"/>
      <point x="120" y="398"/>
      <point x="148" y="418" type="curve"/>
      <point x="144" y="391"/>
      <point x="121" y="323"/>
      <point x="92" y="227" type="curve" smooth="yes"/>
      <point x="80" y="188"/>
      <point x="27" y="31"/>
      <point x="30" y="19" type="curve" smooth="yes"/>
      <point x="34" y="3"/>
      <point x="66" y="-14"/>
    </contour>
  </outline>
</glyph>
<glyph name="OE" format="2">
  <advance width="999"/>
  <unicode hex="0152"/>
  <outline>
    <contour>
      <point x="333" y="0" type="curve" smooth="yes"/>
      <point x="426" y="0" type="line"/>
      <point x="443" y="37" type="line"/>
      <point x="370" y="37" type="line" smooth="yes"/>
      <point x="211" y="37"/>
      <point x="160" y="140"/>
      <point x="160" y="240" type="curve" smooth="yes"/>
      <point x="160" y="400"/>
      <point x="310" y="661"/>
      <point x="605" y="661" type="curve" smooth="yes"/>
      <point x="630" y="661" type="line"/>
      <point x="640" y="700" type="line"/>
      <point x="617" y="700" type="line" smooth="yes"/>
      <point x="270" y="700"/>
      <point x="57" y="433"/>
      <point x="57" y="223" type="curve" smooth="yes"/>
      <point x="57" y="97"/>
      <point x="138" y="0"/>
    </contour>
    <contour>
      <point x="341" y="0" type="line"/>
      <point x="611" y="0" type="line"/>
      <point x="612" y="18" type="line"/>
      <point x="516" y="18" type="line"/>
      <point x="714" y="682" type="line"/>
      <point x="802" y="682" type="line"/>
      <point x="806" y="700" type="line"/>
      <point x="626" y="700" type="line"/>
      <point x="615" y="664" type="line"/>
      <point x="428" y="37" type="line"/>
      <point x="342" y="18" type="line"/>
    </contour>
    <contour>
      <point x="518" y="0" type="line"/>
      <point x="890" y="0" type="line"/>
      <point x="944" y="171" type="line"/>
      <point x="928" y="178" type="line"/>
      <point x="847" y="66" type="line"/>
      <point x="507" y="33" type="line"/>
    </contour>
    <contour>
      <point x="798" y="219" type="line"/>
      <point x="861" y="464" type="line"/>
      <point x="844" y="470" type="line"/>
      <point x="784" y="381" type="line"/>
      <point x="608" y="356" type="line"/>
      <point x="603" y="330" type="line"/>
      <point x="770" y="320" type="line"/>
      <point x="780" y="220" type="line"/>
    </contour>
    <contour>
      <point x="975" y="509" type="line"/>
      <point x="993" y="512" type="line"/>
      <point x="1019" y="700" type="line"/>
      <point x="672" y="700" type="line"/>
      <point x="659" y="673" type="line"/>
      <point x="946" y="644" type="line"/>
    </contour>
  </outline>
</glyph>
<glyph name="longs" format="2">
  <advance width="232"/>
  <unicode hex="017F"/>
  <anchor x="52" y="5" name="bottom"/>
  <outline>
    <contour>
      <point x="-137" y="-262" type="curve" smooth="yes"/>
      <point x="-69" y="-262"/>
      <point x="45" y="-107"/>
      <point x="71" y="-22" type="curve" smooth="yes"/>
      <point x="122" y="145"/>
      <point x="187" y="402"/>
      <point x="224" y="549" type="curve" smooth="yes"/>
      <point x="236" y="598"/>
      <point x="252" y="643"/>
      <point x="261" y="660" type="curve"/>
      <point x="304" y="675"/>
      <point x="340" y="663"/>
      <point x="398" y="638" type="curve"/>
      <point x="435" y="722" type="line"/>
      <point x="403" y="737"/>
      <point x="377" y="744"/>
      <point x="351" y="744" type="curve" smooth="yes"/>
      <point x="294" y="744"/>
      <point x="167" y="649"/>
      <point x="143" y="545" type="curve"/>
      <point x="114" y="392"/>
      <point x="48" y="155"/>
      <point x="2" y="-7" type="curve" smooth="yes"/>
      <point x="-22" y="-90"/>
      <point x="-54" y="-154"/>
      <point x="-67" y="-177" type="curve"/>
      <point x="-90" y="-185"/>
      <point x="-124" y="-179"/>
      <point x="-183" y="-157" type="curve"/>
      <point x="-220" y="-243" type="line"/>
      <point x="-194" y="-253"/>
      <point x="-162" y="-262"/>
    </contour>
    <contour>
      <point x="139" y="443" type="line"/>
      <point x="167" y="485" type="line"/>
      <point x="67" y="472" type="line"/>
      <point x="68" y="455" type="line"/>
    </contour>
  </outline>
</glyph>
<glyph name="circumflexcomb" format="2">
  <advance width="278"/>
  <unicode hex="0302"/>
  <guideline x="139" y="266" angle="90"/>
  <anchor x="171" y="480" name="_top"/>
  <outline>
    <contour>
      <point x="58" y="537" type="line"/>
      <point x="251" y="661" type="line"/>
      <point x="227" y="661" type="line"/>
      <point x="327" y="539" type="line"/>
      <point x="337" y="545" type="line"/>
      <point x="274" y="731" type="line"/>
      <point x="246" y="737" type="line"/>
      <point x="48" y="551" type="line"/>
    </contour>
  </outline>
</glyph>
<glyph name="tildecomb" format="2">
  <advance width="353"/>
  <unicode hex="0303"/>
  <anchor x="232" y="485" name="_top"/>
  <outline>
    <contour>
      <point x="133" y="572" type="line"/>
      <point x="158" y="600"/>
      <point x="190" y="622"/>
      <point x="205" y="622" type="curve" smooth="yes"/>
      <point x="225" y="622"/>
      <point x="317" y="577"/>
      <point x="335" y="577" type="curve" smooth="yes"/>
      <point x="360" y="577"/>
      <point x="416" y="631"/>
      <point x="450" y="688" type="curve"/>
      <point x="431" y="699" type="line"/>
      <point x="407" y="669"/>
      <point x="377" y="649"/>
      <point x="359" y="649" type="curve" smooth="yes"/>
      <point x="338" y="649"/>
      <point x="256" y="694"/>
      <point x="231" y="694" type="curve" smooth="yes"/>
      <point x="209" y="694"/>
      <point x="149" y="639"/>
      <point x="114" y="584" type="curve"/>
    </contour>
  </outline>
</glyph>
<glyph name="macroncomb" format="2">
  <advance width="377"/>
  <unicode hex="0304"/>
  <guideline x="286" y="568" angle="270"/>
  <anchor x="276" y="470" name="_top"/>
  <outline>
    <contour>
      <point x="188" y="586" type="curve"/>
      <point x="413" y="586" type="line"/>
      <point x="422" y="607"/>
      <point x="428" y="627"/>
      <point x="433" y="648" type="curve"/>
      <point x="208" y="648" type="line"/>
      <point x="203" y="627"/>
      <point x="197" y="607"/>
    </contour>
  </outline>
</glyph>
<glyph name="cedillacomb" format="2">
  <advance width="600"/>
  <unicode hex="0327"/>
  <anchor x="265" y="0" name="_bottom"/>
  <outline>
    <contour>
      <point x="119" y="-264" type="curve" smooth="yes"/>
      <point x="183" y="-264"/>
      <point x="251" y="-194"/>
      <point x="251" y="-127" type="curve" smooth="yes"/>
      <point x="251" y="-96"/>
      <point x="206" y="-71"/>
      <point x="161" y="-52" type="curve"/>
      <point x="198" y="14" type="line"/>
      <point x="166" y="19" type="line"/>
      <point x="95" y="-86" type="line"/>
      <point x="99" y="-101" type="line"/>
      <point x="169" y="-131"/>
      <point x="191" y="-150"/>
      <point x="191" y="-176" type="curve" smooth="yes"/>
      <point x="191" y="-196"/>
      <point x="178" y="-212"/>
      <point x="159" y="-224" type="curve"/>
      <point x="130" y="-212"/>
      <point x="97" y="-189"/>
      <point x="64" y="-155" type="curve"/>
      <point x="14" y="-230" type="line"/>
      <point x="54" y="-255"/>
      <point x="97" y="-264"/>
    </contour>
  </outline>
</glyph>
<glyph name="endash" format="2">
  <advance width="487"/>
  <unicode hex="2013"/>
  <outline>
    <contour>
      <point x="19" y="268" type="line"/>
      <point x="494" y="268" type="line"/>
      <point x="494" y="313" type="line"/>
      <point x="19" y="313" type="line"/>
    </contour>
  </outline>
</glyph>
<glyph name="dagger" format="2">
  <advance width="399"/>
  <unicode hex="2020"/>
  <outline>
    <contour>
      <point x="277" y="566" type="curve"/>
      <point x="181" y="388" type="line"/>
      <point x="114" y="-40" type="line"/>
      <point x="134" y="-44" type="line"/>
      <point x="283" y="376" type="line"/>
      <point x="292" y="566" type="line"/>
      <point x="346" y="557"/>
      <point x="386" y="550"/>
      <point x="431" y="558" type="curve"/>
      <point x="444" y="572" type="line"/>
      <point x="441" y="643" type="line"/>
      <point x="390" y="608"/>
      <point x="352" y="603"/>
      <point x="300" y="587" type="curve"/>
      <point x="327" y="633"/>
      <point x="354" y="680"/>
      <point x="371" y="726" type="curve"/>
      <point x="365" y="744" type="line"/>
      <point x="289" y="744" type="line"/>
      <point x="293" y="692"/>
      <point x="287" y="641"/>
      <point x="281" y="589" type="curve"/>
      <point x="250" y="610"/>
      <point x="212" y="632"/>
      <point x="181" y="643" type="curve"/>
      <point x="163" y="637" type="line"/>
      <point x="126" y="557" type="line"/>
      <point x="173" y="567"/>
      <point x="221" y="566"/>
    </contour>
  </outline>
</glyph>
<glyph name="daggerdbl" format="2">
  <advance width="427"/>
  <unicode hex="2021"/>
  <outline>
    <contour>
      <point x="305" y="566" type="curve"/>
      <point x="229" y="471" type="line"/>
      <point x="233" y="352" type="line"/>
      <point x="250" y="348" type="line"/>
      <point x="331" y="459" type="line"/>
      <point x="320" y="566" type="line"/>
      <point x="374" y="557"/>
      <point x="414" y="550"/>
      <point x="459" y="558" type="curve"/>
      <point x="472" y="572" type="line"/>
      <point x="469" y="643" type="line"/>
      <point x="418" y="608"/>
      <point x="380" y="603"/>
      <point x="328" y="587" type="curve"/>
      <point x="355" y="633"/>
      <point x="382" y="680"/>
      <point x="399" y="726" type="curve"/>
      <point x="393" y="744" type="line"/>
      <point x="317" y="744" type="line"/>
      <point x="321" y="692"/>
      <point x="315" y="641"/>
      <point x="309" y="589" type="curve"/>
      <point x="278" y="610"/>
      <point x="240" y="632"/>
      <point x="209" y="643" type="curve"/>
      <point x="191" y="637" type="line"/>
      <point x="154" y="557" type="line"/>
      <point x="201" y="567"/>
      <point x="249" y="566"/>
    </contour>
    <contour>
      <point x="178" y="134" type="curve"/>
      <point x="254" y="229" type="line"/>
      <point x="250" y="348" type="line"/>
      <point x="233" y="352" type="line"/>
      <point x="152" y="241" type="line"/>
      <point x="163" y="134" type="line"/>
      <point x="109" y="143"/>
      <point x="69" y="150"/>
      <point x="24" y="142" type="curve"/>
      <point x="11" y="128" type="line"/>
      <point x="14" y="57" type="line"/>
      <point x="65" y="92"/>
      <point x="103" y="97"/>
      <point x="155" y="113" type="curve"/>
      <point x="128" y="67"/>
      <point x="101" y="20"/>
      <point x="84" y="-26" type="curve"/>
      <point x="90" y="-44" type="line"/>
      <point x="166" y="-44" type="line"/>
      <point x="162" y="8"/>
      <point x="168" y="59"/>
      <point x="174" y="111" type="curve"/>
      <point x="205" y="90"/>
      <point x="243" y="68"/>
      <point x="274" y="57" type="curve"/>
      <point x="292" y="63" type="line"/>
      <point x="329" y="143" type="line"/>
      <point x="282" y="133"/>
      <point x="234" y="134"/>
    </contour>
  </outline>
</glyph>
<glyph name="bullet" format="2">
  <advance width="315"/>
  <unicode hex="2022"/>
  <outline>
    <contour>
      <point x="188" y="253" type="curve" smooth="yes"/>
      <point x="249" y="253"/>
      <point x="291" y="297"/>
      <point x="291" y="356" type="curve" smooth="yes"/>
      <point x="291" y="413"/>
      <point x="249" y="460"/>
      <point x="188" y="460" type="curve" smooth="yes"/>
      <point x="128" y="460"/>
      <point x="84" y="413"/>
      <point x="84" y="356" type="curve" smooth="yes"/>
      <point x="84" y="297"/>
      <point x="128" y="253"/>
    </contour>
  </outline>
</glyph>
<glyph name="guilsinglleft" format="2">
  <advance width="320"/>
  <unicode hex="2039"/>
  <outline>
    <contour>
      <point x="212" y="40" type="line"/>
      <point x="226" y="49" type="line"/>
      <point x="139" y="287" type="line"/>
      <point x="130" y="258" type="line"/>
      <point x="341" y="472" type="line"/>
      <point x="331" y="487" type="line"/>
      <point x="53" y="290" type="line"/>
      <point x="47" y="258" type="line"/>
    </contour>
  </outline>
</glyph>
<glyph name="euro" format="2">
  <advance width="654"/>
  <unicode hex="20AC"/>
  <outline>
    <component base="C" xOffset="65"/>
    <contour>
      <point x="99" y="450" type="line"/>
      <point x="85" y="400" type="line"/>
      <point x="531" y="400" type="line"/>
      <point x="545" y="450" type="line"/>
    </contour>
    <contour>
      <point x="59" y="312" type="line"/>
      <point x="45" y="262" type="line"/>
      <point x="461" y="262" type="line"/>
      <point x="475" y="312" type="line"/>
    </contour>
  </outline>
</glyph>
<glyph name="trademark" format="2">
  <advance width="950"/>
  <unicode hex="2122"/>
  <outline>
    <contour>
      <point x="187" y="332" type="line"/>
      <point x="350" y="332" type="line"/>
      <point x="350" y="346" type="line"/>
      <point x="327" y="350"/>
      <point x="312" y="365"/>
      <point x="312" y="406" type="curve"/>
      <point x="227" y="406" type="line"/>
      <point x="227" y="360"/>
      <point x="211" y="349"/>
      <point x="187" y="346" type="curve"/>
    </contour>
    <contour>
      <point x="227" y="358" type="line"/>
      <point x="312" y="358" type="line"/>
      <point x="312" y="684" type="line"/>
      <point x="227" y="684" type="line"/>
    </contour>
    <contour>
      <point x="267" y="673" type="line"/>
      <point x="341" y="673" type="line" smooth="yes"/>
      <point x="389" y="673"/>
      <point x="416" y="641"/>
      <point x="431" y="587" type="curve"/>
      <point x="446" y="590" type="line"/>
      <point x="439" y="716" type="line"/>
      <point x="423" y="716" type="line"/>
      <point x="419" y="703"/>
      <point x="406" y="701"/>
      <point x="366" y="701" type="curve" smooth="yes"/>
      <point x="267" y="701" type="line"/>
    </contour>
    <contour>
      <point x="268" y="673" type="line"/>
      <point x="268" y="701" type="line"/>
      <point x="169" y="701" type="line" smooth="yes"/>
      <point x="130" y="701"/>
      <point x="117" y="703"/>
      <point x="113" y="716" type="curve"/>
      <point x="97" y="716" type="line"/>
      <point x="90" y="590" type="line"/>
      <point x="104" y="587" type="line"/>
      <point x="116" y="629"/>
      <point x="140" y="673"/>
      <point x="194" y="673" type="curve" smooth="yes"/>
    </contour>
    <contour>
      <point x="466" y="332" type="line"/>
      <point x="603" y="332" type="line"/>
      <point x="603" y="346" type="line"/>
      <point x="563" y="350"/>
      <point x="537" y="368"/>
      <point x="541" y="411" type="curve" smooth="yes"/>
      <point x="563" y="628" type="line"/>
      <point x="563" y="628" type="line"/>
      <point x="678" y="360" type="line"/>
      <point x="707" y="360" type="line"/>
      <point x="825" y="656" type="line"/>
      <point x="808" y="701" type="line"/>
      <point x="717" y="477" type="line"/>
      <point x="719" y="477" type="line"/>
      <point x="621" y="701" type="line"/>
      <point x="490" y="701" type="line"/>
      <point x="490" y="688" type="line"/>
      <point x="517" y="686"/>
      <point x="532" y="666"/>
      <point x="528" y="631" type="curve" smooth="yes"/>
      <point x="508" y="413" type="line" smooth="yes"/>
      <point x="503" y="370"/>
      <point x="494" y="358"/>
      <point x="466" y="346" type="curve"/>
    </contour>
    <contour>
      <point x="798" y="332" type="line"/>
      <point x="954" y="332" type="line"/>
      <point x="954" y="346" type="line"/>
      <point x="932" y="351"/>
      <point x="925" y="362"/>
      <point x="920" y="406" type="curve" smooth="yes"/>
      <point x="895" y="626" type="line" smooth="yes"/>
      <point x="890" y="664"/>
      <point x="899" y="680"/>
      <point x="924" y="687" type="curve"/>
      <point x="924" y="701" type="line"/>
      <point x="807" y="701" type="line"/>
      <point x="835" y="406" type="line" smooth="yes"/>
      <point x="840" y="360"/>
      <point x="820" y="352"/>
      <point x="798" y="346" type="curve"/>
    </contour>
  </outline>
</glyph>
<glyph name="rightArrow" format="2">
  <advance width="1208"/>
  <unicode hex="2192"/>
  <outline>
    <contour>
      <point x="862" y="-44" type="line"/>
      <point x="1171" y="215" type="line"/>
      <point x="1171" y="273" type="line"/>
      <point x="862" y="532" type="line"/>
      <point x="829" y="498" type="line"/>
      <point x="960" y="226" type="line"/>
      <point x="960" y="264" type="line"/>
      <point x="829" y="-9" type="line"/>
    </contour>
    <contour>
      <point x="195" y="267" type="line"/>
      <point x="195" y="222" type="line"/>
      <point x="957" y="222" type="line"/>
      <point x="957" y="267" type="line"/>
    </contour>
    <component base="eclat-fleche" xScale="1.32" yScale="-1.32" xOffset="168" yOffset="568"/>
    <component base="plume-fleche" xScale="1.32" yScale="1.32" xOffset="165" yOffset="-78"/>
    <component base="plume-fleche" xScale="1.32" yScale="-1.32" xOffset="165" yOffset="572"/>
  </outline>
</glyph>
<glyph name="HandPointingRight" format="2">
  <advance width="1525"/>
  <unicode hex="261E"/>
  <outline>
    <contour>
      <point x="244" y="48" type="line"/>
      <point x="120" y="44" type="line"/>
      <point x="197" y="146" type="line"/>
      <point x="92" y="175" type="line"/>
      <point x="187" y="247" type="line"/>
      <point x="83" y="266" type="line"/>
      <point x="187" y="320" type="line"/>
      <point x="92" y="375" type="line"/>
      <point x="200" y="403" type="line"/>
      <point x="120" y="505" type="line"/>
      <point x="253" y="463" type="line"/>
      <point x="207" y="602" type="line"/>
      <point x="399" y="466" type="line"/>
      <point x="505" y="530"/>
      <point x="651" y="597"/>
      <point x="715" y="617" type="curve"/>
      <point x="794" y="602"/>
      <point x="974" y="551"/>
      <point x="1021" y="497" type="curve"/>
      <point x="1342" y="463" type="line" smooth="yes"/>
      <point x="1418" y="455"/>
      <point x="1488" y="445"/>
      <point x="1513" y="383" type="curve"/>
      <point x="1496" y="308"/>
      <point x="1422" y="300"/>
      <point x="1348" y="299" type="curve" smooth="yes"/>
      <point x="1115" y="295" type="line"/>
      <point x="1129" y="275"/>
      <point x="1137" y="247"/>
      <point x="1137" y="225" type="curve" smooth="yes"/>
      <point x="1137" y="187"/>
      <point x="1102" y="136"/>
      <point x="1050" y="136" type="curve"/>
      <point x="1055" y="123"/>
      <point x="1059" y="107"/>
      <point x="1059" y="92" type="curve" smooth="yes"/>
      <point x="1059" y="32"/>
      <point x="987" y="-17"/>
      <point x="939" y="7" type="curve"/>
      <point x="941" y="-1"/>
      <point x="939" y="-10"/>
      <point x="939" y="-17" type="curve" smooth="yes"/>
      <point x="939" y="-52"/>
      <point x="894" y="-76"/>
      <point x="843" y="-76" type="curve" smooth="yes"/>
      <point x="820" y="-76"/>
      <point x="777" y="-71"/>
      <point x="741" y="-56" type="curve"/>
      <point x="719" y="-55"/>
      <point x="599" y="-30"/>
      <point x="554" y="-6" type="curve" smooth="yes"/>
      <point x="405" y="73" type="line"/>
      <point x="211" y="-76" type="line"/>
    </contour>
    <contour>
      <point x="772" y="-31" type="line"/>
      <point x="900" y="-36" type="line"/>
      <point x="914" y="12" type="line"/>
      <point x="723" y="155" type="line"/>
      <point x="691" y="147" type="line"/>
      <point x="666" y="90" type="line"/>
    </contour>
    <contour>
      <point x="740" y="184" type="line"/>
      <point x="945" y="45" type="line"/>
      <point x="992" y="37" type="line"/>
      <point x="1030" y="73" type="line"/>
      <point x="1014" y="125" type="line"/>
      <point x="769" y="247" type="line"/>
    </contour>
    <contour>
      <point x="794" y="321" type="line"/>
      <point x="819" y="268" type="line"/>
      <point x="1024" y="163" type="line"/>
      <point x="1092" y="185" type="line"/>
      <point x="1102" y="238" type="line"/>
      <point x="1069" y="283" type="line"/>
      <point x="1016" y="272" type="line"/>
      <point x="925" y="300" type="line"/>
      <point x="843" y="379" type="line"/>
    </contour>
    <contour>
      <point x="723" y="-26" type="line"/>
      <point x="632" y="89" type="line"/>
      <point x="665" y="169" type="line"/>
      <point x="703" y="189" type="line"/>
      <point x="735" y="270" type="line"/>
      <point x="777" y="279" type="line"/>
      <point x="768" y="307" type="line"/>
      <point x="663" y="259" type="line"/>
      <point x="514" y="259" type="line"/>
      <point x="512" y="294" type="line"/>
      <point x="649" y="299" type="line"/>
      <point x="745" y="344" type="line"/>
      <point x="827" y="419" type="line"/>
      <point x="890" y="395" type="line"/>
      <point x="956" y="332" type="line"/>
      <point x="1028" y="317" type="line"/>
      <point x="1058" y="344" type="line"/>
      <point x="1051" y="375" type="line"/>
      <point x="1026" y="357" type="line"/>
      <point x="996" y="366" type="line"/>
      <point x="968" y="416" type="line"/>
      <point x="1009" y="444" type="line"/>
      <point x="959" y="506" type="line"/>
      <point x="714" y="579" type="line"/>
      <point x="605" y="542"/>
      <point x="497" y="485"/>
      <point x="389" y="414" type="curve"/>
      <point x="368" y="268" type="line"/>
      <point x="403" y="121" type="line"/>
      <point x="584" y="22" type="line"/>
    </contour>
    <contour>
      <point x="1042" y="451" type="line"/>
      <point x="1084" y="394" type="line"/>
      <point x="1095" y="334" type="line"/>
      <point x="1443" y="338" type="line"/>
      <point x="1474" y="370" type="line"/>
      <point x="1443" y="412" type="line"/>
    </contour>
    <contour>
      <point x="757" y="185" type="line"/>
      <point x="777" y="229" type="line"/>
      <point x="836" y="199" type="line"/>
      <point x="813" y="152" type="line"/>
    </contour>
    <contour>
      <point x="682" y="94" type="line"/>
      <point x="698" y="130" type="line"/>
      <point x="720" y="136" type="line"/>
      <point x="770" y="101" type="line"/>
      <point x="719" y="45" type="line"/>
    </contour>
    <contour>
      <point x="807" y="317" type="line"/>
      <point x="842" y="358" type="line"/>
      <point x="894" y="313" type="line"/>
      <point x="859" y="261" type="line"/>
      <point x="830" y="280" type="line"/>
    </contour>
  </outline>
</glyph>
<glyph name="A_E" format="2">
  <advance width="1030"/>
  <unicode hex="F1010"/>
  <outline>
    <contour>
      <point x="-87" y="0" type="line"/>
      <point x="158" y="0" type="line"/>
      <point x="161" y="18" type="line"/>
      <point x="80" y="34" type="line"/>
      <point x="651" y="651" type="line"/>
      <point x="641" y="663" type="line"/>
      <point x="453" y="37" type="line"/>
      <point x="367" y="18" type="line"/>
      <point x="366" y="0" type="line"/>
      <point x="602" y="0" type="line"/>
      <point x="604" y="18" type="line"/>
      <point x="546" y="33" type="line"/>
      <point x="731" y="700" type="line"/>
      <point x="653" y="700" type="line"/>
      <point x="-26" y="32" type="line"/>
      <point x="-85" y="18" type="line"/>
    </contour>
    <contour>
      <point x="226" y="217" type="line"/>
      <point x="529" y="217" type="line"/>
      <point x="534" y="258" type="line"/>
      <point x="242" y="258" type="line"/>
    </contour>
    <component base="E" xOffset="397"/>
  </outline>
</glyph>
<glyph name="A_O" format="2">
  <advance width="1074"/>
  <unicode hex="F1030"/>
  <outline>
    <contour>
      <point x="-87" y="0" type="line"/>
      <point x="158" y="0" type="line"/>
      <point x="161" y="18" type="line"/>
      <point x="70" y="34" type="line"/>
      <point x="470" y="651" type="line"/>
      <point x="460" y="663" type="line"/>
      <point x="454" y="227" type="line"/>
      <point x="534" y="87" type="line"/>
      <point x="549" y="700" type="line"/>
      <point x="472" y="700" type="line"/>
      <point x="-26" y="32" type="line"/>
      <point x="-85" y="18" type="line"/>
    </contour>
    <contour>
      <point x="176" y="217" type="line"/>
      <point x="459" y="217" type="line"/>
      <point x="464" y="258" type="line"/>
      <point x="192" y="258" type="line"/>
    </contour>
    <component base="O" xOffset="397"/>
  </outline>
</glyph>
<glyph name="a_o" format="2">
  <advance width="648"/>
  <unicode hex="F1130"/>
  <outline>
    <component base="panse_adq" xOffset="-52" identifier="03171AA6"/>
    <component base="o" xOffset="229"/>
    <contour>
      <point x="333" y="347" type="line"/>
      <point x="370" y="379" type="line"/>
      <point x="346" y="392" type="line"/>
    </contour>
  </outline>
</glyph>
<glyph name="C_H" format="2">
  <advance width="963"/>
  <unicode hex="F1410"/>
  <outline>
    <component base="C"/>
    <component base="I" xOffset="621"/>
    <contour>
      <point x="397" y="486" type="line"/>
      <point x="334" y="241" type="line"/>
      <point x="351" y="235" type="line"/>
      <point x="411" y="324" type="line"/>
      <point x="789" y="332" type="line"/>
      <point x="794" y="363" type="line"/>
      <point x="425" y="385" type="line"/>
      <point x="415" y="485" type="line"/>
    </contour>
  </outline>
</glyph>
<glyph name="c_h" format="2">
  <advance width="652"/>
  <unicode hex="F1510"/>
  <outline>
    <contour>
      <point x="243" y="442" type="curve"/>
      <point x="260" y="494" type="line"/>
      <point x="143" y="450"/>
      <point x="8" y="232"/>
      <point x="8" y="117" type="curve" smooth="yes"/>
      <point x="8" y="48"/>
      <point x="56" y="-14"/>
      <point x="134" y="-14" type="curve" smooth="yes"/>
      <point x="223" y="-14"/>
      <point x="327" y="68"/>
      <point x="382" y="154" type="curve"/>
      <point x="368" y="165" type="line"/>
      <point x="314" y="113"/>
      <point x="230" y="56"/>
      <point x="161" y="46" type="curve"/>
      <point x="126" y="69"/>
      <point x="106" y="107"/>
      <point x="106" y="159" type="curve" smooth="yes"/>
      <point x="106" y="241"/>
      <point x="142" y="369"/>
    </contour>
    <component base="empattement_montante" xScale="0.918" yScale="1.02" xOffset="-75" yOffset="-21" identifier="08CB8A66"/>
    <contour>
      <point x="232" y="121" type="line"/>
      <point x="361" y="260"/>
      <point x="472" y="379"/>
      <point x="530" y="409" type="curve"/>
      <point x="489" y="292"/>
      <point x="418" y="130"/>
      <point x="404" y="35" type="curve" smooth="yes"/>
      <point x="401" y="15"/>
      <point x="439" y="-14"/>
      <point x="458" y="-14" type="curve"/>
      <point x="497" y="20"/>
      <point x="514" y="49"/>
      <point x="599" y="121" type="curve"/>
      <point x="589" y="138" type="line"/>
      <point x="544" y="113"/>
      <point x="521" y="96"/>
      <point x="494" y="75" type="curve"/>
      <point x="506" y="173"/>
      <point x="613" y="392"/>
      <point x="613" y="457" type="curve" smooth="yes"/>
      <point x="613" y="480"/>
      <point x="604" y="499"/>
      <point x="582" y="499" type="curve" smooth="yes"/>
      <point x="530" y="499"/>
      <point x="425" y="396"/>
      <point x="318" y="257" type="curve"/>
      <point x="419" y="615" type="line"/>
      <point x="347" y="619" type="line"/>
      <point x="203" y="133" type="line"/>
    </contour>
  </outline>
</glyph>
<glyph name="c_q" format="2">
  <advance width="348"/>
  <unicode hex="F1540"/>
  <outline>
    <component base="c"/>
    <contour>
      <point x="294" y="139" type="curve"/>
      <point x="196" y="61" type="line"/>
      <point x="169" y="-31"/>
      <point x="142" y="-123"/>
      <point x="116" y="-203" type="curve"/>
      <point x="-11" y="-232" type="line"/>
      <point x="-13" y="-250" type="line"/>
      <point x="244" y="-250" type="line"/>
      <point x="250" y="-236" type="line"/>
      <point x="194" y="-209" type="line"/>
      <point x="224" y="-108"/>
      <point x="259" y="16"/>
    </contour>
  </outline>
</glyph>
<glyph name="D_U_D_E_L_A" format="2">
  <advance width="2341"/>
  <unicode hex="F1630"/>
  <outline>
    <component base="D"/>
    <contour>
      <point x="897" y="375" type="curve" smooth="yes"/>
      <point x="984" y="375"/>
      <point x="1047" y="419"/>
      <point x="1083" y="535" type="curve" smooth="yes"/>
      <point x="1126" y="673" type="line"/>
      <point x="1176" y="687" type="line"/>
      <point x="1178" y="700" type="line"/>
      <point x="1028" y="700" type="line"/>
      <point x="1025" y="687" type="line"/>
      <point x="1089" y="673" type="line"/>
      <point x="1051" y="550" type="line" smooth="yes"/>
      <point x="1019" y="447"/>
      <point x="970" y="411"/>
      <point x="914" y="411" type="curve" smooth="yes"/>
      <point x="843" y="411"/>
      <point x="785" y="457"/>
      <point x="829" y="589" type="curve" smooth="yes"/>
      <point x="857" y="673" type="line"/>
      <point x="920" y="687" type="line"/>
      <point x="923" y="700" type="line"/>
      <point x="746" y="700" type="line"/>
      <point x="743" y="690" type="line"/>
      <point x="792" y="676" type="line"/>
      <point x="766" y="596" type="line" smooth="yes"/>
      <point x="712" y="429"/>
      <point x="812" y="375"/>
    </contour>
    <contour>
      <point x="591" y="0" type="line"/>
      <point x="780" y="0" type="line"/>
      <point x="781" y="13" type="line"/>
      <point x="714" y="13" type="line"/>
      <point x="801" y="299" type="line"/>
      <point x="863" y="299" type="line"/>
      <point x="866" y="312" type="line"/>
      <point x="688" y="312" type="line"/>
      <point x="685" y="302" type="line"/>
      <point x="732" y="287" type="line"/>
      <point x="652" y="26" type="line"/>
      <point x="592" y="13" type="line"/>
    </contour>
    <contour>
      <point x="715" y="0" type="line"/>
      <point x="970" y="0" type="line"/>
      <point x="1008" y="120" type="line"/>
      <point x="996" y="125" type="line"/>
      <point x="940" y="46" type="line"/>
      <point x="708" y="23" type="line"/>
    </contour>
    <contour>
      <point x="867" y="84" type="line"/>
      <point x="907" y="230" type="line"/>
      <point x="895" y="234" type="line"/>
      <point x="857" y="188" type="line"/>
      <point x="729" y="170" type="line"/>
      <point x="726" y="152" type="line"/>
      <point x="847" y="145" type="line"/>
      <point x="855" y="85" type="line"/>
    </contour>
    <contour>
      <point x="978" y="178" type="line"/>
      <point x="991" y="180" type="line"/>
      <point x="1009" y="312" type="line"/>
      <point x="772" y="312" type="line"/>
      <point x="763" y="293" type="line"/>
      <point x="958" y="273" type="line"/>
    </contour>
    <component base="L" xOffset="1075"/>
    <component base="A" xOffset="1684"/>
  </outline>
</glyph>
<glyph name="d_u_d_e_l_a" format="2">
  <advance width="1636"/>
  <unicode hex="F1730"/>
  <outline>
    <component base="panse_adq" xOffset="-124" yOffset="-250"/>
    <contour>
      <point x="244" y="-264" type="curve"/>
      <point x="281" y="-227"/>
      <point x="322" y="-188"/>
      <point x="383" y="-134" type="curve"/>
      <point x="375" y="-119" type="line"/>
      <point x="324" y="-146"/>
      <point x="287" y="-169"/>
      <point x="262" y="-186" type="curve"/>
      <point x="268" y="-147"/>
      <point x="278" y="-103"/>
      <point x="298" y="-35" type="curve" smooth="yes"/>
      <point x="480" y="585" type="line"/>
      <point x="407" y="589" type="line"/>
      <point x="203" y="-101" type="line" smooth="yes"/>
      <point x="186" y="-159"/>
      <point x="178" y="-200"/>
      <point x="181" y="-213" type="curve" smooth="yes"/>
      <point x="185" y="-231"/>
      <point x="206" y="-250"/>
    </contour>
    <component base="empattement_montante" xScale="0.918" yScale="1.02" xOffset="-6" yOffset="-21" identifier="602CFC41"/>
    <component base="u" yScale="0.93" xOffset="508" yOffset="274"/>
    <component base="e" yScale="0.93" xOffset="458" yOffset="-251"/>
    <contour>
      <point x="959" y="-264" type="curve"/>
      <point x="996" y="-227"/>
      <point x="1037" y="-188"/>
      <point x="1098" y="-134" type="curve"/>
      <point x="1090" y="-119" type="line"/>
      <point x="1039" y="-146"/>
      <point x="1002" y="-169"/>
      <point x="977" y="-186" type="curve"/>
      <point x="983" y="-147"/>
      <point x="994" y="-103"/>
      <point x="1013" y="-35" type="curve" smooth="yes"/>
      <point x="1189" y="585" type="line"/>
      <point x="1116" y="589" type="line"/>
      <point x="918" y="-101" type="line" smooth="yes"/>
      <point x="901" y="-159"/>
      <point x="893" y="-200"/>
      <point x="896" y="-213" type="curve" smooth="yes"/>
      <point x="900" y="-231"/>
      <point x="921" y="-250"/>
    </contour>
    <component base="empattement_montante" xScale="0.918" yScale="1.02" xOffset="703" yOffset="-21"/>
    <component base="a" xOffset="1170"/>
  </outline>
</glyph>
<glyph name="Enb" format="2">
  <advance width="548"/>
  <unicode hex="F1800"/>
  <outline>
    <contour>
      <point x="222" y="-10" type="curve" smooth="yes"/>
      <point x="281" y="-10"/>
      <point x="376" y="8"/>
      <point x="446" y="33" type="curve"/>
      <point x="506" y="210" type="line"/>
      <point x="489" y="217" type="line"/>
      <point x="401" y="72"/>
      <point x="332" y="30"/>
      <point x="263" y="30" type="curve" smooth="yes"/>
      <point x="172" y="30"/>
      <point x="127" y="103"/>
      <point x="127" y="171" type="curve" smooth="yes"/>
      <point x="127" y="266"/>
      <point x="216" y="341"/>
      <point x="270" y="338" type="curve" smooth="yes"/>
      <point x="365" y="332" type="line"/>
      <point x="375" y="232" type="line"/>
      <point x="393" y="231" type="line"/>
      <point x="456" y="476" type="line"/>
      <point x="439" y="482" type="line"/>
      <point x="379" y="393" type="line"/>
      <point x="279" y="376" type="line" smooth="yes"/>
      <point x="248" y="371"/>
      <point x="217" y="420"/>
      <point x="217" y="479" type="curve" smooth="yes"/>
      <point x="217" y="573"/>
      <point x="304" y="668"/>
      <point x="418" y="668" type="curve" smooth="yes"/>
      <point x="462" y="668"/>
      <point x="490" y="654"/>
      <point x="539" y="625" type="curve"/>
      <point x="563" y="475" type="line"/>
      <point x="580" y="477" type="line"/>
      <point x="619" y="654" type="line"/>
      <point x="559" y="691"/>
      <point x="522" y="712"/>
      <point x="449" y="712" type="curve" smooth="yes"/>
      <point x="286" y="712"/>
      <point x="115" y="607"/>
      <point x="115" y="479" type="curve" smooth="yes"/>
      <point x="115" y="420"/>
      <point x="151" y="376"/>
      <point x="198" y="359" type="curve"/>
      <point x="106" y="337"/>
      <point x="21" y="242"/>
      <point x="21" y="152" type="curve" smooth="yes"/>
      <point x="21" y="60"/>
      <point x="106" y="-10"/>
    </contour>
  </outline>
</glyph>
<glyph name="E_S_S" format="2">
  <advance width="1519"/>
  <unicode hex="F18E0"/>
  <outline>
    <contour>
      <point x="-31" y="0" type="line"/>
      <point x="239" y="0" type="line"/>
      <point x="240" y="18" type="line"/>
      <point x="144" y="18" type="line"/>
      <point x="342" y="682" type="line"/>
      <point x="430" y="682" type="line"/>
      <point x="434" y="700" type="line"/>
      <point x="180" y="700" type="line"/>
      <point x="176" y="686" type="line"/>
      <point x="243" y="664" type="line"/>
      <point x="56" y="37" type="line"/>
      <point x="-30" y="18" type="line"/>
    </contour>
    <contour>
      <point x="146" y="0" type="line"/>
      <point x="623" y="0" type="line"/>
      <point x="585" y="41" type="line"/>
      <point x="593" y="186" type="line"/>
      <point x="572" y="178" type="line"/>
      <point x="522" y="67" type="line"/>
      <point x="135" y="33" type="line"/>
    </contour>
    <contour>
      <point x="432" y="219" type="line"/>
      <point x="495" y="464" type="line"/>
      <point x="478" y="470" type="line"/>
      <point x="418" y="381" type="line"/>
      <point x="236" y="356" type="line"/>
      <point x="231" y="330" type="line"/>
      <point x="404" y="320" type="line"/>
      <point x="414" y="220" type="line"/>
    </contour>
    <contour>
      <point x="609" y="509" type="line"/>
      <point x="627" y="512" type="line"/>
      <point x="653" y="700" type="line"/>
      <point x="300" y="700" type="line"/>
      <point x="287" y="673" type="line"/>
      <point x="580" y="644" type="line"/>
    </contour>
    <component base="S_S" xOffset="529"/>
  </outline>
</glyph>
<glyph name="enb" format="2">
  <advance width="341"/>
  <unicode hex="F1900"/>
  <guideline x="437" y="499"/>
  <outline>
    <contour>
      <point x="96" y="-14" type="curve" smooth="yes"/>
      <point x="168" y="-14"/>
      <point x="253" y="69"/>
      <point x="298" y="139" type="curve"/>
      <point x="285" y="150" type="line"/>
      <point x="241" y="110"/>
      <point x="183" y="65"/>
      <point x="130" y="44" type="curve"/>
      <point x="111" y="58"/>
      <point x="101" y="79"/>
      <point x="101" y="103" type="curve" smooth="yes"/>
      <point x="101" y="157"/>
      <point x="150" y="224"/>
      <point x="254" y="227" type="curve"/>
      <point x="284" y="266" type="line"/>
      <point x="279" y="283" type="line"/>
      <point x="176" y="283"/>
      <point x="6" y="204"/>
      <point x="6" y="75" type="curve" smooth="yes"/>
      <point x="6" y="20"/>
      <point x="44" y="-14"/>
    </contour>
    <contour>
      <point x="165" y="243" type="curve"/>
      <point x="184" y="255" type="line"/>
      <point x="166" y="283"/>
      <point x="155" y="309"/>
      <point x="155" y="338" type="curve" smooth="yes"/>
      <point x="155" y="377"/>
      <point x="180" y="412"/>
      <point x="225" y="452" type="curve"/>
      <point x="272" y="430"/>
      <point x="298" y="412"/>
      <point x="334" y="382" type="curve"/>
      <point x="377" y="464" type="line"/>
      <point x="349" y="484"/>
      <point x="303" y="499"/>
      <point x="282" y="499" type="curve" smooth="yes"/>
      <point x="232" y="499"/>
      <point x="55" y="412"/>
      <point x="55" y="327" type="curve" smooth="yes"/>
      <point x="55" y="289"/>
      <point x="92" y="259"/>
    </contour>
  </outline>
</glyph>
<glyph name="e_a" format="2">
  <advance width="804"/>
  <unicode hex="F1910"/>
  <outline>
    <contour>
      <point x="113" y="-14" type="curve" smooth="yes"/>
      <point x="181" y="-14"/>
      <point x="313" y="72"/>
      <point x="383" y="177" type="curve"/>
      <point x="369" y="189" type="line"/>
      <point x="304" y="120"/>
      <point x="182" y="56"/>
      <point x="149" y="46" type="curve"/>
      <point x="120" y="69"/>
      <point x="108" y="108"/>
      <point x="108" y="152" type="curve" smooth="yes"/>
      <point x="108" y="251"/>
      <point x="168" y="387"/>
      <point x="264" y="460" type="curve"/>
      <point x="280" y="444"/>
      <point x="294" y="417"/>
      <point x="294" y="384" type="curve" smooth="yes"/>
      <point x="294" y="314"/>
      <point x="199" y="252"/>
      <point x="106" y="235" type="curve"/>
      <point x="104" y="207" type="line"/>
      <point x="245" y="226"/>
      <point x="382" y="304"/>
      <point x="382" y="410" type="curve" smooth="yes"/>
      <point x="382" y="451"/>
      <point x="329" y="499"/>
      <point x="295" y="499" type="curve" smooth="yes"/>
      <point x="173" y="499"/>
      <point x="13" y="246"/>
      <point x="13" y="114" type="curve" smooth="yes"/>
      <point x="13" y="49"/>
      <point x="54" y="-14"/>
    </contour>
    <component base="a" xOffset="338"/>
  </outline>
</glyph>
<glyph name="e_s_s" format="2">
  <advance width="1007"/>
  <unicode hex="F19E0"/>
  <outline>
    <contour>
      <point x="109" y="-14" type="curve" smooth="yes"/>
      <point x="154" y="-14"/>
      <point x="232" y="35"/>
      <point x="307" y="111" type="curve"/>
      <point x="343" y="51"/>
      <point x="414" y="-9"/>
      <point x="443" y="-9" type="curve" smooth="yes"/>
      <point x="520" y="-9"/>
      <point x="606" y="87"/>
      <point x="606" y="164" type="curve" smooth="yes"/>
      <point x="606" y="174"/>
      <point x="603" y="195"/>
      <point x="595" y="208" type="curve" smooth="yes"/>
      <point x="525" y="321" type="line" smooth="yes"/>
      <point x="515" y="337"/>
      <point x="510" y="345"/>
      <point x="510" y="358" type="curve" smooth="yes"/>
      <point x="510" y="385"/>
      <point x="524" y="419"/>
      <point x="545" y="440" type="curve"/>
      <point x="586" y="426"/>
      <point x="612" y="403"/>
      <point x="707" y="18" type="curve"/>
      <point x="733" y="-1"/>
      <point x="747" y="-9"/>
      <point x="774" y="-9" type="curve" smooth="yes"/>
      <point x="851" y="-9"/>
      <point x="937" y="87"/>
      <point x="937" y="164" type="curve" smooth="yes"/>
      <point x="937" y="174"/>
      <point x="934" y="195"/>
      <point x="926" y="208" type="curve" smooth="yes"/>
      <point x="856" y="321" type="line" smooth="yes"/>
      <point x="846" y="337"/>
      <point x="841" y="345"/>
      <point x="841" y="358" type="curve" smooth="yes"/>
      <point x="841" y="385"/>
      <point x="855" y="419"/>
      <point x="876" y="440" type="curve"/>
      <point x="917" y="426"/>
      <point x="951" y="403"/>
      <point x="977" y="385" type="curve"/>
      <point x="1022" y="476" type="line"/>
      <point x="994" y="490"/>
      <point x="948" y="503"/>
      <point x="930" y="503" type="curve" smooth="yes"/>
      <point x="865" y="503"/>
      <point x="769" y="384"/>
      <point x="769" y="314" type="curve" smooth="yes"/>
      <point x="769" y="301"/>
      <point x="770" y="281"/>
      <point x="781" y="263" type="curve" smooth="yes"/>
      <point x="842" y="165" type="line" smooth="yes"/>
      <point x="853" y="147"/>
      <point x="864" y="128"/>
      <point x="864" y="112" type="curve" smooth="yes"/>
      <point x="864" y="82"/>
      <point x="851" y="64"/>
      <point x="833" y="46" type="curve"/>
      <point x="796" y="62"/>
      <point x="751" y="97"/>
      <point x="667" y="476" type="curve"/>
      <point x="639" y="494"/>
      <point x="617" y="503"/>
      <point x="599" y="503" type="curve" smooth="yes"/>
      <point x="534" y="503"/>
      <point x="438" y="384"/>
      <point x="438" y="314" type="curve" smooth="yes"/>
      <point x="438" y="301"/>
      <point x="439" y="281"/>
      <point x="450" y="263" type="curve" smooth="yes"/>
      <point x="511" y="165" type="line" smooth="yes"/>
      <point x="522" y="147"/>
      <point x="533" y="128"/>
      <point x="533" y="112" type="curve" smooth="yes"/>
      <point x="533" y="82"/>
      <point x="520" y="64"/>
      <point x="502" y="46" type="curve"/>
      <point x="455" y="62"/>
      <point x="404" y="129"/>
      <point x="357" y="202" type="curve"/>
      <point x="291" y="138"/>
      <point x="185" y="56"/>
      <point x="145" y="46" type="curve"/>
      <point x="118" y="69"/>
      <point x="106" y="108"/>
      <point x="106" y="152" type="curve" smooth="yes"/>
      <point x="106" y="170"/>
      <point x="108" y="189"/>
      <point x="112" y="208" type="curve"/>
      <point x="249" y="230"/>
      <point x="380" y="306"/>
      <point x="380" y="410" type="curve" smooth="yes"/>
      <point x="380" y="451"/>
      <point x="327" y="499"/>
      <point x="293" y="499" type="curve" smooth="yes"/>
      <point x="171" y="499"/>
      <point x="13" y="246"/>
      <point x="13" y="114" type="curve" smooth="yes"/>
      <point x="13" y="49"/>
      <point x="61" y="-14"/>
    </contour>
    <contour>
      <point x="119" y="238" type="curve"/>
      <point x="141" y="320"/>
      <point x="192" y="407"/>
      <point x="262" y="460" type="curve"/>
      <point x="278" y="444"/>
      <point x="292" y="417"/>
      <point x="292" y="384" type="curve" smooth="yes"/>
      <point x="292" y="318"/>
      <point x="207" y="258"/>
    </contour>
  </outline>
</glyph>
<glyph name="F_V" format="2">
  <advance width="1083"/>
  <unicode hex="F2050"/>
  <anchor x="198" y="0" name="bottom"/>
  <anchor x="-59" y="700" name="top"/>
  <outline>
    <contour>
      <point x="-31" y="0" type="line"/>
      <point x="239" y="0" type="line"/>
      <point x="240" y="18" type="line"/>
      <point x="150" y="38" type="line"/>
      <point x="342" y="682" type="line"/>
      <point x="430" y="682" type="line"/>
      <point x="434" y="700" type="line"/>
      <point x="180" y="700" type="line"/>
      <point x="176" y="686" type="line"/>
      <point x="243" y="664" type="line"/>
      <point x="56" y="37" type="line"/>
      <point x="-30" y="18" type="line"/>
    </contour>
    <contour>
      <point x="432" y="219" type="line"/>
      <point x="495" y="464" type="line"/>
      <point x="478" y="470" type="line"/>
      <point x="419" y="385" type="line"/>
      <point x="236" y="356" type="line"/>
      <point x="231" y="331" type="line"/>
      <point x="403" y="316" type="line"/>
      <point x="414" y="220" type="line"/>
    </contour>
    <contour>
      <point x="621" y="508" type="line"/>
      <point x="639" y="511" type="line"/>
      <point x="665" y="700" type="line"/>
      <point x="300" y="700" type="line"/>
      <point x="287" y="673" type="line"/>
      <point x="621" y="640" type="line"/>
    </contour>
    <component base="V" xOffset="431" identifier="2724C4F5"/>
  </outline>
</glyph>
<glyph name="f_f_enb" format="2">
  <advance width="571"/>
  <unicode hex="F2130"/>
  <outline>
    <contour>
      <point x="-139" y="-262" type="curve" smooth="yes"/>
      <point x="-71" y="-262"/>
      <point x="43" y="-107"/>
      <point x="69" y="-22" type="curve" smooth="yes"/>
      <point x="120" y="145"/>
      <point x="185" y="402"/>
      <point x="222" y="549" type="curve" smooth="yes"/>
      <point x="234" y="598"/>
      <point x="250" y="643"/>
      <point x="259" y="660" type="curve"/>
      <point x="302" y="675"/>
      <point x="378" y="661"/>
      <point x="430" y="617" type="curve"/>
      <point x="477" y="687" type="line"/>
      <point x="430" y="712"/>
      <point x="370" y="726"/>
      <point x="344" y="726" type="curve" smooth="yes"/>
      <point x="287" y="726"/>
      <point x="165" y="649"/>
      <point x="141" y="545" type="curve"/>
      <point x="112" y="392"/>
      <point x="46" y="155"/>
      <point x="0" y="-7" type="curve" smooth="yes"/>
      <point x="-24" y="-90"/>
      <point x="-56" y="-158"/>
      <point x="-72" y="-180" type="curve"/>
      <point x="-92" y="-189"/>
      <point x="-126" y="-185"/>
      <point x="-185" y="-163" type="curve"/>
      <point x="-220" y="-243" type="line"/>
      <point x="-196" y="-253"/>
      <point x="-164" y="-262"/>
    </contour>
    <contour>
      <point x="361" y="465" type="curve"/>
      <point x="438" y="465" type="line"/>
      <point x="446" y="496"/>
      <point x="453" y="524"/>
      <point x="459" y="549" type="curve" smooth="yes"/>
      <point x="471" y="598"/>
      <point x="487" y="643"/>
      <point x="496" y="660" type="curve"/>
      <point x="539" y="679"/>
      <point x="577" y="676"/>
      <point x="635" y="651" type="curve"/>
      <point x="668" y="723" type="line"/>
      <point x="637" y="735"/>
      <point x="612" y="744"/>
      <point x="586" y="744" type="curve" smooth="yes"/>
      <point x="529" y="744"/>
      <point x="402" y="649"/>
      <point x="378" y="545" type="curve"/>
      <point x="373" y="520"/>
      <point x="368" y="493"/>
    </contour>
    <contour>
      <point x="407" y="440" type="line"/>
      <point x="512" y="499" type="line"/>
      <point x="162" y="491" type="line"/>
      <point x="67" y="472" type="line"/>
      <point x="68" y="455" type="line"/>
      <point x="134" y="448" type="line"/>
    </contour>
    <component base="enb" xOffset="230"/>
    <contour>
      <point x="320" y="24" type="curve"/>
      <point x="246" y="30" type="line"/>
      <point x="243" y="13"/>
      <point x="240" y="3"/>
      <point x="237" y="-7" type="curve" smooth="yes"/>
      <point x="213" y="-90"/>
      <point x="183" y="-133"/>
      <point x="165" y="-155" type="curve"/>
      <point x="145" y="-164"/>
      <point x="60" y="-153"/>
      <point x="1" y="-105" type="curve"/>
      <point x="-37" y="-179" type="line"/>
      <point x="0" y="-203"/>
      <point x="75" y="-217"/>
      <point x="98" y="-217" type="curve" smooth="yes"/>
      <point x="166" y="-217"/>
      <point x="280" y="-107"/>
      <point x="306" y="-22" type="curve" smooth="yes"/>
      <point x="310" y="-7"/>
      <point x="315" y="8"/>
    </contour>
  </outline>
</glyph>
<glyph name="f_v" format="2">
  <advance width="414"/>
  <unicode hex="F2150"/>
  <outline>
    <contour>
      <point x="-134" y="-262" type="curve" smooth="yes"/>
      <point x="-66" y="-262"/>
      <point x="48" y="-107"/>
      <point x="74" y="-22" type="curve" smooth="yes"/>
      <point x="125" y="145"/>
      <point x="190" y="402"/>
      <point x="227" y="549" type="curve" smooth="yes"/>
      <point x="239" y="598"/>
      <point x="255" y="643"/>
      <point x="264" y="660" type="curve"/>
      <point x="307" y="675"/>
      <point x="343" y="663"/>
      <point x="401" y="638" type="curve"/>
      <point x="438" y="722" type="line"/>
      <point x="406" y="737"/>
      <point x="380" y="744"/>
      <point x="354" y="744" type="curve" smooth="yes"/>
      <point x="297" y="744"/>
      <point x="170" y="649"/>
      <point x="146" y="545" type="curve"/>
      <point x="117" y="392"/>
      <point x="51" y="155"/>
      <point x="5" y="-7" type="curve" smooth="yes"/>
      <point x="-19" y="-90"/>
      <point x="-51" y="-154"/>
      <point x="-64" y="-177" type="curve"/>
      <point x="-87" y="-185"/>
      <point x="-121" y="-179"/>
      <point x="-180" y="-157" type="curve"/>
      <point x="-217" y="-243" type="line"/>
      <point x="-191" y="-253"/>
      <point x="-159" y="-262"/>
    </contour>
    <contour>
      <point x="139" y="442" type="line"/>
      <point x="167" y="488" type="line"/>
      <point x="72" y="472" type="line"/>
      <point x="73" y="455" type="line"/>
    </contour>
    <contour>
      <point x="77" y="37" type="curve"/>
      <point x="57" y="-6" type="line"/>
      <point x="72" y="-14" type="line"/>
      <point x="252" y="136"/>
      <point x="408" y="275"/>
      <point x="408" y="387" type="curve" smooth="yes"/>
      <point x="408" y="435"/>
      <point x="392" y="464"/>
      <point x="365" y="499" type="curve"/>
      <point x="284" y="437" type="line"/>
      <point x="305" y="408"/>
      <point x="321" y="382"/>
      <point x="321" y="346" type="curve" smooth="yes"/>
      <point x="321" y="282"/>
      <point x="210" y="130"/>
    </contour>
  </outline>
</glyph>
<glyph name="G_U" format="2">
  <advance width="1031"/>
  <unicode hex="F2210"/>
  <outline>
    <contour>
      <point x="293" y="-13" type="curve" smooth="yes"/>
      <point x="349" y="-13"/>
      <point x="433" y="8"/>
      <point x="490" y="104" type="curve"/>
      <point x="534" y="11"/>
      <point x="600" y="-14"/>
      <point x="670" y="-14" type="curve" smooth="yes"/>
      <point x="794" y="-14"/>
      <point x="889" y="48"/>
      <point x="935" y="214" type="curve" smooth="yes"/>
      <point x="1058" y="661" type="line"/>
      <point x="1129" y="682" type="line"/>
      <point x="1132" y="700" type="line"/>
      <point x="918" y="700" type="line"/>
      <point x="914" y="682" type="line"/>
      <point x="1005" y="661" type="line"/>
      <point x="890" y="235" type="line" smooth="yes"/>
      <point x="850" y="88"/>
      <point x="774" y="37"/>
      <point x="694" y="37" type="curve" smooth="yes"/>
      <point x="594" y="37"/>
      <point x="517" y="98"/>
      <point x="571" y="283" type="curve"/>
      <point x="634" y="299" type="line"/>
      <point x="638" y="317" type="line"/>
      <point x="340" y="317" type="line"/>
      <point x="337" y="300" type="line"/>
      <point x="475" y="281" type="line"/>
      <point x="417" y="73" type="line"/>
      <point x="402" y="55"/>
      <point x="360" y="28"/>
      <point x="319" y="28" type="curve" smooth="yes"/>
      <point x="208" y="28"/>
      <point x="161" y="159"/>
      <point x="161" y="251" type="curve" smooth="yes"/>
      <point x="161" y="430"/>
      <point x="337" y="670"/>
      <point x="471" y="670" type="curve" smooth="yes"/>
      <point x="505" y="670"/>
      <point x="540" y="655"/>
      <point x="566" y="634" type="curve"/>
      <point x="594" y="487" type="line"/>
      <point x="611" y="489" type="line"/>
      <point x="647" y="666" type="line"/>
      <point x="581" y="698"/>
      <point x="545" y="713"/>
      <point x="495" y="713" type="curve" smooth="yes"/>
      <point x="285" y="713"/>
      <point x="58" y="436"/>
      <point x="58" y="229" type="curve" smooth="yes"/>
      <point x="58" y="100"/>
      <point x="146" y="-13"/>
    </contour>
  </outline>
</glyph>
<glyph name="g_u" format="2">
  <advance width="855"/>
  <unicode hex="F2310"/>
  <outline>
    <contour>
      <point x="142" y="125" type="curve" smooth="yes"/>
      <point x="245" y="125"/>
      <point x="355" y="298"/>
      <point x="355" y="392" type="curve" smooth="yes"/>
      <point x="355" y="456"/>
      <point x="306" y="499"/>
      <point x="259" y="499" type="curve" smooth="yes"/>
      <point x="163" y="499"/>
      <point x="43" y="323"/>
      <point x="43" y="230" type="curve" smooth="yes"/>
      <point x="43" y="173"/>
      <point x="87" y="125"/>
    </contour>
    <contour>
      <point x="177" y="166" type="curve"/>
      <point x="153" y="181"/>
      <point x="131" y="215"/>
      <point x="131" y="264" type="curve" smooth="yes"/>
      <point x="131" y="332"/>
      <point x="172" y="423"/>
      <point x="213" y="448" type="curve"/>
      <point x="249" y="432"/>
      <point x="272" y="396"/>
      <point x="272" y="352" type="curve" smooth="yes"/>
      <point x="272" y="292"/>
      <point x="223" y="190"/>
    </contour>
    <contour>
      <point x="505" y="433" type="line"/>
      <point x="531" y="480" type="line"/>
      <point x="526" y="499" type="line"/>
      <point x="304" y="485" type="line"/>
      <point x="204" y="472" type="line"/>
      <point x="205" y="455" type="line"/>
      <point x="276" y="443" type="line"/>
    </contour>
    <contour>
      <point x="168" y="135" type="curve"/>
      <point x="133" y="141" type="line"/>
      <point x="100" y="116"/>
      <point x="65" y="87"/>
      <point x="45" y="62" type="curve"/>
      <point x="45" y="35"/>
      <point x="88" y="-3"/>
      <point x="115" y="-17" type="curve" smooth="yes"/>
      <point x="194" y="-59" type="line" smooth="yes"/>
      <point x="222" y="-74"/>
      <point x="238" y="-85"/>
      <point x="253" y="-101" type="curve"/>
      <point x="228" y="-145"/>
      <point x="147" y="-195"/>
      <point x="84" y="-195" type="curve" smooth="yes"/>
      <point x="34" y="-195"/>
      <point x="-28" y="-153"/>
      <point x="-28" y="-101" type="curve"/>
      <point x="-5" y="-78"/>
      <point x="25" y="-59"/>
      <point x="108" y="-9" type="curve"/>
      <point x="91" y="19" type="line"/>
      <point x="-45" y="-56"/>
      <point x="-75" y="-86"/>
      <point x="-107" y="-119" type="curve"/>
      <point x="-107" y="-210"/>
      <point x="-43" y="-264"/>
      <point x="30" y="-264" type="curve" smooth="yes"/>
      <point x="122" y="-264"/>
      <point x="303" y="-159"/>
      <point x="303" y="-59" type="curve" smooth="yes"/>
      <point x="303" y="-32"/>
      <point x="290" y="-9"/>
      <point x="253" y="12" type="curve" smooth="yes"/>
      <point x="166" y="61" type="line" smooth="yes"/>
      <point x="146" y="72"/>
      <point x="133" y="86"/>
      <point x="129" y="92" type="curve"/>
      <point x="137" y="103"/>
      <point x="153" y="120"/>
    </contour>
    <contour>
      <point x="397" y="-14" type="curve" smooth="yes"/>
      <point x="460" y="-14"/>
      <point x="598" y="139"/>
      <point x="725" y="329" type="curve"/>
      <point x="716" y="363" type="line"/>
      <point x="676" y="305"/>
      <point x="524" y="114"/>
      <point x="449" y="76" type="curve"/>
      <point x="490" y="193"/>
      <point x="562" y="355"/>
      <point x="578" y="475" type="curve"/>
      <point x="526" y="499" type="line"/>
      <point x="492" y="435" type="line"/>
      <point x="473" y="312"/>
      <point x="366" y="93"/>
      <point x="366" y="28" type="curve" smooth="yes"/>
      <point x="366" y="5"/>
      <point x="375" y="-14"/>
    </contour>
    <contour>
      <point x="768" y="319" type="curve" smooth="yes"/>
      <point x="796" y="417"/>
      <point x="806" y="452"/>
      <point x="810" y="488" type="curve"/>
      <point x="800" y="499" type="line"/>
      <point x="734" y="469" type="line"/>
      <point x="721" y="418" type="line" smooth="yes"/>
      <point x="714" y="391"/>
      <point x="681" y="278"/>
      <point x="666" y="227" type="curve" smooth="yes"/>
      <point x="654" y="188"/>
      <point x="601" y="31"/>
      <point x="604" y="19" type="curve" smooth="yes"/>
      <point x="608" y="3"/>
      <point x="640" y="-14"/>
      <point x="669" y="-14" type="curve"/>
      <point x="700" y="20"/>
      <point x="743" y="62"/>
      <point x="799" y="110" type="curve"/>
      <point x="790" y="124" type="line"/>
      <point x="746" y="102"/>
      <point x="720" y="87"/>
      <point x="692" y="65" type="curve"/>
      <point x="704" y="116"/>
      <point x="742" y="234"/>
    </contour>
  </outline>
</glyph>
<glyph name="L_E" format="2">
  <advance width="1068"/>
  <unicode hex="F3210"/>
  <outline>
    <contour>
      <point x="118" y="0" type="line"/>
      <point x="496" y="0" type="line"/>
      <point x="550" y="172" type="line"/>
      <point x="534" y="179" type="line"/>
      <point x="503" y="74" type="line"/>
      <point x="139" y="37" type="line"/>
    </contour>
    <component base="I" identifier="23114E6B"/>
    <component base="E" xOffset="435"/>
  </outline>
</glyph>
<glyph name="L_L" format="2">
  <advance width="1023"/>
  <unicode hex="F3220"/>
  <outline>
    <component base="I"/>
    <component base="L" xOffset="434"/>
    <contour>
      <point x="118" y="0" type="line"/>
      <point x="496" y="0" type="line"/>
      <point x="550" y="172" type="line"/>
      <point x="534" y="179" type="line"/>
      <point x="503" y="74" type="line"/>
      <point x="139" y="37" type="line"/>
    </contour>
  </outline>
</glyph>
<glyph name="L_U" format="2">
  <advance width="1062"/>
  <unicode hex="F3250"/>
  <outline>
    <contour>
      <point x="118" y="0" type="line"/>
      <point x="491" y="0" type="line"/>
      <point x="496" y="18" type="line"/>
      <point x="444" y="68" type="line"/>
      <point x="139" y="37" type="line"/>
    </contour>
    <component base="I"/>
    <component base="U" xOffset="393"/>
  </outline>
</glyph>
<glyph name="l_e" format="2">
  <advance width="400"/>
  <unicode hex="F3311"/>
  <outline>
    <contour>
      <point x="50" y="171" type="line"/>
      <point x="189" y="391" type="line"/>
      <point x="244" y="585" type="line"/>
      <point x="171" y="589" type="line"/>
    </contour>
    <component base="empattement_montante" xScale="0.918" yScale="1.02" xOffset="-242" yOffset="-21"/>
    <component base="e" xOffset="29"/>
  </outline>
</glyph>
<glyph name="l_l" format="2">
  <advance width="508"/>
  <unicode hex="F3320"/>
  <outline>
    <contour>
      <point x="85" y="-14" type="curve"/>
      <point x="142" y="40"/>
      <point x="210" y="104"/>
      <point x="317" y="197" type="curve"/>
      <point x="312" y="216" type="line"/>
      <point x="202" y="144"/>
      <point x="149" y="106"/>
      <point x="103" y="68" type="curve"/>
      <point x="109" y="103"/>
      <point x="120" y="147"/>
      <point x="139" y="215" type="curve" smooth="yes"/>
      <point x="244" y="585" type="line"/>
      <point x="171" y="589" type="line"/>
      <point x="44" y="149" type="line" smooth="yes"/>
      <point x="27" y="91"/>
      <point x="19" y="50"/>
      <point x="22" y="37" type="curve" smooth="yes"/>
      <point x="26" y="19"/>
      <point x="47" y="0"/>
    </contour>
    <component base="empattement_montante" xScale="0.918" yScale="1.02" xOffset="-242" yOffset="-21"/>
    <component base="l" xOffset="250"/>
  </outline>
</glyph>
<glyph name="l_u" format="2">
  <advance width="483"/>
  <unicode hex="F3350"/>
  <outline>
    <contour>
      <point x="25" y="-14" type="curve" smooth="yes"/>
      <point x="88" y="-14"/>
      <point x="226" y="139"/>
      <point x="353" y="329" type="curve"/>
      <point x="344" y="363" type="line"/>
      <point x="304" y="305"/>
      <point x="152" y="114"/>
      <point x="77" y="76" type="curve"/>
      <point x="176" y="351"/>
      <point x="185" y="376"/>
      <point x="244" y="585" type="curve"/>
      <point x="171" y="589" type="line"/>
      <point x="55" y="200"/>
      <point x="-6" y="75"/>
      <point x="-6" y="28" type="curve" smooth="yes"/>
      <point x="-6" y="5"/>
      <point x="3" y="-14"/>
    </contour>
    <contour>
      <point x="297" y="-14" type="curve"/>
      <point x="328" y="20"/>
      <point x="371" y="62"/>
      <point x="427" y="110" type="curve"/>
      <point x="418" y="124" type="line"/>
      <point x="374" y="102"/>
      <point x="348" y="87"/>
      <point x="320" y="65" type="curve"/>
      <point x="332" y="116"/>
      <point x="370" y="234"/>
      <point x="396" y="319" type="curve" smooth="yes"/>
      <point x="424" y="417"/>
      <point x="434" y="452"/>
      <point x="438" y="488" type="curve"/>
      <point x="428" y="499" type="line"/>
      <point x="362" y="469" type="line"/>
      <point x="349" y="418" type="line" smooth="yes"/>
      <point x="342" y="391"/>
      <point x="309" y="278"/>
      <point x="294" y="227" type="curve" smooth="yes"/>
      <point x="282" y="188"/>
      <point x="229" y="31"/>
      <point x="232" y="19" type="curve" smooth="yes"/>
      <point x="236" y="3"/>
      <point x="268" y="-14"/>
    </contour>
    <component base="empattement_montante" xScale="0.918" yScale="1.02" xOffset="-242" yOffset="-21"/>
  </outline>
</glyph>
<glyph name="M_P" format="2">
  <advance width="1075"/>
  <unicode hex="F3410"/>
  <outline>
    <contour>
      <point x="539" y="0" type="line"/>
      <point x="809" y="0" type="line"/>
      <point x="810" y="18" type="line"/>
      <point x="728" y="38" type="line"/>
      <point x="816" y="666" type="line"/>
      <point x="925" y="662"/>
      <point x="999" y="584"/>
      <point x="999" y="516" type="curve" smooth="yes"/>
      <point x="999" y="431"/>
      <point x="902" y="334"/>
      <point x="807" y="287" type="curve"/>
      <point x="814" y="264" type="line"/>
      <point x="886" y="290"/>
      <point x="1098" y="384"/>
      <point x="1098" y="514" type="curve" smooth="yes"/>
      <point x="1098" y="613"/>
      <point x="978" y="700"/>
      <point x="810" y="700" type="curve" smooth="yes"/>
      <point x="734" y="700" type="line"/>
      <point x="634" y="35" type="line"/>
      <point x="540" y="18" type="line"/>
    </contour>
    <contour>
      <point x="-50" y="0" type="line"/>
      <point x="184" y="0" type="line"/>
      <point x="184" y="17" type="line"/>
      <point x="113" y="33" type="line"/>
      <point x="306" y="643" type="line"/>
      <point x="291" y="678" type="line"/>
      <point x="14" y="33" type="line"/>
      <point x="-50" y="17" type="line"/>
    </contour>
    <contour>
      <point x="372" y="59" type="line"/>
      <point x="749" y="607" type="line"/>
      <point x="740" y="696" type="line"/>
      <point x="734" y="700" type="line"/>
      <point x="411" y="170" type="line"/>
      <point x="437" y="180" type="line"/>
      <point x="376" y="700" type="line"/>
      <point x="212" y="700" type="line"/>
      <point x="208" y="683" type="line"/>
      <point x="287" y="667" type="line"/>
      <point x="358" y="63" type="line"/>
    </contour>
  </outline>
</glyph>
<glyph name="m_p" format="2">
  <advance width="934"/>
  <unicode hex="F3510"/>
  <outline>
    <contour>
      <point x="338" y="-250" type="line"/>
      <point x="617" y="-250" type="line"/>
      <point x="621" y="-234" type="line"/>
      <point x="518" y="-209" type="line"/>
      <point x="559" y="-72"/>
      <point x="696" y="410"/>
      <point x="736" y="547" type="curve"/>
      <point x="726" y="560" type="line"/>
      <point x="644" y="514" type="line"/>
      <point x="633" y="474" type="line"/>
      <point x="561" y="424"/>
      <point x="455" y="302"/>
      <point x="358" y="161" type="curve"/>
      <point x="367" y="127" type="line"/>
      <point x="403" y="179"/>
      <point x="530" y="331"/>
      <point x="611" y="391" type="curve"/>
      <point x="561" y="205"/>
      <point x="493" y="-47"/>
      <point x="438" y="-207" type="curve"/>
      <point x="338" y="-234" type="line"/>
    </contour>
    <component base="fut" xOffset="12" identifier="8D6C5998"/>
    <contour>
      <point x="295" y="-14" type="line"/>
      <point x="351" y="16" type="line"/>
      <point x="389" y="149" type="line" smooth="yes"/>
      <point x="419" y="253"/>
      <point x="482" y="410"/>
      <point x="482" y="458" type="curve" smooth="yes"/>
      <point x="482" y="481"/>
      <point x="474" y="499"/>
      <point x="452" y="499" type="curve" smooth="yes"/>
      <point x="389" y="499"/>
      <point x="253" y="351"/>
      <point x="126" y="161" type="curve"/>
      <point x="135" y="127" type="line"/>
      <point x="175" y="185"/>
      <point x="325" y="371"/>
      <point x="400" y="409" type="curve"/>
      <point x="391" y="370"/>
      <point x="344" y="247"/>
      <point x="311" y="146" type="curve" smooth="yes"/>
      <point x="268" y="14" type="line"/>
    </contour>
    <contour>
      <point x="657" y="-14" type="curve" smooth="yes"/>
      <point x="775" y="-14"/>
      <point x="915" y="210"/>
      <point x="915" y="358" type="curve" smooth="yes"/>
      <point x="915" y="422"/>
      <point x="888" y="492"/>
      <point x="844" y="492" type="curve" smooth="yes"/>
      <point x="808" y="492"/>
      <point x="741" y="470"/>
      <point x="671" y="436" type="curve"/>
      <point x="663" y="389" type="line"/>
      <point x="718" y="413"/>
      <point x="769" y="431"/>
      <point x="794" y="433" type="curve"/>
      <point x="810" y="417"/>
      <point x="818" y="364"/>
      <point x="818" y="320" type="curve" smooth="yes"/>
      <point x="818" y="235"/>
      <point x="777" y="101"/>
      <point x="703" y="34" type="curve"/>
      <point x="661" y="43"/>
      <point x="620" y="64"/>
      <point x="590" y="86" type="curve"/>
      <point x="547" y="19" type="line"/>
      <point x="573" y="3"/>
      <point x="612" y="-14"/>
    </contour>
  </outline>
</glyph>
<glyph name="N_N" format="2">
  <advance width="1117"/>
  <unicode hex="F3640"/>
  <outline>
    <contour>
      <point x="899" y="0" type="line"/>
      <point x="945" y="0" type="line"/>
      <point x="955" y="113" type="line"/>
      <point x="734" y="700" type="line"/>
      <point x="563" y="700" type="line"/>
      <point x="560" y="685" type="line"/>
      <point x="651" y="658" type="line"/>
    </contour>
    <contour>
      <point x="-31" y="0" type="line"/>
      <point x="219" y="0" type="line"/>
      <point x="221" y="16" type="line"/>
      <point x="132" y="34" type="line"/>
      <point x="280" y="700" type="line"/>
      <point x="249" y="700" type="line"/>
      <point x="38" y="32" type="line"/>
      <point x="-29" y="16" type="line"/>
    </contour>
    <contour>
      <point x="484" y="0" type="line"/>
      <point x="530" y="0" type="line"/>
      <point x="540" y="113" type="line"/>
      <point x="319" y="700" type="line"/>
      <point x="148" y="700" type="line"/>
      <point x="145" y="685" type="line"/>
      <point x="236" y="658" type="line"/>
    </contour>
    <contour>
      <point x="488" y="0" type="line"/>
      <point x="531" y="0" type="line"/>
      <point x="712" y="700" type="line"/>
      <point x="664" y="700" type="line"/>
    </contour>
    <contour>
      <point x="919" y="0" type="line"/>
      <point x="946" y="0" type="line"/>
      <point x="1148" y="663" type="line"/>
      <point x="1211" y="685" type="line"/>
      <point x="1214" y="700" type="line"/>
      <point x="968" y="700" type="line"/>
      <point x="965" y="685" type="line"/>
      <point x="1058" y="662" type="line"/>
    </contour>
  </outline>
</glyph>
<glyph name="n_n" format="2">
  <advance width="1044"/>
  <unicode hex="F3740"/>
  <outline>
    <component base="fut" xOffset="12" identifier="EBB5D1B9"/>
    <component base="n" xOffset="522"/>
    <contour>
      <point x="364" y="75" type="curve"/>
      <point x="376" y="173"/>
      <point x="485" y="392"/>
      <point x="485" y="457" type="curve" smooth="yes"/>
      <point x="485" y="480"/>
      <point x="474" y="499"/>
      <point x="452" y="499" type="curve" smooth="yes"/>
      <point x="389" y="499"/>
      <point x="246" y="346"/>
      <point x="119" y="161" type="curve"/>
      <point x="128" y="127" type="line"/>
      <point x="168" y="185"/>
      <point x="325" y="371"/>
      <point x="400" y="409" type="curve"/>
      <point x="359" y="292"/>
      <point x="296" y="129"/>
      <point x="275" y="40" type="curve" smooth="yes"/>
      <point x="271" y="22"/>
      <point x="301" y="-5"/>
      <point x="339" y="-14" type="curve"/>
      <point x="396" y="42"/>
      <point x="479" y="121"/>
      <point x="636" y="245" type="curve"/>
      <point x="631" y="267" type="line"/>
      <point x="471" y="164"/>
      <point x="403" y="108"/>
    </contour>
  </outline>
</glyph>
<glyph name="O_F" format="2">
  <advance width="947"/>
  <unicode hex="F3810"/>
  <anchor x="570" y="0" name="bottom"/>
  <anchor x="313" y="700" name="top"/>
  <outline>
    <contour>
      <point x="333" y="0" type="curve" smooth="yes"/>
      <point x="426" y="0" type="line"/>
      <point x="443" y="37" type="line"/>
      <point x="370" y="37" type="line" smooth="yes"/>
      <point x="211" y="37"/>
      <point x="160" y="140"/>
      <point x="160" y="240" type="curve" smooth="yes"/>
      <point x="160" y="400"/>
      <point x="310" y="661"/>
      <point x="605" y="661" type="curve" smooth="yes"/>
      <point x="630" y="661" type="line"/>
      <point x="640" y="700" type="line"/>
      <point x="617" y="700" type="line" smooth="yes"/>
      <point x="270" y="700"/>
      <point x="57" y="433"/>
      <point x="57" y="223" type="curve" smooth="yes"/>
      <point x="57" y="97"/>
      <point x="138" y="0"/>
    </contour>
    <contour>
      <point x="341" y="0" type="line"/>
      <point x="611" y="0" type="line"/>
      <point x="612" y="18" type="line"/>
      <point x="522" y="38" type="line"/>
      <point x="714" y="682" type="line"/>
      <point x="802" y="682" type="line"/>
      <point x="806" y="700" type="line"/>
      <point x="632" y="700" type="line"/>
      <point x="615" y="664" type="line"/>
      <point x="428" y="37" type="line"/>
      <point x="342" y="18" type="line"/>
    </contour>
    <contour>
      <point x="804" y="219" type="line"/>
      <point x="867" y="464" type="line"/>
      <point x="850" y="470" type="line"/>
      <point x="791" y="385" type="line"/>
      <point x="608" y="356" type="line"/>
      <point x="603" y="331" type="line"/>
      <point x="775" y="316" type="line"/>
      <point x="786" y="220" type="line"/>
    </contour>
    <contour>
      <point x="981" y="508" type="line"/>
      <point x="999" y="511" type="line"/>
      <point x="1025" y="700" type="line"/>
      <point x="672" y="700" type="line"/>
      <point x="659" y="673" type="line"/>
      <point x="942" y="638" type="line"/>
    </contour>
  </outline>
</glyph>
<glyph name="O_T" format="2">
  <advance width="733"/>
  <unicode hex="F3840"/>
  <outline>
    <contour>
      <point x="293" y="-13" type="curve" smooth="yes"/>
      <point x="444" y="-13"/>
      <point x="605" y="206"/>
      <point x="605" y="365" type="curve" smooth="yes"/>
      <point x="605" y="467"/>
      <point x="539" y="533"/>
      <point x="453" y="533" type="curve" smooth="yes"/>
      <point x="304" y="533"/>
      <point x="137" y="322"/>
      <point x="137" y="164" type="curve" smooth="yes"/>
      <point x="137" y="70"/>
      <point x="198" y="-13"/>
    </contour>
    <contour>
      <point x="323" y="32" type="curve" smooth="yes"/>
      <point x="258" y="32"/>
      <point x="221" y="109"/>
      <point x="221" y="181" type="curve" smooth="yes"/>
      <point x="221" y="295"/>
      <point x="321" y="487"/>
      <point x="421" y="487" type="curve" smooth="yes"/>
      <point x="472" y="487"/>
      <point x="520" y="436"/>
      <point x="520" y="350" type="curve" smooth="yes"/>
      <point x="520" y="234"/>
      <point x="429" y="32"/>
    </contour>
    <contour>
      <point x="398" y="509" type="line"/>
      <point x="490" y="506" type="line"/>
      <point x="548" y="700" type="line"/>
      <point x="454" y="700" type="line"/>
    </contour>
    <contour>
      <point x="729" y="482" type="line"/>
      <point x="747" y="482" type="line"/>
      <point x="806" y="732" type="line"/>
      <point x="789" y="739" type="line"/>
      <point x="736" y="700" type="line"/>
      <point x="240" y="700" type="line"/>
      <point x="205" y="730" type="line"/>
      <point x="187" y="728" type="line"/>
      <point x="118" y="495" type="line"/>
      <point x="135" y="489" type="line"/>
      <point x="238" y="658" type="line"/>
      <point x="722" y="658" type="line"/>
    </contour>
  </outline>
</glyph>
<glyph name="O_Idieresis" format="2">
  <advance width="677"/>
  <unicode hex="F3870"/>
  <outline>
    <component base="Odieresis" identifier="44E8A2E9"/>
    <contour>
      <point x="219" y="203" type="line"/>
      <point x="438" y="203" type="line"/>
      <point x="439" y="221" type="line"/>
      <point x="368" y="241" type="line"/>
      <point x="440" y="485" type="line"/>
      <point x="515" y="505" type="line"/>
      <point x="519" y="523" type="line"/>
      <point x="316" y="523" type="line"/>
      <point x="312" y="509" type="line"/>
      <point x="365" y="487" type="line"/>
      <point x="292" y="241" type="line"/>
      <point x="220" y="221" type="line"/>
    </contour>
  </outline>
</glyph>
<glyph name="o_f" format="2">
  <advance width="456"/>
  <unicode hex="F3910"/>
  <outline>
    <component base="o"/>
    <contour>
      <point x="334" y="377" type="curve"/>
      <point x="401" y="330" type="line"/>
      <point x="419" y="406"/>
      <point x="441" y="501"/>
      <point x="453" y="549" type="curve" smooth="yes"/>
      <point x="465" y="598"/>
      <point x="481" y="643"/>
      <point x="490" y="660" type="curve"/>
      <point x="533" y="675"/>
      <point x="569" y="663"/>
      <point x="627" y="638" type="curve"/>
      <point x="664" y="722" type="line"/>
      <point x="632" y="737"/>
      <point x="606" y="744"/>
      <point x="580" y="744" type="curve" smooth="yes"/>
      <point x="523" y="744"/>
      <point x="396" y="649"/>
      <point x="372" y="545" type="curve"/>
      <point x="363" y="496"/>
      <point x="350" y="438"/>
    </contour>
    <contour>
      <point x="508" y="437" type="line"/>
      <point x="534" y="484" type="line"/>
      <point x="529" y="503" type="line"/>
      <point x="396" y="485" type="line"/>
      <point x="368" y="443" type="line"/>
    </contour>
  </outline>
</glyph>
<glyph name="o_t" format="2">
  <advance width="663"/>
  <unicode hex="F3940"/>
  <outline>
    <component base="o"/>
    <component base="barreft" xOffset="388" yOffset="28"/>
    <contour>
      <point x="560" y="233" type="curve" smooth="yes"/>
      <point x="624" y="455"/>
      <point x="667" y="571"/>
      <point x="692" y="626" type="curve"/>
      <point x="676" y="636" type="line"/>
      <point x="556" y="480" type="line"/>
      <point x="533" y="405"/>
      <point x="505" y="305"/>
      <point x="486" y="229" type="curve" smooth="yes"/>
      <point x="458" y="119"/>
      <point x="428" y="52"/>
      <point x="397" y="19" type="curve"/>
      <point x="355" y="35"/>
      <point x="300" y="119"/>
      <point x="279" y="167" type="curve"/>
      <point x="235" y="104" type="line"/>
      <point x="248" y="68"/>
      <point x="319" y="-14"/>
      <point x="365" y="-14" type="curve" smooth="yes"/>
      <point x="422" y="-14"/>
      <point x="506" y="46"/>
    </contour>
  </outline>
</glyph>
<glyph name="o_idieresis" format="2">
  <advance width="660"/>
  <unicode hex="F3970"/>
  <outline>
    <component base="o" identifier="85BFDE71"/>
    <component base="dieresiscomb" xOffset="383" identifier="202A0238"/>
    <contour>
      <point x="385" y="-14" type="curve" smooth="yes"/>
      <point x="429" y="-14"/>
      <point x="506" y="15"/>
      <point x="556" y="140" type="curve" smooth="yes"/>
      <point x="577" y="192"/>
      <point x="647" y="422"/>
      <point x="655" y="475" type="curve"/>
      <point x="602" y="499" type="line"/>
      <point x="566" y="465"/>
      <point x="528" y="430"/>
      <point x="465" y="376" type="curve"/>
      <point x="476" y="357" type="line"/>
      <point x="511" y="382"/>
      <point x="539" y="398"/>
      <point x="567" y="418" type="curve"/>
      <point x="563" y="391"/>
      <point x="544" y="324"/>
      <point x="503" y="192" type="curve" smooth="yes"/>
      <point x="479" y="114"/>
      <point x="449" y="52"/>
      <point x="418" y="19" type="curve"/>
      <point x="376" y="35"/>
      <point x="320" y="119"/>
      <point x="299" y="167" type="curve"/>
      <point x="255" y="104" type="line"/>
      <point x="268" y="68"/>
      <point x="339" y="-14"/>
    </contour>
  </outline>
</glyph>
<glyph name="P_M" format="2">
  <advance width="1076"/>
  <unicode hex="F4010"/>
  <outline>
    <component base="P"/>
    <contour>
      <point x="754" y="0" type="line"/>
      <point x="1001" y="0" type="line"/>
      <point x="1001" y="17" type="line"/>
      <point x="938" y="32" type="line"/>
      <point x="1027" y="667" type="line"/>
      <point x="1100" y="683" type="line"/>
      <point x="1103" y="700" type="line"/>
      <point x="945" y="700" type="line"/>
      <point x="845" y="35" type="line"/>
      <point x="754" y="17" type="line"/>
    </contour>
    <contour>
      <point x="607" y="530" type="line"/>
      <point x="529" y="406" type="line"/>
      <point x="569" y="63" type="line"/>
      <point x="583" y="59" type="line"/>
      <point x="960" y="607" type="line"/>
      <point x="951" y="696" type="line"/>
      <point x="945" y="700" type="line"/>
      <point x="622" y="170" type="line"/>
      <point x="648" y="180" type="line"/>
    </contour>
  </outline>
</glyph>
<glyph name="p_m" format="2">
  <advance width="1002"/>
  <unicode hex="F4110"/>
  <outline>
    <component base="p"/>
    <contour>
      <point x="536" y="-14" type="line"/>
      <point x="592" y="16" type="line"/>
      <point x="630" y="149" type="line" smooth="yes"/>
      <point x="660" y="253"/>
      <point x="723" y="410"/>
      <point x="723" y="458" type="curve" smooth="yes"/>
      <point x="723" y="481"/>
      <point x="715" y="499"/>
      <point x="693" y="499" type="curve" smooth="yes"/>
      <point x="630" y="499"/>
      <point x="494" y="351"/>
      <point x="367" y="161" type="curve"/>
      <point x="376" y="127" type="line"/>
      <point x="416" y="185"/>
      <point x="566" y="371"/>
      <point x="641" y="409" type="curve"/>
      <point x="632" y="370"/>
      <point x="585" y="247"/>
      <point x="552" y="146" type="curve" smooth="yes"/>
      <point x="509" y="14" type="line"/>
    </contour>
    <component base="epaule-n" xOffset="462"/>
  </outline>
</glyph>
<glyph name="R_I" format="2">
  <advance width="894"/>
  <unicode hex="F4470"/>
  <outline>
    <contour>
      <point x="-31" y="0" type="line"/>
      <point x="239" y="0" type="line"/>
      <point x="240" y="18" type="line"/>
      <point x="150" y="36" type="line"/>
      <point x="336" y="662" type="line"/>
      <point x="445" y="656"/>
      <point x="505" y="595"/>
      <point x="505" y="527" type="curve" smooth="yes"/>
      <point x="505" y="452"/>
      <point x="402" y="358"/>
      <point x="214" y="325" type="curve"/>
      <point x="206" y="295" type="line"/>
      <point x="397" y="316"/>
      <point x="603" y="412"/>
      <point x="603" y="538" type="curve" smooth="yes"/>
      <point x="603" y="631"/>
      <point x="501" y="700"/>
      <point x="330" y="700" type="curve" smooth="yes"/>
      <point x="180" y="700" type="line"/>
      <point x="176" y="686" type="line"/>
      <point x="243" y="664" type="line"/>
      <point x="56" y="35" type="line"/>
      <point x="-30" y="18" type="line"/>
    </contour>
    <contour>
      <point x="514" y="0" type="line"/>
      <point x="626" y="0" type="line"/>
      <point x="632" y="16" type="line"/>
      <point x="332" y="340" type="line"/>
      <point x="286" y="324" type="line"/>
    </contour>
    <component base="I" xOffset="552"/>
  </outline>
</glyph>
<glyph name="R_S" format="2">
  <advance width="1022"/>
  <unicode hex="F44C0"/>
  <anchor x="445" y="700" name="top"/>
  <outline>
    <contour>
      <point x="683" y="-14" type="curve" smooth="yes"/>
      <point x="811" y="-14"/>
      <point x="900" y="83"/>
      <point x="900" y="182" type="curve" smooth="yes"/>
      <point x="900" y="294"/>
      <point x="784" y="457"/>
      <point x="784" y="549" type="curve" smooth="yes"/>
      <point x="784" y="601"/>
      <point x="822" y="674"/>
      <point x="901" y="674" type="curve" smooth="yes"/>
      <point x="937" y="674"/>
      <point x="976" y="659"/>
      <point x="1000" y="637" type="curve"/>
      <point x="992" y="476" type="line"/>
      <point x="1009" y="473" type="line"/>
      <point x="1079" y="661" type="line"/>
      <point x="1038" y="696"/>
      <point x="976" y="714"/>
      <point x="919" y="714" type="curve" smooth="yes"/>
      <point x="797" y="714"/>
      <point x="700" y="631"/>
      <point x="700" y="521" type="curve" smooth="yes"/>
      <point x="700" y="400"/>
      <point x="818" y="232"/>
      <point x="818" y="148" type="curve" smooth="yes"/>
      <point x="818" y="102"/>
      <point x="783" y="34"/>
      <point x="667" y="20" type="curve"/>
      <point x="639" y="38"/>
      <point x="600" y="75"/>
      <point x="553" y="122" type="curve" smooth="yes"/>
      <point x="332" y="340" type="line"/>
      <point x="276" y="324" type="line"/>
      <point x="470" y="92" type="line" smooth="yes"/>
      <point x="527" y="24"/>
      <point x="601" y="-14"/>
    </contour>
    <contour>
      <point x="-31" y="0" type="line"/>
      <point x="239" y="0" type="line"/>
      <point x="240" y="18" type="line"/>
      <point x="150" y="36" type="line"/>
      <point x="336" y="662" type="line"/>
      <point x="441" y="657"/>
      <point x="505" y="595"/>
      <point x="505" y="531" type="curve" smooth="yes"/>
      <point x="505" y="452"/>
      <point x="408" y="360"/>
      <point x="214" y="325" type="curve"/>
      <point x="206" y="295" type="line"/>
      <point x="397" y="316"/>
      <point x="603" y="411"/>
      <point x="603" y="540" type="curve" smooth="yes"/>
      <point x="603" y="630"/>
      <point x="502" y="700"/>
      <point x="330" y="700" type="curve" smooth="yes"/>
      <point x="180" y="700" type="line"/>
      <point x="176" y="686" type="line"/>
      <point x="243" y="664" type="line"/>
      <point x="56" y="35" type="line"/>
      <point x="-30" y="18" type="line"/>
    </contour>
  </outline>
</glyph>
<glyph name="r_i" format="2">
  <advance width="582"/>
  <unicode hex="F4570"/>
  <outline>
    <contour>
      <point x="144" y="144" type="line"/>
      <point x="216" y="328"/>
      <point x="451" y="606"/>
      <point x="506" y="625" type="curve"/>
      <point x="527" y="624"/>
      <point x="545" y="614"/>
      <point x="562" y="605" type="curve"/>
      <point x="609" y="700" type="line"/>
      <point x="594" y="711"/>
      <point x="559" y="721"/>
      <point x="545" y="721" type="curve" smooth="yes"/>
      <point x="496" y="721"/>
      <point x="225" y="402"/>
      <point x="133" y="163" type="curve"/>
    </contour>
    <component base="fut" xOffset="12"/>
    <component base="idotless" xOffset="306"/>
  </outline>
</glyph>
<glyph name="r_s" format="2">
  <advance width="356"/>
  <unicode hex="F45C0"/>
  <outline>
    <contour>
      <point x="134" y="144" type="line"/>
      <point x="196" y="258"/>
      <point x="281" y="384"/>
      <point x="306" y="403" type="curve"/>
      <point x="327" y="402"/>
      <point x="348" y="392"/>
      <point x="365" y="383" type="curve"/>
      <point x="412" y="478" type="line"/>
      <point x="397" y="489"/>
      <point x="366" y="499"/>
      <point x="352" y="499" type="curve" smooth="yes"/>
      <point x="303" y="499"/>
      <point x="205" y="332"/>
      <point x="123" y="163" type="curve"/>
    </contour>
    <contour>
      <point x="87" y="234" type="curve" smooth="yes"/>
      <point x="71" y="187"/>
      <point x="69" y="154"/>
      <point x="88" y="128" type="curve" smooth="yes"/>
      <point x="134" y="64" type="line" smooth="yes"/>
      <point x="146" y="47"/>
      <point x="156" y="27"/>
      <point x="156" y="11" type="curve" smooth="yes"/>
      <point x="156" y="-19"/>
      <point x="143" y="-37"/>
      <point x="125" y="-55" type="curve"/>
      <point x="78" y="-39"/>
      <point x="40" y="-14"/>
      <point x="2" y="11" type="curve"/>
      <point x="-46" y="-77" type="line"/>
      <point x="-7" y="-98"/>
      <point x="39" y="-110"/>
      <point x="66" y="-110" type="curve" smooth="yes"/>
      <point x="143" y="-110"/>
      <point x="229" y="-14"/>
      <point x="229" y="63" type="curve" smooth="yes"/>
      <point x="229" y="73"/>
      <point x="228" y="93"/>
      <point x="218" y="107" type="curve" smooth="yes"/>
      <point x="158" y="194" type="line" smooth="yes"/>
      <point x="156" y="197"/>
      <point x="154" y="200"/>
      <point x="153" y="203" type="curve"/>
      <point x="187" y="319" type="line" smooth="yes"/>
      <point x="202" y="370"/>
      <point x="222" y="450"/>
      <point x="226" y="475" type="curve"/>
      <point x="173" y="499" type="line"/>
      <point x="137" y="465"/>
      <point x="99" y="430"/>
      <point x="36" y="376" type="curve"/>
      <point x="47" y="357" type="line"/>
      <point x="82" y="382"/>
      <point x="110" y="398"/>
      <point x="138" y="418" type="curve"/>
      <point x="134" y="391"/>
      <point x="118" y="325"/>
    </contour>
  </outline>
</glyph>
<glyph name="S_C" format="2">
  <advance width="589"/>
  <unicode hex="F4610"/>
  <outline>
    <contour>
      <point x="316" y="176" type="curve" smooth="yes"/>
      <point x="393" y="176"/>
      <point x="442" y="234"/>
      <point x="442" y="283" type="curve" smooth="yes"/>
      <point x="442" y="346"/>
      <point x="379" y="419"/>
      <point x="379" y="460" type="curve" smooth="yes"/>
      <point x="379" y="494"/>
      <point x="397" y="528"/>
      <point x="438" y="528" type="curve" smooth="yes"/>
      <point x="457" y="528"/>
      <point x="474" y="522"/>
      <point x="488" y="510" type="curve"/>
      <point x="487" y="424" type="line"/>
      <point x="499" y="422" type="line"/>
      <point x="534" y="524" type="line"/>
      <point x="512" y="543"/>
      <point x="478" y="554"/>
      <point x="447" y="554" type="curve" smooth="yes"/>
      <point x="381" y="554"/>
      <point x="325" y="507"/>
      <point x="325" y="449" type="curve" smooth="yes"/>
      <point x="325" y="383"/>
      <point x="388" y="312"/>
      <point x="388" y="265" type="curve" smooth="yes"/>
      <point x="388" y="241"/>
      <point x="374" y="202"/>
      <point x="327" y="202" type="curve" smooth="yes"/>
      <point x="302" y="202"/>
      <point x="285" y="213"/>
      <point x="267" y="227" type="curve"/>
      <point x="268" y="319" type="line"/>
      <point x="256" y="321" type="line"/>
      <point x="217" y="217" type="line"/>
      <point x="229" y="202"/>
      <point x="267" y="176"/>
    </contour>
    <component base="C"/>
  </outline>
</glyph>
<glyph name="S_L" format="2">
  <advance width="838"/>
  <unicode hex="F4660"/>
  <outline>
    <component base="S" identifier="323EA4B7"/>
    <contour>
      <point x="488" y="436" type="line"/>
      <point x="502" y="433" type="line"/>
      <point x="608" y="662" type="line"/>
      <point x="700" y="682" type="line"/>
      <point x="704" y="700" type="line"/>
      <point x="450" y="700" type="line"/>
      <point x="446" y="686" type="line"/>
      <point x="498" y="637" type="line"/>
    </contour>
    <contour>
      <point x="369" y="0" type="line"/>
      <point x="745" y="0" type="line"/>
      <point x="799" y="172" type="line"/>
      <point x="783" y="179" type="line"/>
      <point x="693" y="68" type="line"/>
      <point x="410" y="37" type="line"/>
      <point x="368" y="10" type="line"/>
    </contour>
  </outline>
</glyph>
